<?xml version="1.0" encoding="UTF-8"?>
<!-- Created with Inkscape (http://www.inkscape.org/) -->
<svg id="svg6688" width="256" height="128" version="1.1" xmlns="http://www.w3.org/2000/svg" xmlns:cc="http://creativecommons.org/ns#" xmlns:dc="http://purl.org/dc/elements/1.1/" xmlns:rdf="http://www.w3.org/1999/02/22-rdf-syntax-ns#">
 <metadata id="metadata6693">
  <rdf:RDF>
   <cc:Work rdf:about="">
    <dc:format>image/svg+xml</dc:format>
    <dc:type rdf:resource="http://purl.org/dc/dcmitype/StillImage"/>
    <dc:title/>
   </cc:Work>
  </rdf:RDF>
 </metadata>
 <g id="layer1" transform="translate(0 -924.36)">
  <g id="g7249" transform="translate(4.8049 373.45)">
   <g id="g17642" transform="translate(-59 151.73)">
    <g id="g17644" transform="translate(-19.75,322.25)">
     <path id="path17646" d="m151.22 120.26 8.2322 18.992v16.146" style="fill:none;stroke-linecap:round;stroke-width:10;stroke:#000"/>
     <path id="path17648" d="m170.77 155.4v-13.965l-2.5533-15.81" style="fill:none;stroke-linecap:round;stroke-width:10;stroke:#000"/>
     <path id="path17650" d="m182.08 141.43v13.965" style="fill:none;stroke-linecap:round;stroke-width:10;stroke:#000"/>
     <path id="path17652" d="m193.04 147.97v7.4246" style="fill:none;stroke-linecap:round;stroke-width:10;stroke:#000"/>
     <path id="path17654" d="m133.32 159.99 15 9.2006h9.5459v-6.0104l-12.101 2.75" style="color:#000000;fill:none;stroke-linecap:round;stroke-width:10;stroke:#000"/>
     <rect id="rect17656" x="159.45" y="152.39" width="33.588" height="16.794" rx="1.2327" ry="1.2327" style="color:#000000;stroke-linecap:round;stroke-width:10;stroke:#000"/>
    </g>
    <path id="path17658" transform="matrix(.56053 0 0 .56053 44.118 376.91)" d="m173 115.36c0 10.493-8.5066 19-19 19s-19-8.5066-19-19 8.5066-19 19-19 19 8.5066 19 19z" style="color:#000000;fill:none;stroke-linecap:round;stroke-width:10.704;stroke:#000"/>
    <path id="path17660" transform="matrix(.56053 0 0 .56053 27.179 417.2)" d="m173 115.36c0 10.493-8.5066 19-19 19s-19-8.5066-19-19 8.5066-19 19-19 19 8.5066 19 19z" style="color:#000000;fill:none;stroke-linecap:round;stroke-width:10.704;stroke:#000"/>
    <path id="path17662" transform="matrix(.56053 0 0 .56053 62.15 382.21)" d="m173 115.36c0 10.493-8.5066 19-19 19s-19-8.5066-19-19 8.5066-19 19-19 19 8.5066 19 19z" style="color:#000000;fill:none;stroke-linecap:round;stroke-width:10.704;stroke:#000"/>
   </g>
   <g id="g17664" transform="translate(11.5 473.98)">
    <path id="path17666" d="m141.45 135.35 18 0.01v20.035" style="fill:none;stroke-linecap:round;stroke-width:10;stroke:#000"/>
    <path id="path17668" d="m170.77 155.4v-13.965l-16.766-0.31969" style="fill:none;stroke-linecap:round;stroke-width:10;stroke:#000"/>
    <path id="path17670" d="m182.08 141.43v13.965" style="fill:none;stroke-linecap:round;stroke-width:10;stroke:#000"/>
    <path id="path17672" d="m193.04 147.97v7.4246" style="fill:none;stroke-linecap:round;stroke-width:10;stroke:#000"/>
    <path id="path17674" d="m137.82 151.74 10.5 17.451h9.5459v-6.0104h-11.601" style="color:#000000;fill:none;stroke-linecap:round;stroke-width:10;stroke:#000"/>
    <rect id="rect17676" x="159.45" y="152.39" width="33.588" height="16.794" rx="1.2327" ry="1.2327" style="color:#000000;stroke-linecap:round;stroke-width:10;stroke:#000"/>
   </g>
   <path id="path17678" transform="translate(0 -447.64)" d="m153.5 1046.6c-5.8818 0-10.656 4.7431-10.656 10.625 0 2.3894 0.79616 4.5981 2.125 6.375-3.6144 1.703-6.125 5.3646-6.125 9.625 0 5.8818 4.7744 10.656 10.656 10.656 5.8504 0 10.606-4.724 10.656-10.562 1.2575 0.5224 2.6472 0.8125 4.0938 0.8125 5.8818 0 10.656-4.7744 10.656-10.656 0-5.8819-4.7744-10.625-10.656-10.625-0.34663 0-0.69311 0-1.0312 0.031-1.6667-3.7058-5.3919-6.2812-9.7188-6.2812z" style="color:#000000;fill:none;stroke-linecap:round;stroke-width:6;stroke:#000"/>
  </g>
 </g>
</svg>
