<?xml version="1.0" encoding="UTF-8"?>
<!-- Created with Inkscape (http://www.inkscape.org/) -->
<svg id="svg6688" width="256" height="128" version="1.1" xmlns="http://www.w3.org/2000/svg" xmlns:cc="http://creativecommons.org/ns#" xmlns:dc="http://purl.org/dc/elements/1.1/" xmlns:rdf="http://www.w3.org/1999/02/22-rdf-syntax-ns#">
 <metadata id="metadata6693">
  <rdf:RDF>
   <cc:Work rdf:about="">
    <dc:format>image/svg+xml</dc:format>
    <dc:type rdf:resource="http://purl.org/dc/dcmitype/StillImage"/>
    <dc:title/>
   </cc:Work>
  </rdf:RDF>
 </metadata>
 <g id="layer1" transform="translate(0 -924.36)">
  <g id="g7162" transform="translate(-12.108 597.77)">
   <g id="g17594" transform="matrix(.86603 .5 -.5 .86603 119.66 178.78)">
    <path id="path17596" d="m159.45 121.1v34.295" style="fill:none;stroke-linecap:round;stroke-width:10;stroke:#000"/>
    <path id="path17598" d="m170.77 141.43v13.965" style="fill:none;stroke-linecap:round;stroke-width:10;stroke:#000"/>
    <path id="path17600" d="m182.08 141.43v13.965" style="fill:none;stroke-linecap:round;stroke-width:10;stroke:#000"/>
    <path id="path17602" d="m193.04 147.97v7.4246" style="fill:none;stroke-linecap:round;stroke-width:10;stroke:#000"/>
    <path id="path17604" d="m148.32 146.74v22.451h9.5459v-6.0104h-7.6014" style="color:#000000;fill:none;stroke-linecap:round;stroke-width:10;stroke:#000"/>
    <rect id="rect17606" x="159.45" y="152.39" width="33.588" height="16.794" rx="1.2327" ry="1.2327" style="color:#000000;stroke-linecap:round;stroke-width:10;stroke:#000"/>
   </g>
   <g id="g17608" transform="matrix(.86603 .5 -.5 .86603 38.657 178.78)">
    <path id="path17610" d="m114.62 146.65 124.36-71.802" style="fill:none;stroke-width:6.4631;stroke:#000"/>
    <path id="path17612" transform="matrix(.86603 -.5 .5 .86603 -43.683 -38.347)" d="m95.781 234.59a5.0005 5.0005 0 0 0-3.9375 2.5312l-17.156 29.719a5.0005 5.0005 0 0 0-0.09375 0.1875l-1.2812 2.2188-0.96875-0.5625 5.7188-9.9062a5.0005 5.0005 0 0 0-1.8438-6.9375 5.0005 5.0005 0 0 0-6.8125 1.9375l-11.219 19.438-2.5 4.3438 4.3125 2.5 8.2812 4.7812 2.375 1.375c0.01982 0.0118 0.0425 0.0197 0.0625 0.0312l1.9062 1.0938 25.062 14.469c2.9154 1.6832 6.8168 0.63416 8.5-2.2812l6.0938-10.594a5.0005 5.0005 0 0 0 0.125-0.1875l0.0625-0.0937 3.7188-6.4375a5.0005 5.0005 0 0 0-1.875-6.9375 5.0005 5.0005 0 0 0-6.5 1.4688l-0.84375-0.5 3-5.1562a5.0005 5.0005 0 0 0-1.875-6.9375 5.0005 5.0005 0 0 0-6.7812 1.9375l-3 5.1562-1.125-0.65625 2.9688-5.1562a5.0005 5.0005 0 0 0-1.875-6.9375 5.0005 5.0005 0 0 0-6.7812 1.9375l-2.9688 5.1562-1.1562-0.65625 13.156-22.812a5.0005 5.0005 0 0 0-1.875-6.9062 5.0005 5.0005 0 0 0-2.875-0.625z" style="block-progression:tb;color:#000000;fill:#fff;stroke:#000;text-indent:0;text-transform:none"/>
    <path id="path17614" d="m231.23 63.613 18.783 5.0328-5.0328 18.783z" style="color:#000000"/>
   </g>
   <path id="path17616" d="m79 351.09h-14v79" style="fill:none;stroke-width:4;stroke:#000"/>
  </g>
 </g>
</svg>
