<?xml version="1.0" encoding="UTF-8"?>
<!-- Created with Inkscape (http://www.inkscape.org/) -->
<svg id="svg4317" width="64" height="64" version="1.1" viewBox="0 0 64 64" xmlns="http://www.w3.org/2000/svg" xmlns:cc="http://creativecommons.org/ns#" xmlns:dc="http://purl.org/dc/elements/1.1/" xmlns:rdf="http://www.w3.org/1999/02/22-rdf-syntax-ns#">
 <metadata id="metadata4322">
  <rdf:RDF>
   <cc:Work rdf:about="">
    <dc:format>image/svg+xml</dc:format>
    <dc:type rdf:resource="http://purl.org/dc/dcmitype/StillImage"/>
    <dc:title/>
   </cc:Work>
  </rdf:RDF>
 </metadata>
 <g id="layer1" transform="translate(0 -988.36)">
  <path id="rect4249" transform="translate(0 988.36)" d="m25 8c-4.9528 0-9 4.0472-9 9 0 4.8494 3.8823 8.8203 8.6934 8.9844l2.3066 4.9102v10.291 2.3086l-6.5352 0.79102-1.0508-1.127c0.37269-0.98539 0.58594-2.0459 0.58594-3.1582 0-4.9528-4.0472-9-9-9-4.9528 0-9 4.0472-9 9s4.0472 9 9 9c0.85712 0 1.6841-0.12934 2.4707-0.35547l8.5293 9.3555h9 4 23c2.216 0 4-1.8668 4-4.1855v-12.629-9c0-2.3188-1.784-4.1855-4-4.1855s-4 1.8668-4 4.1855v4.8145h-1v-10.814c0-2.3188-1.784-4.1855-4-4.1855s-4 1.8668-4 4.1855v10.814h-1v-23.814c0-2.3188-1.784-4.1855-4-4.1855s-4 1.8668-4 4.1855v23.814h-1v-6.8145c0-0.004707-0.001938-0.008969-0.001953-0.013672a4.0004 4.0004 0 0 0-0.37695-1.8711l-2.6465-5.6328c1.2634-1.5502 2.0254-3.5226 2.0254-5.668 0-4.9528-4.0472-9-9-9zm0 3c3.3315 0 6 2.6686 6 6 0 0.88251-0.19207 1.7146-0.5293 2.4668l-1.4102-3.0039a4.1029 3.9987 0 0 0-4.0605-3.4609 4.1029 3.9987 0 0 0-0.17383 0.005859 4.0004 4.0004 0 0 0-3.9297 3.9902 4.1029 3.9987 0 0 1 0 0.001953 4.1029 3.9987 0 0 0 0.001954 0.027344 4.0004 4.0004 0 0 0 0.40039 1.7285l1.8574 3.9551c-2.4195-0.77225-4.1562-3.024-4.1562-5.7109 0-3.3314 2.6685-6 6-6zm-14 23c3.3315 0 6 2.6686 6 6 0 0.18244-0.011668 0.36093-0.027344 0.53906l-3.0078-3.2266c-0.72627-0.8008-1.7457-1.2735-2.8262-1.3105-3.5867-0.1227-5.5082 4.1743-3.0254 6.7656l2.9434 3.2305c-0.019049 1.75e-4 -0.037548 0.001953-0.056641 0.001953-3.3315 0-6-2.6685-6-6 0-3.3314 2.6685-6 6-6z" style="color-rendering:auto;color:#000000;image-rendering:auto;isolation:auto;mix-blend-mode:normal;shape-rendering:auto;solid-color:#000000;stroke-width:0"/>
  <rect id="rect7301" x="-73" y="1014.4" width="8" height="32" rx="4" ry="4.1855" style="color-rendering:auto;color:#000000;image-rendering:auto;isolation:auto;mix-blend-mode:normal;shape-rendering:auto;solid-color:#000000;stroke-width:0"/>
  <rect id="rect7303" x="-64" y="997.36" width="8" height="49" rx="4" ry="4.1855" style="color-rendering:auto;color:#000000;image-rendering:auto;isolation:auto;mix-blend-mode:normal;shape-rendering:auto;solid-color:#000000;stroke-width:0"/>
  <rect id="rect7305" x="-55" y="1010.4" width="8" height="36" rx="4" ry="4.1855" style="color-rendering:auto;color:#000000;image-rendering:auto;isolation:auto;mix-blend-mode:normal;shape-rendering:auto;solid-color:#000000;stroke-width:0"/>
  <rect id="rect7307" x="-46" y="1016.4" width="8" height="30" rx="4" ry="4.1855" style="color-rendering:auto;color:#000000;image-rendering:auto;isolation:auto;mix-blend-mode:normal;shape-rendering:auto;solid-color:#000000;stroke-width:0"/>
  <rect id="rect7309" x="-73" y="1025.4" width="35" height="21" rx="4" ry="4.1855" style="color-rendering:auto;color:#000000;image-rendering:auto;isolation:auto;mix-blend-mode:normal;shape-rendering:auto;solid-color:#000000;stroke-width:0"/>
  <ellipse id="ellipse7311" cx="-89" cy="1028.4" rx="7.5" ry="7.5" style="color:#000000;fill:none;stroke-linecap:round;stroke-width:3;stroke:#000"/>
  <path id="path7313" d="m-88.861 1024.4c-3.5867-0.1227-5.5082 4.1743-3.0254 6.7656l13.887 15.232h13l-6.0352-14.744-8.5 1.0283-6.5-6.9716c-0.72627-0.8008-1.7457-1.2736-2.8262-1.3106z" style="block-progression:tb;color-rendering:auto;color:#000000;fill-rule:evenodd;image-rendering:auto;isolation:auto;mix-blend-mode:normal;shape-rendering:auto;solid-color:#000000;text-decoration-color:#000000;text-decoration-line:none;text-decoration-style:solid;text-indent:0;text-transform:none;white-space:normal"/>
  <ellipse id="ellipse7315" cx="-75" cy="1005.4" rx="7.5" ry="7.5" style="color:#000000;fill:none;stroke-linecap:round;stroke-width:3;stroke:#000"/>
  <ellipse id="ellipse7317" cx="-75" cy="1005.4" rx="4.1029" ry="3.9987" style="fill-opacity:.31565;fill:#4a90d9;stroke-width:0"/>
  <path id="path7319" d="m-75.081 1005.4 6.0811 12.946" style="fill:none;stroke-linecap:round;stroke-width:8;stroke:#000"/>
 </g>
</svg>
