<?xml version="1.0" encoding="UTF-8"?>
<svg id="svg2" width="10.445" height="15" font-size="12" stroke-miterlimit="10" style="color-interpolation:auto;color-rendering:auto;fill:#000000;font-family:Dialog;font-size:12px;image-rendering:auto;shape-rendering:auto;stroke-linecap:square;stroke-miterlimit:10;stroke:#000000;text-rendering:auto" version="1.1" xmlns="http://www.w3.org/2000/svg" xmlns:cc="http://creativecommons.org/ns#" xmlns:dc="http://purl.org/dc/elements/1.1/" xmlns:rdf="http://www.w3.org/1999/02/22-rdf-syntax-ns#">
 <metadata id="metadata13">
  <rdf:RDF>
   <cc:Work rdf:about="">
    <dc:format>image/svg+xml</dc:format>
    <dc:type rdf:resource="http://purl.org/dc/dcmitype/StillImage"/>
    <dc:title/>
   </cc:Work>
  </rdf:RDF>
 </metadata>
 <!--Unicode Character 'POCKET CALCULATOR' (U+1F5A9)-->
 <path id="path9" d="m0 0v15h10.445v-15h-10.445zm1.4199 1.7569h7.6028v2.5357h-7.6028v-2.5357zm0 4.111h1.5993v1.2318h-1.5993v-1.2318zm3.0039 0h1.5971v1.2318h-1.5971v-1.2318zm3.0018 0h1.5971v1.2318h-1.5971v-1.2318zm-6.0057 2.0085h1.5993v1.2318h-1.5993v-1.2318zm3.0039 0h1.5971v1.2318h-1.5971v-1.2318zm3.0018 0h1.5971v1.2318h-1.5971v-1.2318zm-6.0057 2.0085h1.5993v1.234h-1.5993v-1.234zm3.0039 0h1.5971v1.234h-1.5971v-1.234zm3.0018 0h1.5971v1.234h-1.5971v-1.234zm-6.0057 2.0106h1.5993v1.2318h-1.5993v-1.2318zm3.0039 0h1.5971v1.2318h-1.5971v-1.2318zm3.0018 0h1.5971v1.2318h-1.5971v-1.2318z" style="fill:#000;stroke:none"/>
</svg>
