<?xml version="1.0" encoding="UTF-8"?>
<svg id="svg3455" width="2752" height="176" version="1.1" viewBox="0 0 2752 176" xmlns="http://www.w3.org/2000/svg" xmlns:cc="http://creativecommons.org/ns#" xmlns:dc="http://purl.org/dc/elements/1.1/" xmlns:rdf="http://www.w3.org/1999/02/22-rdf-syntax-ns#" xmlns:xlink="http://www.w3.org/1999/xlink">
 <metadata id="metadata4483">
  <rdf:RDF>
   <cc:Work rdf:about="">
    <dc:format>image/svg+xml</dc:format>
    <dc:type rdf:resource="http://purl.org/dc/dcmitype/StillImage"/>
   </cc:Work>
  </rdf:RDF>
 </metadata>
 <defs id="defs3457">
  <g id="bt1">
   <path id="path3460" d="M9,0C8.47,0,7.96,0.21,7.59,0.59l-7,7C0.21,7.96,0,8.47,0,9v77c0,1.1,0.9,2,2,2h53c0.53,0,1.04-0.21,1.41-0.59l7-7C63.79,80.04,64,79.53,64,79V2c0-1.1-0.9-2-2-2H9z"/>
   <path id="path3462" d="m11.75 78.25-9 9h52.25c0.33 0 0.65-0.13 0.88-0.37l7-7c0.23-0.23 0.37-1.3 0.37-1.63h-51.5z" fill="#9F9F9F"/>
   <path id="path3464" d="m8.12 1.12-7 7c-0.24 0.23-0.37 0.55-0.37 0.88v76.25l2 2 7-7v-79.5c-0.33 0-1.4 0.13-1.63 0.37z" fill="#D7D7D7"/>
   <path id="path3466" d="m1.61 86.89 10.14-10.14v-0.5l-10.41 10.41c0.08 0.09 0.17 0.16 0.27 0.23z" fill="#BFBFBF"/>
   <path id="path3468" d="m1.93 87.07 9.82-9.82v-0.5l-10.14 10.14c0.1 0.07 0.21 0.13 0.32 0.18z" fill="#B7B7B7"/>
   <path id="path3470" d="m2.3 87.2 9.45-9.45v-0.5l-9.82 9.82c0.12 0.05 0.24 0.1 0.37 0.13z" fill="#AFAFAF"/>
   <path id="path3472" d="m11.75 77.75-9.45 9.45c0.14 0.03 0.29 0.05 0.45 0.05l9-9v-0.5z" fill="#A7A7A7"/>
   <path id="path3474" d="m1.34 86.66 10.41-10.41h-0.5l-10.14 10.14c0.07 0.1 0.14 0.19 0.23 0.27z" fill="#C7C7C7"/>
   <path id="path3476" d="m1.11 86.39 10.14-10.14h-0.5l-9.82 9.82c0.05 0.11 0.11 0.22 0.18 0.32z" fill="#CDCDCD"/>
   <path id="path3478" d="m0.93 86.07 9.82-9.82h-0.5l-9.45 9.45c0.03 0.13 0.08 0.25 0.13 0.37z" fill="#D2D2D2"/>
   <path id="path3480" d="m10.25 76.25h-0.5l-9 9c0 0.15 0.02 0.3 0.05 0.45l9.45-9.45z" fill="#D7D7D7"/>
   <path id="path3482" d="m63.25 78.25v-75.5c0-1.1-0.9-2-2-2h-50.5c-1.1 0-2 0.9-2 2v75.5c0 1.1 0.9 2 2 2h50.5c1.1 0 2-0.9 2-2z" fill="#F6F6F6"/>
   <path id="path3484" d="m8.75 78.25v-75.5c0-1.1 0.9-2 2-2h-1c-1.1 0-2 0.9-2 2v75.5c0 1.1 0.9 2 2 2h1c-1.1 0-2-0.9-2-2z" fill="#fff"/>
  </g>
  <g id="bt2">
   <path id="path3487" d="M9,0C8.47,0,7.96,0.21,7.59,0.59l-7,7C0.21,7.96,0,8.47,0,9v77c0,1.1,0.9,2,2,2h53c0.53,0,1.04-0.21,1.41-0.59l7-7C63.79,80.04,64,79.53,64,79V2c0-1.1-0.9-2-2-2H9z" fill="#00f"/>
   <path id="path3489" d="m11.75 78.25-9 9h52.25c0.33 0 0.65-0.13 0.88-0.37l7-7c0.23-0.23 0.37-1.3 0.37-1.63h-51.5z" fill="#8F8FFF"/>
   <path id="path3491" d="m8.12 1.12-7 7c-0.24 0.23-0.37 0.55-0.37 0.88v76.25l2 2 7-7v-79.5c-0.33 0-1.4 0.13-1.63 0.37z" fill="#C7C7FF"/>
   <path id="path3493" d="m1.61 86.89 10.14-10.14v-0.5l-10.41 10.41c0.08 0.09 0.17 0.16 0.27 0.23z" fill="#AFAFFF"/>
   <path id="path3495" d="m1.93 87.07 9.82-9.82v-0.5l-10.14 10.14c0.1 0.07 0.21 0.13 0.32 0.18z" fill="#A7A7FF"/>
   <path id="path3497" d="m2.3 87.2 9.45-9.45v-0.5l-9.82 9.82c0.12 0.05 0.24 0.1 0.37 0.13z" fill="#9F9FFF"/>
   <path id="path3499" d="m11.75 77.75-9.45 9.45c0.14 0.03 0.29 0.05 0.45 0.05l9-9v-0.5z" fill="#9797FF"/>
   <path id="path3501" d="m1.34 86.66 10.41-10.41h-0.5l-10.14 10.14c0.07 0.1 0.14 0.19 0.23 0.27z" fill="#B7B7FF"/>
   <path id="path3503" d="m1.11 86.39 10.14-10.14h-0.5l-9.82 9.82c0.05 0.11 0.11 0.22 0.18 0.32z" fill="#BDBDFF"/>
   <path id="path3505" d="m0.93 86.07 9.82-9.82h-0.5l-9.45 9.45c0.03 0.13 0.08 0.25 0.13 0.37z" fill="#C2C2FF"/>
   <path id="path3507" d="m10.25 76.25h-0.5l-9 9c0 0.15 0.02 0.3 0.05 0.45l9.45-9.45z" fill="#C7C7FF"/>
   <path id="path3509" d="m61.25 0.75h-51.5c-1.1 0-2 0.9-2 2v75.5c0 1.1 0.9 2 2 2h51.5c1.1 0 2-0.9 2-2v-75.5c0-1.1-0.9-2-2-2z" fill="#E3E3FF"/>
   <path id="path3511" d="M60,74.19c0,1.55-1.22,2.81-2.72,2.81H13.72c-1.5,0-2.72-1.26-2.72-2.81V6.81C11,5.26,12.22,4,13.72,4h43.56C58.78,4,60,5.26,60,6.81V74.19z" fill="#fff" stroke="#00f" stroke-width="3"/>
  </g>
  <path id="bams" d="m11 13.5c0-0.92-1.25-1.71-3.06-2.09v-6.97c1.81-0.38 3.06-1.17 3.06-2.09 0-1.3-2.46-2.35-5.5-2.35s-5.5 1.05-5.5 2.35c0 0.92 1.25 1.71 3.06 2.09v6.97c-1.81 0.38-3.06 1.17-3.06 2.09s1.25 1.71 3.06 2.09v6.96c-1.81 0.39-3.06 1.18-3.06 2.1 0 1.3 2.46 2.35 5.5 2.35s5.5-1.05 5.5-2.35c0-0.92-1.25-1.71-3.06-2.09v-6.96c1.81-0.39 3.06-1.18 3.06-2.1zm-5.5-12.03c1.35 0 2.44 0.39 2.44 0.88 0 0.41-0.78 0.75-1.83 0.85v5.94c0 0.46-0.28 0.84-0.61 0.84s-0.61-0.38-0.61-0.84v-5.94c-1.05-0.1-1.83-0.44-1.83-0.85 0-0.49 1.09-0.88 2.44-0.88zm0 24.06c-1.35 0-2.44-0.39-2.44-0.88 0-0.41 0.78-0.75 1.83-0.85v-5.94c0-0.46 0.28-0.84 0.61-0.84s0.61 0.38 0.61 0.84v5.94c1.05 0.1 1.83 0.44 1.83 0.85 0 0.49-1.09 0.88-2.44 0.88zm0-11.15c-1.86 0-3.36-0.39-3.36-0.88s1.5-0.88 3.36-0.88 3.36 0.39 3.36 0.88-1.5 0.88-3.36 0.88z" fill="#006C00"/>
  <path id="bams2" d="m11 13.5c0-0.92-1.25-1.71-3.06-2.09v-6.97c1.81-0.38 3.06-1.17 3.06-2.09 0-1.3-2.46-2.35-5.5-2.35s-5.5 1.05-5.5 2.35c0 0.92 1.25 1.71 3.06 2.09v6.97c-1.81 0.38-3.06 1.17-3.06 2.09s1.25 1.71 3.06 2.09v6.96c-1.81 0.39-3.06 1.18-3.06 2.1 0 1.3 2.46 2.35 5.5 2.35s5.5-1.05 5.5-2.35c0-0.92-1.25-1.71-3.06-2.09v-6.96c1.81-0.39 3.06-1.18 3.06-2.1zm-5.5-12.03c1.35 0 2.44 0.39 2.44 0.88 0 0.41-0.78 0.75-1.83 0.85v5.94c0 0.46-0.28 0.84-0.61 0.84s-0.61-0.38-0.61-0.84v-5.94c-1.05-0.1-1.83-0.44-1.83-0.85 0-0.49 1.09-0.88 2.44-0.88zm0 24.06c-1.35 0-2.44-0.39-2.44-0.88 0-0.41 0.78-0.75 1.83-0.85v-5.94c0-0.46 0.28-0.84 0.61-0.84s0.61 0.38 0.61 0.84v5.94c1.05 0.1 1.83 0.44 1.83 0.85 0 0.49-1.09 0.88-2.44 0.88zm0-11.15c-1.86 0-3.36-0.39-3.36-0.88s1.5-0.88 3.36-0.88 3.36 0.39 3.36 0.88-1.5 0.88-3.36 0.88z" fill="#9C0000"/>
  <g id="dots">
   <path id="path3516" d="m9 1.42c-4.18 0-7.58 3.4-7.58 7.58s3.4 7.58 7.58 7.58 7.58-3.4 7.58-7.58-3.4-7.58-7.58-7.58zm0 13.69c-1.36 0-2.49-0.97-2.75-2.25 0.78 0.56 1.72 0.89 2.75 0.89s1.97-0.34 2.75-0.89c-0.26 1.28-1.39 2.25-2.75 2.25zm0-12.22c1.36 0 2.49 0.97 2.75 2.25-0.78-0.55-1.72-0.89-2.75-0.89s-1.97 0.34-2.75 0.89c0.26-1.28 1.39-2.25 2.75-2.25zm3.75 6.11c0 0.57-0.14 1.11-0.37 1.59-0.34-0.67-0.87-1.22-1.53-1.59 0.66-0.37 1.19-0.92 1.53-1.59 0.23 0.48 0.37 1.02 0.37 1.59zm-7.5 0c0-0.57 0.14-1.11 0.37-1.59 0.34 0.67 0.87 1.22 1.53 1.59-0.66 0.37-1.19 0.92-1.53 1.59-0.23-0.48-0.37-1.02-0.37-1.59zm6.34 2.7c-1.02-0.27-1.82-1.1-2.03-2.14 1.04 0.21 1.87 1.01 2.14 2.03l-0.11 0.11zm-5.29-0.11c0.27-1.02 1.1-1.82 2.15-2.03-0.21 1.04-1.01 1.87-2.03 2.14-0.05-0.04-0.08-0.07-0.12-0.11zm0.11-5.29c1.02 0.27 1.82 1.1 2.03 2.15-1.04-0.22-1.87-1.02-2.14-2.04l0.11-0.11zm5.29 0.11c-0.27 1.02-1.1 1.82-2.14 2.03 0.21-1.05 1.01-1.87 2.03-2.15 0.04 0.05 0.07 0.08 0.11 0.12zm-2.7 0.74c-0.37-0.66-0.92-1.19-1.59-1.53 0.48-0.23 1.02-0.37 1.59-0.37s1.11 0.14 1.59 0.37c-0.67 0.34-1.22 0.87-1.59 1.53zm0 3.7c0.37 0.66 0.92 1.19 1.59 1.53-0.49 0.23-1.02 0.37-1.59 0.37s-1.11-0.14-1.59-0.37c0.67-0.34 1.22-0.87 1.59-1.53zm-3.86 0.9c-1.28-0.26-2.25-1.39-2.25-2.75s0.97-2.49 2.25-2.75c-0.55 0.78-0.89 1.72-0.89 2.75s0.34 1.97 0.89 2.75zm7.72-5.5c1.28 0.26 2.25 1.39 2.25 2.75s-0.97 2.49-2.25 2.75c0.56-0.78 0.89-1.72 0.89-2.75s-0.34-1.97-0.89-2.75zm2.15 0.08c-0.59-0.6-1.38-0.99-2.25-1.09-0.11-0.88-0.49-1.66-1.09-2.25 1.48 0.66 2.68 1.86 3.34 3.34zm-8.68-3.34c-0.6 0.59-0.98 1.38-1.09 2.25-0.88 0.11-1.66 0.49-2.25 1.09 0.66-1.48 1.86-2.68 3.34-3.34zm-3.34 8.68c0.59 0.6 1.38 0.99 2.25 1.09 0.11 0.88 0.49 1.66 1.09 2.25-1.48-0.66-2.68-1.86-3.34-3.34zm8.68 3.34c0.6-0.59 0.99-1.38 1.09-2.25 0.88-0.11 1.66-0.49 2.25-1.09-0.66 1.48-1.86 2.68-3.34 3.34z" fill="#10106C"/>
   <path id="path3518" d="m9 0c-4.96 0-9 4.04-9 9s4.04 9 9 9 9-4.04 9-9-4.04-9-9-9zm0 17c-4.41 0-8-3.59-8-8s3.59-8 8-8 8 3.59 8 8-3.59 8-8 8z" fill="#10106C"/>
  </g>
  <g id="dots2">
   <path id="path3521" d="m9 1.42c-4.18 0-7.58 3.4-7.58 7.58s3.4 7.58 7.58 7.58 7.58-3.4 7.58-7.58-3.4-7.58-7.58-7.58zm0 13.69c-1.36 0-2.49-0.97-2.75-2.25 0.78 0.56 1.72 0.89 2.75 0.89s1.97-0.34 2.75-0.89c-0.26 1.28-1.39 2.25-2.75 2.25zm0-12.22c1.36 0 2.49 0.97 2.75 2.25-0.78-0.55-1.72-0.89-2.75-0.89s-1.97 0.34-2.75 0.89c0.26-1.28 1.39-2.25 2.75-2.25zm3.75 6.11c0 0.57-0.14 1.11-0.37 1.59-0.34-0.67-0.87-1.22-1.53-1.59 0.66-0.37 1.19-0.92 1.53-1.59 0.23 0.48 0.37 1.02 0.37 1.59zm-7.5 0c0-0.57 0.14-1.11 0.37-1.59 0.34 0.67 0.87 1.22 1.53 1.59-0.66 0.37-1.19 0.92-1.53 1.59-0.23-0.48-0.37-1.02-0.37-1.59zm6.34 2.7c-1.02-0.27-1.82-1.1-2.03-2.14 1.04 0.21 1.87 1.01 2.14 2.03l-0.11 0.11zm-5.29-0.11c0.27-1.02 1.1-1.82 2.15-2.03-0.21 1.04-1.01 1.87-2.03 2.14-0.05-0.04-0.08-0.07-0.12-0.11zm0.11-5.29c1.02 0.27 1.82 1.1 2.03 2.15-1.04-0.22-1.87-1.02-2.14-2.04l0.11-0.11zm5.29 0.11c-0.27 1.02-1.1 1.82-2.14 2.03 0.21-1.05 1.01-1.87 2.03-2.15 0.04 0.05 0.07 0.08 0.11 0.12zm-2.7 0.74c-0.37-0.66-0.92-1.19-1.59-1.53 0.48-0.23 1.02-0.37 1.59-0.37s1.11 0.14 1.59 0.37c-0.67 0.34-1.22 0.87-1.59 1.53zm0 3.7c0.37 0.66 0.92 1.19 1.59 1.53-0.49 0.23-1.02 0.37-1.59 0.37s-1.11-0.14-1.59-0.37c0.67-0.34 1.22-0.87 1.59-1.53zm-3.86 0.9c-1.28-0.26-2.25-1.39-2.25-2.75s0.97-2.49 2.25-2.75c-0.55 0.78-0.89 1.72-0.89 2.75s0.34 1.97 0.89 2.75zm7.72-5.5c1.28 0.26 2.25 1.39 2.25 2.75s-0.97 2.49-2.25 2.75c0.56-0.78 0.89-1.72 0.89-2.75s-0.34-1.97-0.89-2.75zm2.15 0.08c-0.59-0.6-1.38-0.99-2.25-1.09-0.11-0.88-0.49-1.66-1.09-2.25 1.48 0.66 2.68 1.86 3.34 3.34zm-8.68-3.34c-0.6 0.59-0.98 1.38-1.09 2.25-0.88 0.11-1.66 0.49-2.25 1.09 0.66-1.48 1.86-2.68 3.34-3.34zm-3.34 8.68c0.59 0.6 1.38 0.99 2.25 1.09 0.11 0.88 0.49 1.66 1.09 2.25-1.48-0.66-2.68-1.86-3.34-3.34zm8.68 3.34c0.6-0.59 0.99-1.38 1.09-2.25 0.88-0.11 1.66-0.49 2.25-1.09-0.66 1.48-1.86 2.68-3.34 3.34z" fill="#9C0000"/>
   <path id="path3523" d="m9 0c-4.96 0-9 4.04-9 9s4.04 9 9 9 9-4.04 9-9-4.04-9-9-9zm0 17c-4.41 0-8-3.59-8-8s3.59-8 8-8 8 3.59 8 8-3.59 8-8 8z" fill="#9C0000"/>
  </g>
  <g id="nums">
   <path id="path3526" d="m18.01 0.14s-4.39 3.33-4.78 3.63c-0.32-0.33-3.2-3.27-3.2-3.27l2.22 8.92 0.6-0.03c0.75-4.76 4.35-6.63 5.33-7.05 0.14 0.2 0.26 0.42 0.26 0.72 0 0.09-0.01 0.18-0.02 0.28-0.21 1.67-2.39 4.64-6.68 7.21l-0.31 0.18 0.81 1.01 0.2-0.06c0.06-0.02 6.59-2.06 10.36-1.88l1.14 0.05-0.96-0.63c-0.08-0.05-1.95-1.25-3.93-1.03 0.28-0.63 2.26-2.56 4.15-4.16l0.31-0.26-5.32-3.77-0.18 0.14z" fill="#BA0000"/>
   <path id="path3528" d="m33.78 24.64c-0.17-0.17-4.21-4.28-5.63-5.01-0.53-0.27-1.71-0.18-5.75 0.16 0 0-0.17 0.01-0.43 0.04 1.19-2.79 2.72-5.86 3.57-6.25l0.55-0.25-2.13-2.09-0.21 0.03c-5.11 0.87-13.08 2.09-14.11 1.9l-0.35-0.07-0.12 0.33c-0.2 0.56 0.32 4.93 0.86 7.37-4.58 0.4-10.03 0.86-10.03 0.86l0.3 0.56 0.68 1.27 0.32-0.09c1.72-0.51 2.52-0.57 4.6-0.54 0.19 0.49 2.6 6.77 2.6 6.77l0.79-0.2s-0.69-5.69-0.8-6.52c0.78 0.02 7.99 0.22 9.67 0.26-1.09 0.92-3.56 3.02-3.56 3.02l0.4 0.71s5.15-1.76 5.41-1.85c0.25 0.1 4.3 1.65 4.3 1.65s-2.13-2.57-2.81-3.38c3.78 0.2 4.75 0.42 5.01 0.74 0.33 0.39 0.5 0.96 0.5 1.6 0 1.16-0.58 2.57-1.8 3.73-1.82-0.46-5.17-2.34-5.21-2.36l-0.52 0.62 5.08 6.35 0.24-0.05c3.82-0.78 8.44-8.48 8.63-8.81l0.17-0.27-0.22-0.23zm-12.76-7.99c-1.22 0.16-2.77 0.37-3.21 0.43v-2c1.62-0.13 3.11-0.25 3.49-0.29-0.05 0.27-0.15 0.98-0.28 1.86zm-4.93-1.43c0.02 0.84 0.04 1.75 0.05 2.06-1.41 0.16-2.6 0.26-3.55 0.3 0.1-0.62 0.19-1.31 0.3-2.1 0.24-0.02 1.62-0.13 3.2-0.26zm-4.06 5.43c0.08-0.35 0.17-0.76 0.26-1.24 1.3-0.24 2.61-0.46 3.89-0.63 0.01 0.48 0.03 1.1 0.04 1.52-0.25 0.01-1.96 0.16-4.19 0.35zm5.77-0.48v-1.6c0.98-0.1 1.36-0.08 1.96-0.02l0.96 0.06c-0.07 0.46-0.14 0.92-0.2 1.35-1.09 0.08-2.33 0.18-2.72 0.21z" fill="#BA0000"/>
  </g>
  <g id="flower">
   <rect id="rect3531" x="1" y="1" width="43" height="67" fill="#F8F6D8" stroke="#F8F6D8"/>
   <path id="path3533" d="m11.27 58.16-0.71-8.35c1.76-0.67 2.92-1.76 2.83-2.86s-1.42-1.91-3.26-2.16l-0.71-8.36c1.76-0.67 2.92-1.76 2.83-2.86-0.13-1.56-2.69-2.54-5.71-2.19s-5.37 1.89-5.23 3.44c0.09 1.1 1.42 1.91 3.25 2.16l0.71 8.36c-1.76 0.67-2.92 1.76-2.83 2.86s1.42 1.91 3.25 2.16l0.71 8.36c-1.76 0.67-2.92 1.76-2.83 2.86 0.13 1.55 2.69 2.53 5.71 2.19 3.02-0.35 5.37-1.89 5.23-3.44-0.08-1.11-1.4-1.92-3.24-2.17zm-6.93-23.69c-0.05-0.58 1-1.18 2.34-1.34 1.34-0.15 2.47 0.2 2.52 0.78 0.04 0.49-0.7 0.99-1.74 1.23l0.61 7.13c0.05 0.56-0.19 1.04-0.52 1.08-0.34 0.04-0.65-0.38-0.7-0.94l-0.61-7.13c-1.05 0-1.86-0.32-1.9-0.81zm0.23 13.48c-0.05-0.58 1.41-1.23 3.25-1.44 1.85-0.21 3.39 0.09 3.43 0.67 0.05 0.58-1.41 1.23-3.25 1.44-1.85 0.22-3.38-0.08-3.43-0.67zm4.58 14.05c-1.34 0.15-2.47-0.19-2.52-0.78-0.04-0.49 0.7-0.99 1.74-1.23l-0.61-7.13c-0.05-0.56 0.19-1.04 0.52-1.08s0.65 0.38 0.69 0.94l0.61 7.13c1.06 0 1.87 0.32 1.91 0.81 0.05 0.59-1 1.19-2.34 1.34z" fill="#D3BB54"/>
   <path id="path3535" d="m11.27 58.16-0.71-8.35c1.76-0.67 2.92-1.76 2.83-2.86s-1.42-1.91-3.26-2.16l-0.71-8.36c1.76-0.67 2.92-1.76 2.83-2.86-0.13-1.56-2.69-2.54-5.71-2.19s-5.37 1.89-5.23 3.44c0.09 1.1 1.42 1.91 3.25 2.16l0.71 8.36c-1.76 0.67-2.92 1.76-2.83 2.86s1.42 1.91 3.25 2.16l0.71 8.36c-1.76 0.67-2.92 1.76-2.83 2.86 0.13 1.55 2.69 2.53 5.71 2.19 3.02-0.35 5.37-1.89 5.23-3.44-0.08-1.11-1.4-1.92-3.24-2.17zm-6.93-23.69c-0.05-0.58 1-1.18 2.34-1.34 1.34-0.15 2.47 0.2 2.52 0.78 0.04 0.49-0.7 0.99-1.74 1.23l0.61 7.13c0.05 0.56-0.19 1.04-0.52 1.08-0.34 0.04-0.65-0.38-0.7-0.94l-0.61-7.13c-1.05 0-1.86-0.32-1.9-0.81zm0.23 13.48c-0.05-0.58 1.41-1.23 3.25-1.44 1.85-0.21 3.39 0.09 3.43 0.67 0.05 0.58-1.41 1.23-3.25 1.44-1.85 0.22-3.38-0.08-3.43-0.67zm4.58 14.05c-1.34 0.15-2.47-0.19-2.52-0.78-0.04-0.49 0.7-0.99 1.74-1.23l-0.61-7.13c-0.05-0.56 0.19-1.04 0.52-1.08s0.65 0.38 0.69 0.94l0.61 7.13c1.06 0 1.87 0.32 1.91 0.81 0.05 0.59-1 1.19-2.34 1.34z" fill="none" stroke="#7C5A2D" stroke-width=".25"/>
   <path id="path3537" d="M5.23,67.99c2.49-8.18-3.33-18.78-3.33-18.78s10.4,10.59,7.48,18.78H5.23z" fill="#EADDA7" stroke="#7C5A2D" stroke-width=".25"/>
   <path id="path3539" d="m19.02 36.17c-2.92-0.98-5.59-0.56-5.97 0.94-0.27 1.06 0.7 2.38 2.33 3.41l-2.03 8.06c-1.85-0.14-3.28 0.37-3.54 1.43-0.27 1.06 0.7 2.38 2.33 3.41l-2.03 8.06c-1.84-0.14-3.27 0.37-3.54 1.43-0.38 1.5 1.68 3.51 4.6 4.5 2.92 0.98 5.59 0.56 5.96-0.94 0.27-1.06-0.7-2.38-2.32-3.41l2.03-8.06c1.85 0.14 3.28-0.37 3.55-1.43s-0.71-2.38-2.33-3.41l2.03-8.06c1.84 0.14 3.28-0.37 3.54-1.43 0.36-1.51-1.69-3.52-4.61-4.5zm-4.61 20.87-1.73 6.88c0.98 0.45 1.63 1.1 1.51 1.58-0.14 0.56-1.31 0.66-2.6 0.23-1.3-0.44-2.23-1.25-2.09-1.81 0.12-0.47 0.97-0.62 2.01-0.39l1.73-6.88c0.13-0.54 0.51-0.88 0.83-0.77 0.32 0.1 0.47 0.62 0.34 1.16zm3.91-4.16c-0.14 0.56-1.7 0.53-3.48-0.07s-3.11-1.54-2.97-2.11c0.14-0.56 1.7-0.53 3.48 0.07s3.11 1.55 2.97 2.11zm2.36-13.21c-0.12 0.47-0.97 0.62-2.01 0.39l-1.73 6.88c-0.13 0.54-0.51 0.88-0.83 0.77s-0.48-0.63-0.34-1.17l1.73-6.88c-0.98-0.45-1.63-1.1-1.51-1.58 0.14-0.56 1.31-0.67 2.6-0.23 1.3 0.45 2.23 1.26 2.09 1.82z" fill="#DBC879"/>
   <path id="path3541" d="m19.02 36.17c-2.92-0.98-5.59-0.56-5.97 0.94-0.27 1.06 0.7 2.38 2.33 3.41l-2.03 8.06c-1.85-0.14-3.28 0.37-3.54 1.43-0.27 1.06 0.7 2.38 2.33 3.41l-2.03 8.06c-1.84-0.14-3.27 0.37-3.54 1.43-0.38 1.5 1.68 3.51 4.6 4.5 2.92 0.98 5.59 0.56 5.96-0.94 0.27-1.06-0.7-2.38-2.32-3.41l2.03-8.06c1.85 0.14 3.28-0.37 3.55-1.43s-0.71-2.38-2.33-3.41l2.03-8.06c1.84 0.14 3.28-0.37 3.54-1.43 0.36-1.51-1.69-3.52-4.61-4.5zm-4.61 20.87-1.73 6.88c0.98 0.45 1.63 1.1 1.51 1.58-0.14 0.56-1.31 0.66-2.6 0.23-1.3-0.44-2.23-1.25-2.09-1.81 0.12-0.47 0.97-0.62 2.01-0.39l1.73-6.88c0.13-0.54 0.51-0.88 0.83-0.77 0.32 0.1 0.47 0.62 0.34 1.16zm3.91-4.16c-0.14 0.56-1.7 0.53-3.48-0.07s-3.11-1.54-2.97-2.11c0.14-0.56 1.7-0.53 3.48 0.07s3.11 1.55 2.97 2.11zm2.36-13.21c-0.12 0.47-0.97 0.62-2.01 0.39l-1.73 6.88c-0.13 0.54-0.51 0.88-0.83 0.77s-0.48-0.63-0.34-1.17l1.73-6.88c-0.98-0.45-1.63-1.1-1.51-1.58 0.14-0.56 1.31-0.67 2.6-0.23 1.3 0.45 2.23 1.26 2.09 1.82z" fill="none" stroke="#7C5A2D" stroke-width=".25"/>
   <path id="path3543" d="m19.85 67.7c-1.77-5.79 2.35-13.28 2.35-13.28s-7.35 7.49-5.29 13.28h2.94z" fill="#EADA9B" stroke="#7C5A2D" stroke-width=".25"/>
   <path id="path3545" d="m30.33 52.2c-10.89 0-12.13-1.84-15.85-5.97 4.7-3.44 10.9-3.9 16.34 4.82l-0.49 1.15z" fill="#BFAA52" stroke="#7C5A2D"/>
   <path id="path3547" d="m27.52 50.68c-6.89 0-7.68-1.16-10.03-3.78 2.98-2.18 6.9-2.47 10.34 3.05l-0.31 0.73z" fill="#DBC775"/>
   <path id="path3549" d="m42.27 47.51c-0.36 2.52-6.85 4.67-9.62 5.14s1.52-5.63 6.18-9.5c2.95-0.51 3.67 2.79 3.44 4.36z" fill="#BFAA52" stroke="#7C5A2D"/>
   <path id="path3551" d="m37.59 49.31c-0.15 1.08-2.95 2.01-4.14 2.21s0.66-2.42 2.66-4.09c1.27-0.22 1.58 1.2 1.48 1.88z" fill="#DBC775"/>
   <path id="path3553" d="m38.25 67.92c-7.82-3.7-5.44-11.92-5.44-18.72l-2.23-0.29s-2.8 17.48 4.83 18.76l2.84 0.25z" fill="#E5D389" stroke="#7C5A2D" stroke-width=".75"/>
   <path id="path3555" d="m43.33 52.91v7.75s-2.47 2.07-4.21 2.07c-1.73 0-6.93-9.55-6.44-10.59 0.51-1.04 10.16-1.29 10.65 0.77z" fill="#BFAA52" stroke="#7C5A2D"/>
   <path id="path3557" d="m40.06 53.5c1.02 0.72 0 3.43 0 3.43s-1.33 0.91-2.27 0.91c-0.93 0-3.73-4.22-3.47-4.68s4.72-0.37 5.74 0.34z" fill="#DBC775"/>
   <path id="path3559" d="m31.45 52.39c-12.87-1.29-10.89 4.39-14.11 10.07 10.15 2.84 10.89-5.42 14.11-10.07z" fill="#BFAA52" stroke="#7C5A2D"/>
   <path id="path3561" d="m30.26 53.1c-8.21-0.82-6.95 2.8-9 6.42 6.48 1.82 6.95-3.45 9-6.42z" fill="#E2CF7F"/>
   <path id="path3563" d="m32.93 50.42s3.69-9.06-0.25-11.11c-4.04-2.11-6.64-1.29-7.13 0-0.5 1.29 3.91 12.41 5.65 12.66 1.73 0.26 1.73-1.55 1.73-1.55z" fill="#BFAA52" stroke="#7C5A2D"/>
   <path id="path3565" d="m32.14 50.27s2.05-5.67-0.14-6.95c-2.24-1.32-3.68-0.81-3.96 0s2.17 7.76 3.13 7.92c0.97 0.16 0.97-0.97 0.97-0.97z" fill="#DBC775"/>
   <path id="path3567" d="m31.45 51.12s-1.48-2.54-1.23-4.87" fill="#EADDA7" stroke="#7C5A2D" stroke-width=".25"/>
   <path id="path3569" d="m30.33 52.6s-4.13 5.57-2.01 5.48c2.41-0.11 2.6 0 5.1 0.46 2.57 0.47 0.2-5.55-1.6-6.32l-1.49 0.38z" fill="#BFAA52" stroke="#7C5A2D"/>
   <path id="path3571" d="m27.27 48.13s2.02 2.93 3.35 2.93 0.61 2.18 0 1.56c-0.62-0.63-2.47-2.43-3.57-2.62-0.82 0-1.01-2.34 0.22-1.87z" fill="#DBC879" stroke="#7C5A2D" stroke-width=".5"/>
   <path id="path3573" d="m44 12.51c-4.46 0-8.54 2.85-8.54 6.37s4.08 6.37 8.54 6.37v-12.74z" fill="#D3BB54" stroke="#AF9A41"/>
   <path id="path3575" d="m33.33 7.64c0-3.52-3.62-6.23-8.08-6.23s-8.08 2.71-8.08 6.23 3.62 6.37 8.08 6.37 8.08-2.85 8.08-6.37z" fill="#D3BB54" stroke="#AF9A41"/>
   <ellipse id="ellipse3577" cx="29.56" cy="17.54" rx="8.08" ry="6.37" fill="#D3BB54" stroke="#AF9A41"/>
   <path id="path3579" d="m44 16.35v-14.93h-13.1c-2.93 1.56-3.79 4.49-3.79 7.49 0 4.79 4.93 8.68 11.02 8.68 2.08-0.01 4.21-0.46 5.87-1.24z" fill="#DBC879" stroke="#AF9A41"/>
   <path id="path3581" d="m31.94 15.47s-0.72 1.82-3.03 1.82" fill="#D3BB54" stroke="#AF9A41"/>
   <path id="path3583" d="m27.19 6.62s-1.73 0.57-3.17-1.02" fill="#D3BB54" stroke="#AF9A41"/>
   <path id="path3585" d="m44 0h-44v69h45v-69h-1zm-1 2v65h-41v-65h41z" fill="#633"/>
   <path id="path3587" d="m31.13 52.9s-1.71 2.31-0.83 2.27c1-0.04 1.08 0 2.11 0.19 1.06 0.2 0.08-2.3-0.66-2.62l-0.62 0.16z" fill="#E2CF7F"/>
  </g>
  <g id="season">
   <rect id="rect3590" x="1" y="1" width="43" height="67" fill="#E3E4FF"/>
   <polygon id="polygon3592" points="4.69 42.38 9.02 39.76 10.2 44.33 6.26 48.26 8.62 49.89 10.2 48.26 10.98 51.52 14.91 51.19 14.52 47.93 17.27 49.24 18.85 47.28 14.13 44.01 13.34 39.44 19.24 41.4 20.81 45.97 23.56 44.99 22.77 42.7 26.71 44.33 28.28 41.07 23.96 39.44 27.11 38.45 25.92 36.17 20.42 37.8 14.91 35.84 20.03 32.9 25.92 33.88 26.31 31.27 23.17 30.94 26.31 28.98 23.96 26.37 20.81 28 20.81 26.04 18.06 25.71 17.27 30.61 12.55 33.23 11.77 28.66 15.7 24.41 12.95 23.1 11.38 25.06 10.58 21.47 7.05 22.12 7.45 25.39 4.69 24.08 3.12 25.71 7.45 28.66 8.23 33.55 3.12 31.92 1 27.81 1 34.92 1.16 34.86 6.26 36.82 1.55 39.76 1 39.66 1 45.06 1.16 44.99 1 45.91 1 47.31 3.51 47.6" fill="#CAE0FF" stroke="#99B9FF"/>
   <path id="path3594" d="m40.63 26.67c1.1 0 2.17-0.13 3.21-0.35v-24.82h-14.3c-2.44 2.67-3.95 6.22-3.95 10.13 0 8.31 6.73 15.04 15.04 15.04z" fill="#99B9FF" stroke="#678ED3"/>
   <polygon id="polygon3596" points="22.61 14.9 22.3 14.59 20.96 16.9 23.27 18.23 23.39 17.81" fill="#C9D3F2" stroke="#9EB3E8" stroke-width=".5"/>
   <polygon id="polygon3598" points="34.45 28.87 34.03 28.98 35.36 31.29 37.67 29.96 37.35 29.65" fill="#C9D3F2" stroke="#9EB3E8" stroke-width=".5"/>
   <polygon id="polygon3600" points="43.83 30.1 43.83 29.71 43.59 29.96" fill="#798CD8"/>
   <polygon id="polygon3602" points="23.39 5.45 23.27 5.03 20.96 6.36 22.3 8.67 22.61 8.36" fill="#C9D3F2" stroke="#9EB3E8" stroke-width=".5"/>
   <polygon id="polygon3604" points="23.31 15.6 23.31 7.66 22.61 8.36 22.3 8.67 19.34 11.63 22.3 14.59 22.61 14.9" fill="#99B9FF" stroke="#678ED3"/>
   <polygon id="polygon3606" points="26.66 23.47 26.23 23.36 26.23 26.02 28.9 26.02 28.78 25.6" fill="#C9D3F2" stroke="#9EB3E8" stroke-width=".5"/>
   <polygon id="polygon3608" points="37.35 29.65 37.67 29.96 40.63 32.92 43.59 29.96 43.83 29.71 43.83 28.95 36.66 28.95" fill="#99B9FF" stroke="#678ED3"/>
   <polygon id="polygon3610" points="35.41 28.61 28.53 24.64 28.78 25.6 28.9 26.02 29.98 30.07 34.03 28.98 34.45 28.87" fill="#99B9FF" stroke="#678ED3"/>
   <polygon id="polygon3612" points="27.61 23.73 23.64 16.85 23.39 17.81 23.27 18.23 22.19 22.27 26.23 23.36 26.66 23.47" fill="#99B9FF" stroke="#678ED3"/>
   <polygon id="polygon3614" points="23.39 5.45 23.64 6.41 26.48 1.5 22.33 1.5 23.27 5.03" fill="#99B9FF" stroke="#678ED3"/>
   <path id="path3616" d="m30.67 46.67s2.32-3 7-3c5.67 0 5.67 9.33 5.67 9.33h-23.67s-0.33-6.67 7.67-6.67c3.67 0 6 4 6 4" fill="#99B9FF" stroke="#678ED3"/>
   <line id="line3618" x1="29.5" x2="24.83" y1="57.27" y2="65.36" fill="#99B9FF" stroke="#678ED3"/>
   <line id="line3620" x1="34.22" x2="28.68" y1="55.68" y2="65.95" fill="#99B9FF" stroke="#678ED3"/>
   <line id="line3622" x1="23.33" x2="20.5" y1="61" y2="65.91" fill="#99B9FF" stroke="#678ED3"/>
   <line id="line3624" x1="37.46" x2="33.25" y1="54.63" y2="62.59" fill="#99B9FF" stroke="#678ED3"/>
   <line id="line3626" x1="40.46" x2="38.13" y1="62.17" y2="66.21" fill="#99B9FF" stroke="#678ED3"/>
   <line id="line3628" x1="27.11" x2="24.44" y1="54.52" y2="59.14" fill="#99B9FF" stroke="#678ED3"/>
   <line id="line3630" x1="31.67" x2="30.67" y1="54" y2="55.73" fill="#99B9FF" stroke="#678ED3"/>
   <line id="line3632" x1="40.98" x2="37.81" y1="55.6" y2="61.09" fill="#99B9FF" stroke="#678ED3"/>
   <line id="line3634" x1="23.84" x2="22.18" y1="55.04" y2="57.92" fill="#99B9FF" stroke="#678ED3"/>
   <line id="line3636" x1="21.13" x2="16.91" y1="55.63" y2="63.59" fill="#99B9FF" stroke="#678ED3"/>
   <line id="line3638" x1="36" x2="35" y1="63.6" y2="65.33" fill="#99B9FF" stroke="#678ED3"/>
   <path id="path3640" d="m44 0h-44v69h45v-69h-1zm-1 2v65h-41v-65h41z" fill="#678ED3"/>
  </g>
 </defs>
 <use id="use3642" xlink:href="#bt1"/>
 <use id="use3644" x="64" xlink:href="#bt1"/>
 <use id="use3646" x="128" xlink:href="#bt1"/>
 <use id="use3648" x="192" xlink:href="#bt1"/>
 <use id="use3650" x="256" xlink:href="#bt1"/>
 <use id="use3652" x="320" xlink:href="#bt1"/>
 <use id="use3654" x="384" xlink:href="#bt1"/>
 <use id="use3656" x="448" xlink:href="#bt1"/>
 <use id="use3658" x="512" xlink:href="#bt1"/>
 <use id="use3660" x="576" xlink:href="#bt1"/>
 <use id="use3662" x="640" xlink:href="#bt1"/>
 <use id="use3664" x="704" xlink:href="#bt1"/>
 <use id="use3666" x="768" xlink:href="#bt1"/>
 <use id="use3668" x="832" xlink:href="#bt1"/>
 <use id="use3670" x="896" xlink:href="#bt1"/>
 <use id="use3672" x="960" xlink:href="#bt1"/>
 <use id="use3674" x="1024" xlink:href="#bt1"/>
 <use id="use3676" x="1088" xlink:href="#bt1"/>
 <use id="use3678" x="1152" xlink:href="#bt1"/>
 <use id="use3680" x="1216" xlink:href="#bt1"/>
 <use id="use3682" x="1280" xlink:href="#bt1"/>
 <use id="use3684" x="1344" xlink:href="#bt1"/>
 <use id="use3686" x="1408" xlink:href="#bt1"/>
 <use id="use3688" x="1472" xlink:href="#bt1"/>
 <use id="use3690" x="1536" xlink:href="#bt1"/>
 <use id="use3692" x="1600" xlink:href="#bt1"/>
 <use id="use3694" x="1664" xlink:href="#bt1"/>
 <use id="use3696" x="1728" xlink:href="#bt1"/>
 <use id="use3698" x="1792" xlink:href="#bt1"/>
 <use id="use3700" x="1856" xlink:href="#bt1"/>
 <use id="use3702" x="1920" xlink:href="#bt1"/>
 <use id="use3704" x="1984" xlink:href="#bt1"/>
 <use id="use3706" x="2048" xlink:href="#bt1"/>
 <use id="use3708" x="2112" xlink:href="#bt1"/>
 <use id="use3710" x="2176" xlink:href="#bt1"/>
 <use id="use3712" x="2240" xlink:href="#bt1"/>
 <use id="use3714" x="2304" xlink:href="#bt1"/>
 <use id="use3716" x="2368" xlink:href="#bt1"/>
 <use id="use3718" x="2432" xlink:href="#bt1"/>
 <use id="use3720" x="2496" xlink:href="#bt1"/>
 <use id="use3722" x="2560" xlink:href="#bt1"/>
 <use id="use3724" x="2624" xlink:href="#bt1"/>
 <use id="use3726" x="2688" xlink:href="#bt1"/>
 <use id="use3728" y="88" xlink:href="#bt2"/>
 <use id="use3730" x="64" y="88" xlink:href="#bt2"/>
 <use id="use3732" x="128" y="88" xlink:href="#bt2"/>
 <use id="use3734" x="192" y="88" xlink:href="#bt2"/>
 <use id="use3736" x="256" y="88" xlink:href="#bt2"/>
 <use id="use3738" x="320" y="88" xlink:href="#bt2"/>
 <use id="use3740" x="384" y="88" xlink:href="#bt2"/>
 <use id="use3742" x="448" y="88" xlink:href="#bt2"/>
 <use id="use3744" x="512" y="88" xlink:href="#bt2"/>
 <use id="use3746" x="576" y="88" xlink:href="#bt2"/>
 <use id="use3748" x="640" y="88" xlink:href="#bt2"/>
 <use id="use3750" x="704" y="88" xlink:href="#bt2"/>
 <use id="use3752" x="768" y="88" xlink:href="#bt2"/>
 <use id="use3754" x="832" y="88" xlink:href="#bt2"/>
 <use id="use3756" x="896" y="88" xlink:href="#bt2"/>
 <use id="use3758" x="960" y="88" xlink:href="#bt2"/>
 <use id="use3760" x="1024" y="88" xlink:href="#bt2"/>
 <use id="use3762" x="1088" y="88" xlink:href="#bt2"/>
 <use id="use3764" x="1152" y="88" xlink:href="#bt2"/>
 <use id="use3766" x="1216" y="88" xlink:href="#bt2"/>
 <use id="use3768" x="1280" y="88" xlink:href="#bt2"/>
 <use id="use3770" x="1344" y="88" xlink:href="#bt2"/>
 <use id="use3772" x="1408" y="88" xlink:href="#bt2"/>
 <use id="use3774" x="1472" y="88" xlink:href="#bt2"/>
 <use id="use3776" x="1536" y="88" xlink:href="#bt2"/>
 <use id="use3778" x="1600" y="88" xlink:href="#bt2"/>
 <use id="use3780" x="1664" y="88" xlink:href="#bt2"/>
 <use id="use3782" x="1728" y="88" xlink:href="#bt2"/>
 <use id="use3784" x="1792" y="88" xlink:href="#bt2"/>
 <use id="use3786" x="1856" y="88" xlink:href="#bt2"/>
 <use id="use3788" x="1920" y="88" xlink:href="#bt2"/>
 <use id="use3790" x="1984" y="88" xlink:href="#bt2"/>
 <use id="use3792" x="2048" y="88" xlink:href="#bt2"/>
 <use id="use3794" x="2112" y="88" xlink:href="#bt2"/>
 <use id="use3796" x="2176" y="88" xlink:href="#bt2"/>
 <use id="use3798" x="2240" y="88" xlink:href="#bt2"/>
 <use id="use3800" x="2304" y="88" xlink:href="#bt2"/>
 <use id="use3802" x="2368" y="88" xlink:href="#bt2"/>
 <use id="use3804" x="2432" y="88" xlink:href="#bt2"/>
 <use id="use3806" x="2496" y="88" xlink:href="#bt2"/>
 <use id="use3808" x="2560" y="88" xlink:href="#bt2"/>
 <use id="use3810" x="2624" y="88" xlink:href="#bt2"/>
 <use id="use3812" x="2688" y="88" xlink:href="#bt2"/>
 <use id="use3814" x="979" y="41" xlink:href="#nums"/>
 <use id="use3816" x="1043" y="41" xlink:href="#nums"/>
 <use id="use3818" x="1107" y="41" xlink:href="#nums"/>
 <use id="use3820" x="1171" y="41" xlink:href="#nums"/>
 <use id="use3822" x="1235" y="41" xlink:href="#nums"/>
 <use id="use3824" x="1299" y="41" xlink:href="#nums"/>
 <use id="use3826" x="1363" y="41" xlink:href="#nums"/>
 <use id="use3828" x="1427" y="41" xlink:href="#nums"/>
 <use id="use3830" x="1491" y="41" xlink:href="#nums"/>
 <use id="use3832" x="979" y="129" xlink:href="#nums"/>
 <use id="use3834" x="1043" y="129" xlink:href="#nums"/>
 <use id="use3836" x="1107" y="129" xlink:href="#nums"/>
 <use id="use3838" x="1171" y="129" xlink:href="#nums"/>
 <use id="use3840" x="1235" y="129" xlink:href="#nums"/>
 <use id="use3842" x="1299" y="129" xlink:href="#nums"/>
 <use id="use3844" x="1363" y="129" xlink:href="#nums"/>
 <use id="use3846" x="1427" y="129" xlink:href="#nums"/>
 <use id="use3848" x="1491" y="129" xlink:href="#nums"/>
 <use id="use3850" x="2125" y="6" xlink:href="#season"/>
 <use id="use3852" x="2189" y="6" xlink:href="#season"/>
 <use id="use3854" x="2253" y="6" xlink:href="#season"/>
 <use id="use3856" x="2317" y="6" xlink:href="#season"/>
 <use id="use3858" x="2125" y="94" xlink:href="#season"/>
 <use id="use3860" x="2189" y="94" xlink:href="#season"/>
 <use id="use3862" x="2253" y="94" xlink:href="#season"/>
 <use id="use3864" x="2317" y="94" xlink:href="#season"/>
 <use id="use3866" x="2445" y="6" xlink:href="#flower"/>
 <use id="use3868" x="2509" y="6" xlink:href="#flower"/>
 <use id="use3870" x="2573" y="6" xlink:href="#flower"/>
 <use id="use3872" x="2637" y="6" xlink:href="#flower"/>
 <use id="use3874" x="2445" y="94" xlink:href="#flower"/>
 <use id="use3876" x="2509" y="94" xlink:href="#flower"/>
 <use id="use3878" x="2573" y="94" xlink:href="#flower"/>
 <use id="use3880" x="2637" y="94" xlink:href="#flower"/>
 <use id="use3882" transform="translate(88.5 16.5) scale(1.22)" xlink:href="#dots"/>
 <use id="use3884" transform="translate(88.5 42.5) scale(1.22)" xlink:href="#dots"/>
 <use id="use3886" transform="translate(88.5 104.5) scale(1.22)" xlink:href="#dots"/>
 <use id="use3888" transform="translate(88.5 130.5) scale(1.22)" xlink:href="#dots"/>
 <use id="use3890" transform="translate(144.5 12.5)" xlink:href="#dots"/>
 <use id="use3892" transform="translate(144.5 100.5)" xlink:href="#dots"/>
 <use id="use3894" transform="translate(154.5 31.5)" xlink:href="#dots2"/>
 <use id="use3896" transform="translate(154.5 119.5)" xlink:href="#dots2"/>
 <use id="use3898" transform="translate(164.5 50.5)" xlink:href="#dots"/>
 <use id="use3900" transform="translate(164.5 138.5)" xlink:href="#dots"/>
 <use id="use3902" transform="translate(209 15) scale(.94)" xlink:href="#dots"/>
 <use id="use3904" transform="translate(209 49) scale(.94)" xlink:href="#dots"/>
 <use id="use3906" transform="translate(209 103) scale(.94)" xlink:href="#dots"/>
 <use id="use3908" transform="translate(209 137) scale(.94)" xlink:href="#dots"/>
 <use id="use3910" transform="translate(229 15) scale(.94)" xlink:href="#dots"/>
 <use id="use3912" transform="translate(229 49) scale(.94)" xlink:href="#dots"/>
 <use id="use3914" transform="translate(229 103) scale(.94)" xlink:href="#dots"/>
 <use id="use3916" transform="translate(229 137) scale(.94)" xlink:href="#dots"/>
 <use id="use3918" transform="translate(273.5 13.5) scale(.88)" xlink:href="#dots"/>
 <use id="use3920" transform="translate(273.5 51.5) scale(.88)" xlink:href="#dots"/>
 <use id="use3922" transform="translate(273.5 101.5) scale(.88)" xlink:href="#dots"/>
 <use id="use3924" transform="translate(273.5 139.5) scale(.88)" xlink:href="#dots"/>
 <use id="use3926" transform="translate(283.5 32.5) scale(.88)" xlink:href="#dots2"/>
 <use id="use3928" transform="translate(283.5 120.5) scale(.88)" xlink:href="#dots2"/>
 <use id="use3930" transform="translate(293.5 13.5) scale(.88)" xlink:href="#dots"/>
 <use id="use3932" transform="translate(293.5 51.5) scale(.88)" xlink:href="#dots"/>
 <use id="use3934" transform="translate(293.5 101.5) scale(.88)" xlink:href="#dots"/>
 <use id="use3936" transform="translate(293.5 139.5) scale(.88)" xlink:href="#dots"/>
 <use id="use3938" transform="translate(340 14) scale(.72)" xlink:href="#dots"/>
 <use id="use3940" transform="translate(340 37) scale(.72)" xlink:href="#dots2"/>
 <use id="use3942" transform="translate(340 54) scale(.72)" xlink:href="#dots2"/>
 <use id="use3944" transform="translate(340 102) scale(.72)" xlink:href="#dots"/>
 <use id="use3946" transform="translate(340 125) scale(.72)" xlink:href="#dots2"/>
 <use id="use3948" transform="translate(340 142) scale(.72)" xlink:href="#dots2"/>
 <use id="use3950" transform="translate(358 14) scale(.72)" xlink:href="#dots"/>
 <use id="use3952" transform="translate(358 37) scale(.72)" xlink:href="#dots2"/>
 <use id="use3954" transform="translate(358 54) scale(.72)" xlink:href="#dots2"/>
 <use id="use3956" transform="translate(358 102) scale(.72)" xlink:href="#dots"/>
 <use id="use3958" transform="translate(358 125) scale(.72)" xlink:href="#dots2"/>
 <use id="use3960" transform="translate(358 142) scale(.72)" xlink:href="#dots2"/>
 <use id="use3962" transform="translate(399 10) scale(.72)" xlink:href="#dots"/>
 <use id="use3964" transform="translate(404 41) scale(.72)" xlink:href="#dots2"/>
 <use id="use3966" transform="translate(404 58) scale(.72)" xlink:href="#dots2"/>
 <use id="use3968" transform="translate(413 17) scale(.72)" xlink:href="#dots"/>
 <use id="use3970" transform="translate(427 24) scale(.72)" xlink:href="#dots"/>
 <use id="use3972" transform="translate(404 129) scale(.72)" xlink:href="#dots2"/>
 <use id="use3974" transform="translate(404 146) scale(.72)" xlink:href="#dots2"/>
 <use id="use3976" transform="translate(399 98) scale(.72)" xlink:href="#dots"/>
 <use id="use3978" transform="translate(422 41) scale(.72)" xlink:href="#dots2"/>
 <use id="use3980" transform="translate(422 58) scale(.72)" xlink:href="#dots2"/>
 <use id="use3982" transform="translate(413 105) scale(.72)" xlink:href="#dots"/>
 <use id="use3984" transform="translate(427 112) scale(.72)" xlink:href="#dots"/>
 <use id="use3986" transform="translate(422 129) scale(.72)" xlink:href="#dots2"/>
 <use id="use3988" transform="translate(422 146) scale(.72)" xlink:href="#dots2"/>
 <use id="use3990" transform="translate(469 10) scale(.72)" xlink:href="#dots"/>
 <use id="use3992" transform="translate(469 26) scale(.72)" xlink:href="#dots"/>
 <use id="use3994" transform="translate(469 42) scale(.72)" xlink:href="#dots"/>
 <use id="use3996" transform="translate(469 58) scale(.72)" xlink:href="#dots"/>
 <use id="use3998" transform="translate(469 98) scale(.72)" xlink:href="#dots"/>
 <use id="use4000" transform="translate(469 114) scale(.72)" xlink:href="#dots"/>
 <use id="use4002" transform="translate(469 130) scale(.72)" xlink:href="#dots"/>
 <use id="use4004" transform="translate(469 146) scale(.72)" xlink:href="#dots"/>
 <use id="use4006" transform="translate(485 10) scale(.72)" xlink:href="#dots"/>
 <use id="use4008" transform="translate(485 26) scale(.72)" xlink:href="#dots"/>
 <use id="use4010" transform="translate(485 42) scale(.72)" xlink:href="#dots"/>
 <use id="use4012" transform="translate(485 58) scale(.72)" xlink:href="#dots"/>
 <use id="use4014" transform="translate(485 98) scale(.72)" xlink:href="#dots"/>
 <use id="use4016" transform="translate(485 114) scale(.72)" xlink:href="#dots"/>
 <use id="use4018" transform="translate(485 130) scale(.72)" xlink:href="#dots"/>
 <use id="use4020" transform="translate(485 146) scale(.72)" xlink:href="#dots"/>
 <use id="use4022" transform="translate(526 14) scale(.72)" xlink:href="#dots"/>
 <use id="use4024" transform="translate(526 34) scale(.72)" xlink:href="#dots2"/>
 <use id="use4026" transform="translate(526 54) scale(.72)" xlink:href="#dots"/>
 <use id="use4028" transform="translate(526 102) scale(.72)" xlink:href="#dots"/>
 <use id="use4030" transform="translate(526 122) scale(.72)" xlink:href="#dots2"/>
 <use id="use4032" transform="translate(526 142) scale(.72)" xlink:href="#dots"/>
 <use id="use4034" transform="translate(541 14) scale(.72)" xlink:href="#dots"/>
 <use id="use4036" transform="translate(541 34) scale(.72)" xlink:href="#dots2"/>
 <use id="use4038" transform="translate(541 54) scale(.72)" xlink:href="#dots"/>
 <use id="use4040" transform="translate(541 102) scale(.72)" xlink:href="#dots"/>
 <use id="use4042" transform="translate(541 122) scale(.72)" xlink:href="#dots2"/>
 <use id="use4044" transform="translate(541 142) scale(.72)" xlink:href="#dots"/>
 <use id="use4046" transform="translate(556 14) scale(.72)" xlink:href="#dots"/>
 <use id="use4048" transform="translate(556 34) scale(.72)" xlink:href="#dots2"/>
 <use id="use4050" transform="translate(556 54) scale(.72)" xlink:href="#dots"/>
 <use id="use4052" transform="translate(556 102) scale(.72)" xlink:href="#dots"/>
 <use id="use4054" transform="translate(556 122) scale(.72)" xlink:href="#dots2"/>
 <use id="use4056" transform="translate(556 142) scale(.72)" xlink:href="#dots"/>
 <use id="use4058" transform="translate(1565 25) scale(1.18 1.15)" xlink:href="#bams"/>
 <use id="use4060" transform="translate(1565 113) scale(1.18 1.15)" xlink:href="#bams"/>
 <use id="use4062" transform="translate(1630 9.5)" xlink:href="#bams"/>
 <use id="use4064" transform="translate(1630 44.5)" xlink:href="#bams"/>
 <use id="use4066" transform="translate(1630 97.5)" xlink:href="#bams"/>
 <use id="use4068" transform="translate(1630 132.5)" xlink:href="#bams"/>
 <use id="use4070" transform="translate(1682 44.5)" xlink:href="#bams"/>
 <use id="use4072" transform="translate(1682 132.5)" xlink:href="#bams"/>
 <use id="use4074" transform="translate(1694 9.5)" xlink:href="#bams"/>
 <use id="use4076" transform="translate(1694 97.5)" xlink:href="#bams"/>
 <use id="use4078" transform="translate(1705 44.5)" xlink:href="#bams"/>
 <use id="use4080" transform="translate(1705 132.5)" xlink:href="#bams"/>
 <use id="use4082" transform="translate(1746 9.5)" xlink:href="#bams"/>
 <use id="use4084" transform="translate(1746 44.5)" xlink:href="#bams"/>
 <use id="use4086" transform="translate(1746 97.5)" xlink:href="#bams"/>
 <use id="use4088" transform="translate(1746 132.5)" xlink:href="#bams"/>
 <use id="use4090" transform="translate(1770 9.5)" xlink:href="#bams"/>
 <use id="use4092" transform="translate(1770 44.5)" xlink:href="#bams"/>
 <use id="use4094" transform="translate(1770 97.5)" xlink:href="#bams"/>
 <use id="use4096" transform="translate(1770 132.5)" xlink:href="#bams"/>
 <use id="use4098" transform="translate(1810 10.5) scale(.91 .925)" xlink:href="#bams"/>
 <use id="use4100" transform="translate(1810 45.5) scale(.91 .925)" xlink:href="#bams"/>
 <use id="use4102" transform="translate(1810 98.5) scale(.91 .925)" xlink:href="#bams"/>
 <use id="use4104" transform="translate(1810 133.5) scale(.91 .925)" xlink:href="#bams"/>
 <use id="use4106" transform="translate(1822.5 116) scale(.91 .925)" xlink:href="#bams2"/>
 <use id="use4108" transform="translate(1822.5 28) scale(.91 .925)" xlink:href="#bams2"/>
 <use id="use4110" transform="translate(1835 10.5) scale(.91 .925)" xlink:href="#bams"/>
 <use id="use4112" transform="translate(1835 45.5) scale(.91 .925)" xlink:href="#bams"/>
 <use id="use4114" transform="translate(1835 98.5) scale(.91 .925)" xlink:href="#bams"/>
 <use id="use4116" transform="translate(1835 133.5) scale(.91 .925)" xlink:href="#bams"/>
 <use id="use4118" transform="translate(1875 12.5) scale(.82 .85)" xlink:href="#bams"/>
 <use id="use4120" transform="translate(1875 45.5) scale(.82 .85)" xlink:href="#bams"/>
 <use id="use4122" transform="translate(1875 100.5) scale(.82 .85)" xlink:href="#bams"/>
 <use id="use4124" transform="translate(1875 133.5) scale(.82 .85)" xlink:href="#bams"/>
 <use id="use4126" transform="translate(1887 12.5) scale(.82 .85)" xlink:href="#bams"/>
 <use id="use4128" transform="translate(1887 45.5) scale(.82 .85)" xlink:href="#bams"/>
 <use id="use4130" transform="translate(1887 100.5) scale(.82 .85)" xlink:href="#bams"/>
 <use id="use4132" transform="translate(1887 133.5) scale(.82 .85)" xlink:href="#bams"/>
 <use id="use4134" transform="translate(1899 12.5) scale(.82 .85)" xlink:href="#bams"/>
 <use id="use4136" transform="translate(1899 45.5) scale(.82 .85)" xlink:href="#bams"/>
 <use id="use4138" transform="translate(1899 100.5) scale(.82 .85)" xlink:href="#bams"/>
 <use id="use4140" transform="translate(1899 133.5) scale(.82 .85)" xlink:href="#bams"/>
 <use id="use4142" transform="translate(1939.5 31.5) scale(.73 .66)" xlink:href="#bams"/>
 <use id="use4144" transform="translate(1951.5 31.5) scale(.73 .66)" xlink:href="#bams"/>
 <use id="use4146" transform="translate(1963.5 31.5) scale(.73 .66)" xlink:href="#bams"/>
 <use id="use4148" transform="translate(1939.5 50.5) scale(.73 .66)" xlink:href="#bams"/>
 <use id="use4150" transform="translate(1951.5 50.5) scale(.73 .66)" xlink:href="#bams"/>
 <use id="use4152" transform="translate(1963.5 50.5) scale(.73 .66)" xlink:href="#bams"/>
 <use id="use4154" transform="translate(1939.5 119.5) scale(.73 .66)" xlink:href="#bams"/>
 <use id="use4156" transform="translate(1951.5 119.5) scale(.73 .66)" xlink:href="#bams"/>
 <use id="use4158" transform="translate(1963.5 119.5) scale(.73 .66)" xlink:href="#bams"/>
 <use id="use4160" transform="translate(1939.5 138.5) scale(.73 .66)" xlink:href="#bams"/>
 <use id="use4162" transform="translate(1951.5 138.5) scale(.73 .66)" xlink:href="#bams"/>
 <use id="use4164" transform="translate(1963.5 138.5) scale(.73 .66)" xlink:href="#bams"/>
 <use id="use4166" transform="translate(1951.5 12.5) scale(.73 .66)" xlink:href="#bams2"/>
 <use id="use4168" transform="translate(1951.5 100.5) scale(.73 .66)" xlink:href="#bams2"/>
 <use id="use4170" transform="translate(2003.5 13.5) scale(.73 .77)" xlink:href="#bams"/>
 <use id="use4172" transform="translate(2003.5 46.5) scale(.73 .77)" xlink:href="#bams"/>
 <use id="use4174" transform="translate(2003.5 101.5) scale(.73 .77)" xlink:href="#bams"/>
 <use id="use4176" transform="translate(2003.5 134.5) scale(.73 .77)" xlink:href="#bams"/>
 <use id="use4178" transform="translate(2027.5 13.5) scale(.73 .77)" xlink:href="#bams"/>
 <use id="use4180" transform="translate(2027.5 46.5) scale(.73 .77)" xlink:href="#bams"/>
 <use id="use4182" transform="translate(2027.5 101.5) scale(.73 .77)" xlink:href="#bams"/>
 <use id="use4184" transform="translate(2027.5 134.5) scale(.73 .77)" xlink:href="#bams"/>
 <use id="use4186" transform="translate(2067.5 12.5) scale(.73 .66)" xlink:href="#bams"/>
 <use id="use4188" transform="translate(2067.5 31.5) scale(.73 .66)" xlink:href="#bams"/>
 <use id="use4190" transform="translate(2067.5 50.5) scale(.73 .66)" xlink:href="#bams"/>
 <use id="use4192" transform="translate(2067.5 100.5) scale(.73 .66)" xlink:href="#bams"/>
 <use id="use4194" transform="translate(2067.5 119.5) scale(.73 .66)" xlink:href="#bams"/>
 <use id="use4196" transform="translate(2067.5 138.5) scale(.73 .66)" xlink:href="#bams"/>
 <use id="use4198" transform="translate(2079.5 12.5) scale(.73 .66)" xlink:href="#bams2"/>
 <use id="use4200" transform="translate(2079.5 31.5) scale(.73 .66)" xlink:href="#bams2"/>
 <use id="use4202" transform="translate(2079.5 50.5) scale(.73 .66)" xlink:href="#bams2"/>
 <use id="use4204" transform="translate(2079.5 100.5) scale(.73 .66)" xlink:href="#bams2"/>
 <use id="use4206" transform="translate(2079.5 119.5) scale(.73 .66)" xlink:href="#bams2"/>
 <use id="use4208" transform="translate(2079.5 138.5) scale(.73 .66)" xlink:href="#bams2"/>
 <use id="use4210" transform="translate(2091.5 12.5) scale(.73 .66)" xlink:href="#bams"/>
 <use id="use4212" transform="translate(2091.5 31.5) scale(.73 .66)" xlink:href="#bams"/>
 <use id="use4214" transform="translate(2091.5 50.5) scale(.73 .66)" xlink:href="#bams"/>
 <use id="use4216" transform="translate(2091.5 100.5) scale(.73 .66)" xlink:href="#bams"/>
 <use id="use4218" transform="translate(2091.5 119.5) scale(.73 .66)" xlink:href="#bams"/>
 <use id="use4220" transform="translate(2091.5 138.5) scale(.73 .66)" xlink:href="#bams"/>
 <path id="path4222" d="m2031.8 29.81c-0.41-0.59-1.51-0.57-2.75-0.06l-3.11-4.44c0.9-1 1.3-2.02 0.89-2.61-0.41-0.58-1.51-0.57-2.75-0.06l-3.11-4.44c0.9-1 1.3-2.02 0.89-2.61-0.58-0.83-2.51-0.47-4.32 0.8s-2.81 2.96-2.23 3.79c0.41 0.59 1.51 0.57 2.75 0.06l3.11 4.44c-0.9 1-1.3 2.02-0.89 2.61s1.51 0.57 2.75 0.06l3.11 4.44c-0.9 1-1.3 2.02-0.89 2.61 0.58 0.83 2.51 0.47 4.32-0.8s2.81-2.96 2.23-3.79zm-10.56-7.33-2.65-3.79c-0.67 0.38-1.29 0.49-1.47 0.22-0.22-0.31 0.26-1.02 1.06-1.58s1.63-0.77 1.85-0.46c0.18 0.26-0.13 0.8-0.71 1.3l2.65 3.79c0.21 0.3 0.21 0.65 0.01 0.79-0.2 0.15-0.53 0.02-0.74-0.27zm0.31 3.92c-0.22-0.31 0.5-1.19 1.61-1.96 1.11-0.78 2.18-1.15 2.4-0.84s-0.5 1.19-1.61 1.96-2.19 1.15-2.4 0.84zm7.37 6.27c-0.8 0.56-1.63 0.77-1.85 0.46-0.18-0.26 0.13-0.8 0.71-1.3l-2.65-3.79c-0.21-0.29-0.21-0.65-0.01-0.79s0.53-0.02 0.74 0.28l2.65 3.79c0.67-0.38 1.29-0.49 1.47-0.22 0.22 0.29-0.26 1-1.06 1.57z" fill="#006C00"/>
 <path id="path4224" d="m2021.5 16.4c-1.81-1.27-3.75-1.62-4.32-0.8-0.41 0.58-0.02 1.61 0.89 2.61l-3.11 4.44c-1.25-0.51-2.35-0.53-2.75 0.06-0.41 0.59-0.02 1.61 0.89 2.61l-3.11 4.44c-1.25-0.51-2.34-0.53-2.75 0.06-0.58 0.83 0.42 2.52 2.23 3.79s3.75 1.63 4.32 0.8c0.41-0.59 0.02-1.61-0.89-2.61l3.11-4.44c1.25 0.51 2.34 0.53 2.75-0.06 0.41-0.58 0.02-1.61-0.89-2.61l3.11-4.44c1.25 0.51 2.34 0.53 2.75-0.06 0.58-0.83-0.42-2.52-2.23-3.79zm-7.6 11.63-2.65 3.79c0.58 0.5 0.9 1.04 0.71 1.31-0.22 0.31-1.04 0.11-1.85-0.46s-1.28-1.27-1.06-1.58c0.18-0.26 0.8-0.15 1.47 0.22l2.65-3.79c0.21-0.3 0.54-0.42 0.74-0.28s0.2 0.5-0.01 0.79zm3.58-1.63c-0.22 0.31-1.29-0.07-2.4-0.84s-1.83-1.65-1.61-1.96 1.29 0.07 2.4 0.84 1.83 1.65 1.61 1.96zm4.43-7.49c-0.18 0.26-0.8 0.15-1.47-0.22l-2.65 3.79c-0.21 0.3-0.54 0.42-0.74 0.28s-0.2-0.49 0.01-0.79l2.65-3.79c-0.58-0.5-0.9-1.04-0.71-1.3 0.22-0.31 1.04-0.11 1.85 0.46s1.28 1.26 1.06 1.57z" fill="#006C00"/>
 <path id="path4226" d="m2031.8 117.81c-0.41-0.59-1.51-0.57-2.75-0.06l-3.11-4.44c0.9-1 1.3-2.02 0.89-2.61-0.41-0.58-1.51-0.57-2.75-0.06l-3.11-4.44c0.9-1 1.3-2.02 0.89-2.61-0.58-0.83-2.51-0.47-4.32 0.8s-2.81 2.96-2.23 3.79c0.41 0.59 1.51 0.57 2.75 0.06l3.11 4.44c-0.9 1-1.3 2.02-0.89 2.61 0.41 0.58 1.51 0.56 2.75 0.06l3.11 4.44c-0.9 1-1.3 2.02-0.89 2.61 0.58 0.83 2.51 0.47 4.32-0.8s2.81-2.96 2.23-3.79zm-10.56-7.33-2.65-3.79c-0.67 0.38-1.29 0.49-1.47 0.22-0.22-0.31 0.26-1.02 1.06-1.58s1.63-0.77 1.85-0.46c0.18 0.26-0.13 0.8-0.71 1.3l2.65 3.79c0.21 0.3 0.21 0.65 0.01 0.79-0.2 0.15-0.53 0.02-0.74-0.27zm0.31 3.92c-0.22-0.31 0.5-1.19 1.61-1.96 1.11-0.78 2.18-1.15 2.4-0.84s-0.5 1.19-1.61 1.96c-1.11 0.78-2.19 1.15-2.4 0.84zm7.37 6.27c-0.8 0.56-1.63 0.77-1.85 0.46-0.18-0.26 0.13-0.8 0.71-1.31l-2.65-3.79c-0.21-0.3-0.21-0.65-0.01-0.79s0.53-0.02 0.74 0.28l2.65 3.79c0.67-0.38 1.29-0.49 1.47-0.22 0.22 0.3-0.26 1.01-1.06 1.58z" fill="#006C00"/>
 <path id="path4228" d="m2021.5 104.4c-1.81-1.27-3.75-1.63-4.32-0.8-0.41 0.59-0.02 1.61 0.89 2.61l-3.11 4.44c-1.25-0.51-2.35-0.53-2.75 0.06-0.41 0.59-0.02 1.61 0.89 2.61l-3.11 4.44c-1.25-0.51-2.34-0.53-2.75 0.06-0.58 0.83 0.42 2.52 2.23 3.79s3.75 1.62 4.32 0.8c0.41-0.58 0.02-1.61-0.89-2.61l3.11-4.44c1.25 0.51 2.34 0.53 2.75-0.06s0.02-1.61-0.89-2.61l3.11-4.44c1.25 0.51 2.34 0.53 2.75-0.06 0.58-0.83-0.42-2.52-2.23-3.79zm-7.6 11.63-2.65 3.79c0.58 0.5 0.9 1.04 0.71 1.31-0.22 0.31-1.04 0.11-1.85-0.46-0.8-0.56-1.28-1.27-1.06-1.58 0.18-0.26 0.8-0.15 1.47 0.22l2.65-3.79c0.21-0.29 0.54-0.42 0.74-0.28s0.2 0.5-0.01 0.79zm3.58-1.63c-0.22 0.31-1.29-0.07-2.4-0.84s-1.83-1.65-1.61-1.96 1.29 0.07 2.4 0.84 1.83 1.65 1.61 1.96zm4.43-7.49c-0.18 0.26-0.8 0.15-1.47-0.22l-2.65 3.79c-0.21 0.3-0.54 0.42-0.74 0.28s-0.2-0.49 0.01-0.79l2.65-3.79c-0.58-0.5-0.9-1.04-0.71-1.3 0.22-0.31 1.04-0.11 1.85 0.46 0.8 0.56 1.28 1.27 1.06 1.57z" fill="#006C00"/>
 <path id="path4230" d="m2023.8 148.81c-0.41-0.59-1.51-0.57-2.75-0.06l-3.11-4.44c0.9-1 1.3-2.02 0.89-2.61s-1.51-0.57-2.75-0.06l-3.11-4.44c0.9-1 1.3-2.02 0.89-2.61-0.58-0.83-2.51-0.47-4.32 0.8s-2.81 2.96-2.23 3.79c0.41 0.59 1.51 0.57 2.75 0.06l3.11 4.44c-0.9 1-1.3 2.02-0.89 2.61 0.41 0.58 1.51 0.56 2.75 0.06l3.11 4.44c-0.9 1-1.3 2.02-0.89 2.61 0.58 0.83 2.51 0.47 4.32-0.8s2.81-2.96 2.23-3.79zm-10.56-7.33-2.65-3.79c-0.67 0.38-1.29 0.49-1.47 0.22-0.22-0.31 0.26-1.02 1.06-1.58s1.63-0.77 1.85-0.46c0.18 0.26-0.13 0.8-0.71 1.3l2.65 3.79c0.21 0.29 0.21 0.65 0.01 0.79-0.2 0.15-0.53 0.02-0.74-0.27zm0.31 3.92c-0.22-0.31 0.5-1.19 1.61-1.96 1.11-0.78 2.18-1.15 2.4-0.84s-0.5 1.19-1.61 1.96-2.19 1.15-2.4 0.84zm7.37 6.27c-0.8 0.56-1.63 0.77-1.85 0.46-0.18-0.26 0.13-0.8 0.71-1.3l-2.65-3.79c-0.21-0.3-0.21-0.65-0.01-0.79s0.53-0.02 0.74 0.28l2.65 3.79c0.67-0.38 1.29-0.49 1.47-0.22 0.22 0.3-0.26 1-1.06 1.57z" fill="#006C00"/>
 <path id="path4232" d="m2029.5 135.4c-1.81-1.27-3.75-1.63-4.32-0.8-0.41 0.59-0.02 1.61 0.89 2.61l-3.11 4.44c-1.25-0.51-2.34-0.53-2.75 0.06s-0.02 1.61 0.89 2.61l-3.11 4.44c-1.25-0.51-2.34-0.53-2.75 0.06-0.58 0.83 0.42 2.52 2.23 3.79s3.75 1.62 4.32 0.8c0.41-0.58 0.02-1.61-0.89-2.61l3.11-4.44c1.25 0.51 2.35 0.53 2.75-0.06 0.41-0.58 0.02-1.61-0.89-2.61l3.11-4.44c1.25 0.51 2.34 0.53 2.75-0.06 0.58-0.83-0.42-2.52-2.23-3.79zm-7.6 11.63-2.65 3.79c0.58 0.5 0.9 1.04 0.71 1.3-0.22 0.31-1.04 0.11-1.85-0.46-0.8-0.56-1.28-1.27-1.06-1.58 0.18-0.26 0.8-0.15 1.47 0.22l2.65-3.79c0.21-0.3 0.54-0.42 0.74-0.28 0.2 0.16 0.2 0.51-0.01 0.8zm3.58-1.63c-0.22 0.31-1.29-0.07-2.4-0.84s-1.83-1.65-1.61-1.96 1.29 0.07 2.4 0.84 1.83 1.65 1.61 1.96zm4.43-7.48c-0.18 0.26-0.8 0.15-1.47-0.22l-2.65 3.79c-0.21 0.29-0.54 0.42-0.74 0.28s-0.2-0.49 0.01-0.79l2.65-3.79c-0.58-0.5-0.9-1.04-0.71-1.3 0.22-0.31 1.04-0.11 1.85 0.46 0.8 0.55 1.28 1.26 1.06 1.57z" fill="#006C00"/>
 <path id="path4234" d="m2023.8 60.81c-0.41-0.59-1.51-0.57-2.75-0.06l-3.11-4.44c0.9-1 1.3-2.02 0.89-2.61s-1.51-0.56-2.75-0.06l-3.11-4.44c0.9-1 1.3-2.02 0.89-2.61-0.58-0.83-2.51-0.47-4.32 0.8s-2.81 2.96-2.23 3.79c0.41 0.59 1.51 0.57 2.75 0.06l3.11 4.44c-0.9 1-1.3 2.02-0.89 2.61 0.41 0.58 1.51 0.56 2.75 0.06l3.11 4.44c-0.9 1-1.3 2.02-0.89 2.61 0.58 0.83 2.51 0.47 4.32-0.8s2.81-2.96 2.23-3.79zm-10.56-7.33-2.65-3.79c-0.67 0.38-1.29 0.49-1.47 0.22-0.22-0.31 0.26-1.02 1.06-1.58s1.63-0.77 1.85-0.46c0.18 0.26-0.13 0.8-0.71 1.3l2.65 3.79c0.21 0.29 0.21 0.65 0.01 0.79-0.2 0.15-0.53 0.02-0.74-0.27zm0.31 3.92c-0.22-0.31 0.5-1.19 1.61-1.96 1.11-0.78 2.18-1.15 2.4-0.84s-0.5 1.19-1.61 1.96c-1.11 0.78-2.19 1.15-2.4 0.84zm7.37 6.27c-0.8 0.56-1.63 0.77-1.85 0.46-0.18-0.26 0.13-0.8 0.71-1.3l-2.65-3.79c-0.21-0.3-0.21-0.65-0.01-0.79s0.53-0.02 0.74 0.28l2.65 3.79c0.67-0.38 1.29-0.49 1.47-0.22 0.22 0.3-0.26 1-1.06 1.57z" fill="#006C00"/>
 <path id="path4236" d="m2029.5 47.4c-1.81-1.27-3.75-1.63-4.32-0.8-0.41 0.59-0.02 1.61 0.89 2.61l-3.11 4.44c-1.25-0.51-2.34-0.53-2.75 0.06s-0.02 1.61 0.89 2.61l-3.11 4.44c-1.25-0.51-2.34-0.53-2.75 0.06-0.58 0.83 0.42 2.52 2.23 3.79s3.75 1.62 4.32 0.8c0.41-0.58 0.02-1.61-0.89-2.61l3.11-4.44c1.25 0.51 2.35 0.53 2.75-0.06 0.41-0.59 0.02-1.61-0.89-2.61l3.11-4.44c1.25 0.51 2.34 0.53 2.75-0.06 0.58-0.83-0.42-2.52-2.23-3.79zm-7.6 11.63-2.65 3.79c0.58 0.5 0.9 1.04 0.71 1.3-0.22 0.31-1.04 0.11-1.85-0.46-0.8-0.56-1.28-1.27-1.06-1.58 0.18-0.26 0.8-0.15 1.47 0.22l2.65-3.79c0.21-0.3 0.54-0.42 0.74-0.28 0.2 0.16 0.2 0.51-0.01 0.8zm3.58-1.63c-0.22 0.31-1.29-0.07-2.4-0.84s-1.83-1.65-1.61-1.96 1.29 0.07 2.4 0.84 1.83 1.65 1.61 1.96zm4.43-7.48c-0.18 0.26-0.8 0.15-1.47-0.22l-2.65 3.79c-0.21 0.29-0.54 0.42-0.74 0.28s-0.2-0.49 0.01-0.79l2.65-3.79c-0.58-0.5-0.9-1.04-0.71-1.3 0.22-0.31 1.04-0.11 1.85 0.46 0.8 0.55 1.28 1.26 1.06 1.57z" fill="#006C00"/>
 <path id="path4238" d="m1171.2 12.1 6.8 19.4 0.3-0.1c3.6-1.2 13.3-4.1 15.3-2.6 0.2 0.2 0.3 0.4 0.3 0.7l-0.1 0.8 0.6-0.5c6.8-5.3 9.4-14 9.4-14.1v-0.2l-0.1-0.1c-4.9-7.3-24.9-1.3-25.7-1l-0.2 0.1v0.2s-0.2 1.7-0.2 2.4c-0.4-1.5-1.1-4.1-1.1-4.1l-5.6-1.3 0.3 0.4zm6.9 5.7c1.2-0.3 2.6-0.7 4-1s1.9 9.3 2 9.9c-0.5 0.1-3 0.8-3.6 1-0.1-0.4-1.4-5.6-2.5-9.9 0 0.1 0.1 0 0.1 0zm11.7-2.3c0 0.1-0.4 9.6-0.4 10.2-0.4 0.1-2.1 0.4-2.6 0.5-0.1-0.6-1.8-9.6-1.8-9.9 1.7-0.4 3.3-0.6 4.8-0.8zm7.9 0.9c-0.2 2.3-1.1 8.1-2.6 9.9-0.1-0.1 0-0.2-0.1-0.3-0.5-0.5-1.6-0.7-3.3-0.6 0.3-4.5 1-7.5 1.9-7.9l0.7-0.3s-3.5-1.7-3.8-1.8c3.8-0.4 6.8-0.3 7.2 1z" fill="#20208C"/>
 <path id="path4240" d="m1003.8 18.1c-0.3 0.2-0.4 0.5-0.4 0.8s0.1 0.5 0.1 0.7c-2.6 0.2-19.7 1.8-23.9 1.4h-0.4l1.7 6 0.3-0.1c3.3-1.1 24.1-2.4 29-1.4 0.8 0.1 1.2 0 1.4-0.4 0.5-1-1.9-3.5-3.4-4.8-0.9-0.9-3.4-2.8-4.4-2.2z" fill="#20208C"/>
 <path id="path4242" d="m1067.9 23.9c-0.3 0.2-0.4 0.5-0.4 0.9 0 0.2 0 0.5 0.1 0.7-2.8 0.3-19.9 1.9-24.1 1.4l-0.5-0.1 1.7 6.2 0.4-0.1c3.3-1.2 24.3-2.4 29.3-1.4 0.8 0.2 1.3 0 1.5-0.4 0.7-1.3-3-4.6-3.4-4.9-1-1-3.5-3-4.6-2.3z" fill="#20208C"/>
 <path id="path4244" d="m1060.1 12.9c-2.6 0.9-6.2 2.2-12.3 2.2h-0.7l2.9 4.2 16.7-2.2 0.5-3.1-0.1-0.1c-2.4-2.7-4.1-2.1-7-1z" fill="#20208C"/>
 <path id="path4246" d="m1131.7 26.3c-0.3 0.2-0.4 0.5-0.4 0.9 0 0.3 0 0.5 0.1 0.7-2.7 0.3-19.3 1.9-23.4 1.4l-0.5-0.1 1.7 6.2 0.3-0.1c3.2-1.2 23.6-2.4 28.4-1.4 0.8 0.2 1.3 0 1.5-0.4 0.6-1.3-2.9-4.6-3.3-5-1-0.8-3.4-2.9-4.4-2.2z" fill="#20208C"/>
 <polygon id="polygon4248" points="1125.3 19 1114 20.4 1115.6 24.7 1127.6 23.3 1125.6 19" fill="#20208C"/>
 <path id="path4250" d="m1122.9 8.6c-3 1.1-7 2.6-14 2.6h-0.6l3.2 4.9 18.9-2.6 0.6-3.6-0.1-0.1c-2.7-3.2-4.6-2.5-8-1.2z" fill="#20208C"/>
 <path id="path4252" d="m1245.8 10.3-10.3 10.5 0.4 0.5 7-4c-0.6 1.5-4.3 11.6-4.3 11.6l3.3 3.5s2.4-15.6 2.4-15.9c0.3-0.2 5.1-2.9 5.1-2.9l-3.4-3.7-0.2 0.4z" fill="#20208C"/>
 <path id="path4254" d="m1258.6 10.2h-1.9s-0.6 1.3-0.9 1.9l-0.1-0.1-5.9 3.5 0.2 0.7s3-0.2 3.9-0.2c-0.4 0.8-2.2 4.5-2.3 4.8-0.4 0-6.3 0.5-6.3 0.5l-0.1 0.7 4 1.6s0.7-0.3 1.3-0.5c-0.6 1.2-2.5 5.2-2.7 5.5-1.3 0.1-2.3 0.1-2.9 0h-0.4l0.5 3.7 0.3-0.1c1.4-0.2 12.2-1.6 14.1-1.7 1.8-0.1 7.3 2.1 7.4 2.1l0.7 0.3-0.2-0.7c-0.1-0.4-1.3-3.9-2.2-4.8l-0.1-0.1h-0.1c-0.8-0.2-3.6 0-7.5 0.4 0.9-1 4.3-4.6 4.3-4.6l-3.2-3.4s-2.9 7.8-3 8.2c-0.3 0-2.7 0.3-3.5 0.3 0.4-0.9 2.5-6.5 2.6-6.7 0.3-0.1 3.2-1.2 3.2-1.2l-0.2-0.7s-1.7 0.3-2.5 0.4c0.3-0.9 1.6-4.1 1.7-4.4 0.2 0 1.2-0.1 1.2-0.1s-0.6-0.9-0.7-1.1c0.1-0.3 1.7-4.4 1.7-4.4h-0.4z" fill="#20208C"/>
 <path id="path4256" d="m1313.2 9.8v1c0 1.6-0.2 3.7-0.7 6.2-5.9 0.7-11.1 1.5-11.2 1.5h-0.3v2.5s9.9-0.4 10.7-0.5c-0.2 0.7-1 4-1 4l0.6 0.3s2.9-4.1 3.1-4.4c11.7-0.3 14.4 0.2 15 0.5l0.6 0.4-0.6-3.5c-0.3-1-2-2.1-12.2-1.3 0.6-0.9 3.2-4.6 3.2-4.6l-7.2-2.7v0.6z" fill="#20208C"/>
 <path id="path4258" d="m1307.6 24.8s0.8 4.7-1.6 8.5l0.5 0.5c4.4-2.9 5.9-6.6 5.9-6.7l0.1-0.3-5-2.6 0.1 0.6z" fill="#20208C"/>
 <path id="path4260" d="m1317.1 23.7c0.2 0.3 5.9 7.7 7.9 9.6l0.1 0.1h0.2c0.4 0 0.8-0.3 1.1-0.7 0.8-1.1 1.3-3.2 1-4.3-0.4-1.3-7.6-4.3-9.8-5.2l-1.2-0.5 0.7 1z" fill="#20208C"/>
 <path id="path4262" d="m1387.2 11.7c-0.2 0.4-1.5 1.9-8.3 7.6-0.1-0.7-0.2-1.6-0.2-1.6-0.2-1.9-0.4-4.1-0.8-6.5l-0.1-0.3-3.2 0.3v0.3 1.7c0 3.3 0.3 6.2 0.9 8.9-0.3 0.2-10 8.2-10 8.2l0.3 0.3 1.9 1.8s7.9-6.9 8.6-7.6c0.7 2.2 1.6 4 2.7 5 2 2 4.2 1.7 7 1.3 2-0.3 4.3-0.6 7-0.2l0.5 0.1-0.6-2.8c0-0.6-0.3-1.1-0.7-1.5-1.3-0.9-3.8-0.4-6.5 0.1-1.3 0.3-2.7 0.5-3.9 0.6-1.3-1.2-2.1-2.8-2.6-5.2 7.5-6.2 10.3-7.8 11.3-8.1l0.2-0.1v-0.3-0.4c0-1.8-0.9-2.8-1.7-3-0.5 0.1-1.3 0.3-1.8 1.4z" fill="#20208C"/>
 <path id="path4264" d="m1432.4 19c0 3.7-4.5 9.2-4.7 9.4l-0.7 0.9 1.1-0.3c5.2-1.4 8.2-5 8.3-5.1l0.2-0.2-4.2-5.7v1z" fill="#20208C"/>
 <path id="path4266" d="m1437.9 11.3-2 0.3 0.3 0.5c0.1 0.2 9.3 15.7 10.6 19.3l0.1 0.3 0.3-0.1c2.2-0.4 4-0.2 5.8 0 2.2 0.2 4.3 0.4 6.7-0.4l0.4-0.1-0.2-0.4c-1.2-2-2.5-2.4-4.2-2.9-3.2-0.9-8-2.3-17.3-16.3l-0.1-0.2h-0.4z" fill="#20208C"/>
 <path id="path4268" d="m1520.6 23.6s-2.9 3.2-3.1 3.4c-3.2 0.7-8.4 1.2-8.8-0.4-0.5-1.9 3.4-10.4 4.9-13.6l0.2-0.3-5.6-2.8-0.1 0.4c-0.1 0.2-0.4 1.3-0.9 3h-4.5c0-0.4-0.1-1.3-0.1-1.3-1.4-2.3-7.4-0.7-8.1-0.6l-0.4 0.1 0.2 0.4c0.2 0.4 0.4 0.9 0.5 1.4h-3.8l1.9 3.6s1.8-0.3 2.4-0.4v0.7c0 6.2-2.7 14.1-2.7 14.2l0.6 0.3c0.3-0.4 7.9-9.5 9.3-16.4 0.2 0 2.4-0.4 4.4-0.7-1.2 4.7-2.6 12.1-0.3 14.8 3.4 4 16.6 3.7 17.1 3.5l0.3-0.1-3.4-9.2z" fill="#20208C"/>
 <path id="path4270" d="m1171.2 100.1 6.8 19.4 0.3-0.1c3.6-1.2 13.3-4.1 15.3-2.6 0.2 0.2 0.3 0.4 0.3 0.7l-0.1 0.8 0.6-0.5c6.8-5.3 9.4-14 9.4-14.1v-0.2l-0.1-0.1c-4.9-7.3-24.9-1.3-25.7-1l-0.2 0.1v0.2s-0.2 1.7-0.2 2.4c-0.4-1.5-1.1-4.1-1.1-4.1l-5.6-1.3 0.3 0.4zm6.9 5.7c1.2-0.3 2.6-0.7 4-1s1.9 9.3 2 9.9c-0.5 0.1-3 0.8-3.6 1-0.1-0.4-1.4-5.6-2.5-9.9 0 0.1 0.1 0 0.1 0zm11.7-2.3c0 0.1-0.4 9.6-0.4 10.2-0.4 0.1-2.1 0.4-2.6 0.5-0.1-0.6-1.8-9.6-1.8-9.9 1.7-0.4 3.3-0.6 4.8-0.8zm7.9 0.9c-0.2 2.3-1.1 8.1-2.6 9.9-0.1-0.1 0-0.2-0.1-0.3-0.5-0.5-1.6-0.7-3.3-0.6 0.3-4.5 1-7.5 1.9-7.9l0.7-0.3s-3.5-1.7-3.8-1.8c3.8-0.4 6.8-0.3 7.2 1z" fill="#20208C"/>
 <path id="path4272" d="m1003.8 106.1c-0.3 0.2-0.4 0.5-0.4 0.8s0.1 0.5 0.1 0.7c-2.6 0.2-19.7 1.8-23.9 1.4h-0.4l1.7 6 0.3-0.1c3.3-1.1 24.1-2.4 29-1.4 0.8 0.1 1.2 0 1.4-0.4 0.5-1-1.9-3.5-3.4-4.8-0.9-0.9-3.4-2.8-4.4-2.2z" fill="#20208C"/>
 <path id="path4274" d="m1067.9 111.9c-0.3 0.2-0.4 0.5-0.4 0.9 0 0.2 0 0.5 0.1 0.7-2.8 0.3-19.9 1.9-24.1 1.4l-0.5-0.1 1.7 6.2 0.4-0.1c3.3-1.2 24.3-2.4 29.3-1.4 0.8 0.2 1.3 0 1.5-0.4 0.7-1.3-3-4.6-3.4-4.9-1-1-3.5-3-4.6-2.3z" fill="#20208C"/>
 <path id="path4276" d="m1060.1 100.9c-2.6 0.9-6.2 2.2-12.3 2.2h-0.7l2.9 4.2 16.7-2.2 0.5-3.1-0.1-0.1c-2.4-2.7-4.1-2.1-7-1z" fill="#20208C"/>
 <path id="path4278" d="m1131.7 114.3c-0.3 0.2-0.4 0.5-0.4 0.9 0 0.3 0 0.5 0.1 0.7-2.7 0.3-19.3 1.9-23.4 1.4l-0.5-0.1 1.7 6.2 0.3-0.1c3.2-1.2 23.6-2.4 28.4-1.4 0.8 0.2 1.3 0 1.5-0.4 0.6-1.3-2.9-4.6-3.3-5-1-0.8-3.4-2.9-4.4-2.2z" fill="#20208C"/>
 <polygon id="polygon4280" points="1125.3 107 1114 108.4 1115.6 112.7 1127.6 111.3 1125.6 107" fill="#20208C"/>
 <path id="path4282" d="m1122.9 96.6c-3 1.1-7 2.6-14 2.6h-0.6l3.2 4.9 18.9-2.6 0.6-3.6-0.1-0.1c-2.7-3.2-4.6-2.5-8-1.2z" fill="#20208C"/>
 <path id="path4284" d="m1245.8 98.3-10.3 10.5 0.4 0.5 7-4c-0.6 1.5-4.3 11.6-4.3 11.6l3.3 3.5s2.4-15.6 2.4-15.9c0.3-0.2 5.1-2.9 5.1-2.9l-3.4-3.7-0.2 0.4z" fill="#20208C"/>
 <path id="path4286" d="m1258.6 98.2h-1.9s-0.6 1.3-0.9 1.9l-0.1-0.1-5.9 3.5 0.2 0.7s3-0.2 3.9-0.2c-0.4 0.8-2.2 4.5-2.3 4.8-0.4 0-6.3 0.5-6.3 0.5l-0.1 0.7 4 1.6s0.7-0.3 1.3-0.5c-0.6 1.2-2.5 5.2-2.7 5.5-1.3 0.1-2.3 0.1-2.9 0h-0.4l0.5 3.7 0.3-0.1c1.4-0.2 12.2-1.6 14.1-1.7 1.8-0.1 7.3 2.1 7.4 2.1l0.7 0.3-0.2-0.7c-0.1-0.4-1.3-3.9-2.2-4.8l-0.1-0.1h-0.1c-0.8-0.2-3.6 0-7.5 0.4 0.9-1 4.3-4.6 4.3-4.6l-3.2-3.4s-2.9 7.8-3 8.2c-0.3 0-2.7 0.3-3.5 0.3 0.4-0.9 2.5-6.5 2.6-6.7 0.3-0.1 3.2-1.2 3.2-1.2l-0.2-0.7s-1.7 0.3-2.5 0.4c0.3-0.9 1.6-4.1 1.7-4.4 0.2 0 1.2-0.1 1.2-0.1s-0.6-0.9-0.7-1.1c0.1-0.3 1.7-4.4 1.7-4.4h-0.4z" fill="#20208C"/>
 <path id="path4288" d="m1313.2 97.8v1c0 1.6-0.2 3.7-0.7 6.2-5.9 0.7-11.1 1.5-11.2 1.5h-0.3v2.5s9.9-0.4 10.7-0.5c-0.2 0.7-1 4-1 4l0.6 0.3s2.9-4.1 3.1-4.4c11.7-0.3 14.4 0.2 15 0.5l0.6 0.4-0.6-3.5c-0.3-1-2-2.1-12.2-1.3 0.6-0.9 3.2-4.6 3.2-4.6l-7.2-2.7v0.6z" fill="#20208C"/>
 <path id="path4290" d="m1307.6 112.8s0.8 4.7-1.6 8.5l0.5 0.5c4.4-2.9 5.9-6.6 5.9-6.7l0.1-0.3-5-2.6 0.1 0.6z" fill="#20208C"/>
 <path id="path4292" d="m1317.1 111.7c0.2 0.3 5.9 7.7 7.9 9.6l0.1 0.1h0.2c0.4 0 0.8-0.3 1.1-0.7 0.8-1.1 1.3-3.2 1-4.3-0.4-1.3-7.6-4.3-9.8-5.2l-1.2-0.5 0.7 1z" fill="#20208C"/>
 <path id="path4294" d="m1387.2 99.7c-0.2 0.4-1.5 1.9-8.3 7.6-0.1-0.7-0.2-1.6-0.2-1.6-0.2-1.9-0.4-4.1-0.8-6.5l-0.1-0.3-3.2 0.3v0.3 1.7c0 3.3 0.3 6.2 0.9 8.9-0.3 0.2-10 8.2-10 8.2l0.3 0.3 1.9 1.8s7.9-6.9 8.6-7.6c0.7 2.2 1.6 4 2.7 5 2 2 4.2 1.7 7 1.3 2-0.3 4.3-0.6 7-0.2l0.5 0.1-0.6-2.8c0-0.6-0.3-1.1-0.7-1.5-1.3-0.9-3.8-0.4-6.5 0.1-1.3 0.3-2.7 0.5-3.9 0.6-1.3-1.2-2.1-2.8-2.6-5.2 7.5-6.2 10.3-7.8 11.3-8.1l0.2-0.1v-0.3-0.4c0-1.8-0.9-2.8-1.7-3-0.5 0.1-1.3 0.3-1.8 1.4z" fill="#20208C"/>
 <path id="path4296" d="m1432.4 107c0 3.7-4.5 9.2-4.7 9.4l-0.7 0.9 1.1-0.3c5.2-1.4 8.2-5 8.3-5.1l0.2-0.2-4.2-5.7v1z" fill="#20208C"/>
 <path id="path4298" d="m1437.9 99.3-2 0.3 0.3 0.5c0.1 0.2 9.3 15.7 10.6 19.3l0.1 0.3 0.3-0.1c2.2-0.4 4-0.2 5.8 0 2.2 0.2 4.3 0.4 6.7-0.4l0.4-0.1-0.2-0.4c-1.2-2-2.5-2.4-4.2-2.9-3.2-0.9-8-2.3-17.3-16.3l-0.1-0.2h-0.4z" fill="#20208C"/>
 <path id="path4300" d="m1520.6 111.6s-2.9 3.2-3.1 3.4c-3.2 0.7-8.4 1.2-8.8-0.4-0.5-1.9 3.4-10.4 4.9-13.6l0.2-0.3-5.6-2.8-0.1 0.4c-0.1 0.2-0.4 1.3-0.9 3h-4.5c0-0.4-0.1-1.3-0.1-1.3-1.4-2.3-7.4-0.7-8.1-0.6l-0.4 0.1 0.2 0.4c0.2 0.4 0.4 0.9 0.5 1.4h-3.8l1.9 3.6s1.8-0.3 2.4-0.4v0.7c0 6.2-2.7 14.1-2.7 14.2l0.6 0.3c0.3-0.4 7.9-9.5 9.3-16.4 0.2 0 2.4-0.4 4.4-0.7-1.2 4.7-2.6 12.1-0.3 14.8 3.4 4 16.6 3.7 17.1 3.5l0.3-0.1-3.4-9.2z" fill="#20208C"/>
 <path id="path4302" d="m632.3 142.7c-2-0.9-11.8 3.3-11.8 3.3l0.5-20.7s5.3-4.3 9.6-1.7l-1.2-5c-1.4-0.2-8.4 5.5-8.4 5.5s-0.6-18.8 4.8-19.9c0 0-8.9-2.6-9.7-2.2-0.4 0.2-0.4 13.8-0.2 27.1-3.2 3.1-5.9 6.2-7.1 7.3l0.4-28.5s-4.7-2.6-5.8-1.4l0.2 14.8c-0.3-0.5-0.7-0.9-1-1.3-1-1.3-6.1-4.2-6.1-4.2s1.7 5.6 2.5 6.6c0.7 0.9 3 2.9 4.6 2.2l0.2 16.5c-3.4 3-7.9 6.8-8.5 5.4-1.5-3.2-4.7-3-5.2-1.5-0.5 1.6 4.2 10.2 5.8 10.1 0.8-0.1 4.4-4.9 8-10l0.1 5.3c1.6 2.1 3.8 0.5 4.6-0.7l0.3-11c1.1-1.6 4-4.5 7.1-7.9 0.2 12.1 0.3 22.8 0.3 22.8 4.9-5.2 16.7-4 16.7-4l-0.7-6.9z" fill="#101040"/>
 <path id="path4304" d="m688.4 14.3c-8.5 5.7-21.5 6.9-28.8 5.9l-0.9 2c11.7 3.8 26.4 1 31.2-3.2l-1.5-4.7z" fill="#101040"/>
 <path id="path4306" d="m692.5 39.2c-3.6-0.9-7.3-1.4-10.8-1.7 0.8-2.9 1.2-6 1-9.2l-7.8 2c0.6 1.7 0.6 4.3 0.2 7-1.6 0-3.1 0.1-4.5 0.3 0.2-2.7 0.4-3.3-0.5-6l-4.7 1.3c1 1.8 1.5 2.3 1.8 5.1-3.4 1-5.7 1.8-6.9 3.2-5.1 6.1 0 23.2 0 23.2s-0.2-15.4 2-17 4.7-1.8 4.7-1.8c0.1 1.5-1.6 6.7-1.6 6.7 2.2-2.7 3.2-3.6 4.3-7.2 1.6-0.5 2.5-0.8 4.1-1-1.6 6.1-4.5 10.9-4.5 10.9l7.4 2c-4.1-0.1-13.3 5.1-13.3 5.1s16.2-4 20.8-1.1l1.2-2.9c-3.4-2.7-10.5-4.9-10.5-4.9s2.2-4.1 4.6-9.4c2.3 0.1 5.6 0.3 7.7 0.9 9.2 4.1-1.7 22.4-1.7 22.4s20.2-21.2 7-27.9z" fill="#101040"/>
 <path id="path4308" d="m735.3 14.2c0.4 0.5 0.9 2.3 0.9 8.6v2.8c-3.4 0.5-6.3 1-6.8 1.2l-0.6 0.2 2.8 2.7 0.2-0.1c1.1-0.3 2.6-0.5 4.2-0.7 0 0.7-0.4 7.3-0.4 7.9-4.9 0.4-9.2 1.1-12.7 1.9-3 0.8-4.8 2.6-5.2 5.4-0.1 0.4-0.1 0.9-0.1 1.4 0 7.1 6.9 16.9 7 16.9l0.8 0.5-0.3-0.9c0-0.1-2.8-9.4-2.8-15.6 0-1.8 0.2-3.3 0.8-4.3 0.4-0.6 0.8-0.9 1.4-1 1.3-0.2 2.7-0.4 4-0.6 0 0 3.1 4 3.7 4.7-0.5 0.1-1.4 0.3-1.4 0.3v0.3l0.2 2.2 0.4-0.1c0.6-0.2 1.8-0.5 3.2-0.7 0 0.6 0.1 2.4 0.2 2.9-1.7 0.5-3.2 1.1-3.8 1.4l-0.4 0.2 1.5 1.6 0.2-0.1c0.7-0.3 1.7-0.6 2.7-0.9 0 0.7 0.3 5.6 0.3 5.6h0.7l1.2-6c1.8-0.2 3.5-0.1 4.8 0.2l0.4 0.1v-3l-0.2-0.1c-0.8-0.4-2.3-0.4-4.5 0.1 0.1-0.7 0.4-2.1 0.5-2.5 1.6-0.1 2.9-0.2 3.8-0.1l0.5 0.1-0.7-2.6s-0.9 0-1.4 0.1c0.8-0.9 3.5-4.4 3.7-4.6 0.3 0 3.9 0.1 3.9 0.1 1.6 0.1 3 0.7 4.1 2 1.3 1.5 2 3.9 2 6.3 0 0.5 0 1.1-0.1 1.6l-0.1 0.7c-0.7 5.1-1.3 8.8-3.1 9.6-1.2 0.5-3.1-0.3-5.9-2.4l-0.5 0.5 5.5 9.6 0.3-0.1c6.7-2.4 7.7-3.8 10.4-15.4 1.2-5.1 0.8-9.1-1.3-11.8-2.5-3.3-6.3-3.7-6.5-3.7-0.1 0-6.7-0.3-14.6 0.2 0.2-0.8 2-7.5 2.1-7.9 2.5 0 4.7 0.1 5.7 0.5l0.4 0.1 0.4-4.7h-0.4c-1.1 0-2.8 0.1-5.1 0.3 1.3-4.4 1.9-5.8 2.1-6.2l0.2-0.3-8.1-4.7-0.2 0.3zm4.4 25.3c-0.1 0.7-0.7 4.3-0.7 4.7h-0.1c0-0.1 0.1-0.4 0.1-0.4l-4.4 0.4v0.6c-0.4 0.1-1 0.2-1.4 0.2v-5.1c2.2-0.1 4.3-0.3 6.5-0.4z" fill="#101040"/>
 <path id="path4310" d="m804.5 41.3 0.1-6.4 4.4-0.3-0.3-2.4-4.1 1.2v-5.7c2.4 0.3 5 0.8 7.1 0.9 4.3 0.3-1.2 14.1-1.2 14.1s16.3-14.4 2.6-18.1c-1.4 0-4.9 0.2-8.4 0.4v-3.9l7.5-1.9-7.5-0.1v-4l-4.6-3.4 0.5 8.7-4 2.7 4.1-1 0.2 3.2c-1.8 0.2-3.4 0.3-4.3 0.5-11.5 2.2 1 17.2 1 17.2s-4-14 0.5-15.3c0.9-0.3 1.8-0.3 2.9-0.3l0.4 7-3 0.9 3-0.2 0.2 4.1c-9.2 12.1-19.7 16.6-19.7 16.6s10.2-1.1 20-11.9l1 18.7c-3.7-1.5-7-3.6-7-3.6s2.4 7.1 7.5 10.1l4.3-5.1c-1-0.2-2.1-0.5-3.2-0.9l0.2-18.9c2.7 3.2 9 10.5 11.7 11l9-3c-3.5-0.6-17.7-8.9-20.9-10.9z" fill="#101040"/>
 <path id="path4312" d="m688.4 102.3c-8.5 5.7-21.5 6.9-28.8 5.9l-0.9 2c11.7 3.8 26.4 1 31.2-3.2l-1.5-4.7z" fill="#101040"/>
 <path id="path4314" d="m692.5 127.2c-3.6-0.9-7.3-1.4-10.8-1.7 0.8-2.9 1.2-6 1-9.2l-7.8 2c0.6 1.7 0.6 4.3 0.2 7-1.6 0-3.1 0.1-4.5 0.3 0.2-2.7 0.4-3.3-0.5-6l-4.7 1.3c1 1.8 1.5 2.3 1.8 5.1-3.4 1-5.7 1.8-6.9 3.2-5.1 6.1 0 23.2 0 23.2s-0.2-15.4 2-17 4.7-1.8 4.7-1.8c0.1 1.5-1.6 6.7-1.6 6.7 2.2-2.7 3.2-3.6 4.3-7.2 1.6-0.5 2.5-0.8 4.1-1-1.6 6.1-4.5 10.9-4.5 10.9l7.4 2c-4.1-0.1-13.3 5.1-13.3 5.1s16.2-4 20.8-1.1l1.2-2.9c-3.4-2.7-10.5-4.9-10.5-4.9s2.2-4.1 4.6-9.4c2.3 0.1 5.6 0.3 7.7 0.9 9.2 4.1-1.7 22.4-1.7 22.4s20.2-21.2 7-27.9z" fill="#101040"/>
 <path id="path4316" d="m735.3 102.2c0.4 0.5 0.9 2.3 0.9 8.6v2.8c-3.4 0.5-6.3 1-6.8 1.2l-0.6 0.2 2.8 2.7 0.2-0.1c1.1-0.3 2.6-0.5 4.2-0.7 0 0.7-0.4 7.3-0.4 7.9-4.9 0.4-9.2 1.1-12.7 1.9-3 0.8-4.8 2.6-5.2 5.4-0.1 0.4-0.1 0.9-0.1 1.4 0 7.1 6.9 16.9 7 16.9l0.8 0.5-0.3-0.9c0-0.1-2.8-9.4-2.8-15.6 0-1.8 0.2-3.3 0.8-4.3 0.4-0.6 0.8-0.9 1.4-1 1.3-0.2 2.7-0.4 4-0.6 0 0 3.1 4 3.7 4.7-0.5 0.1-1.4 0.3-1.4 0.3v0.3l0.2 2.2 0.4-0.1c0.6-0.2 1.8-0.5 3.2-0.7 0 0.6 0.1 2.4 0.2 2.9-1.7 0.5-3.2 1.1-3.8 1.4l-0.4 0.2 1.5 1.6 0.2-0.1c0.7-0.3 1.7-0.6 2.7-0.9 0 0.7 0.3 5.6 0.3 5.6h0.7l1.2-6c1.8-0.2 3.5-0.1 4.8 0.2l0.4 0.1v-3l-0.2-0.1c-0.8-0.4-2.3-0.4-4.5 0.1 0.1-0.7 0.4-2.1 0.5-2.5 1.6-0.1 2.9-0.2 3.8-0.1l0.5 0.1-0.7-2.6s-0.9 0-1.4 0.1c0.8-0.9 3.5-4.4 3.7-4.6 0.3 0 3.9 0.1 3.9 0.1 1.6 0.1 3 0.7 4.1 2 1.3 1.5 2 3.9 2 6.3 0 0.5 0 1.1-0.1 1.6l-0.1 0.7c-0.7 5.1-1.3 8.8-3.1 9.6-1.2 0.5-3.1-0.3-5.9-2.4l-0.5 0.5 5.5 9.6 0.3-0.1c6.7-2.4 7.7-3.8 10.4-15.4 1.2-5.1 0.8-9.1-1.3-11.8-2.5-3.3-6.3-3.7-6.5-3.7-0.1 0-6.7-0.3-14.6 0.2 0.2-0.8 2-7.5 2.1-7.9 2.5 0 4.7 0.1 5.7 0.5l0.4 0.1 0.4-4.7h-0.4c-1.1 0-2.8 0.1-5.1 0.3 1.3-4.4 1.9-5.8 2.1-6.2l0.2-0.3-8.1-4.7-0.2 0.3zm4.4 25.3c-0.1 0.7-0.7 4.3-0.7 4.7h-0.1c0-0.1 0.1-0.4 0.1-0.4l-4.4 0.4v0.6c-0.4 0.1-1 0.2-1.4 0.2v-5.1c2.2-0.1 4.3-0.3 6.5-0.4z" fill="#101040"/>
 <path id="path4318" d="m804.5 129.3 0.1-6.4 4.4-0.3-0.3-2.4-4.1 1.2v-5.7c2.4 0.3 5 0.8 7.1 0.9 4.3 0.3-1.2 14.1-1.2 14.1s16.3-14.4 2.6-18.1c-1.4 0-4.9 0.2-8.4 0.4v-3.9l7.5-1.9-7.5-0.1v-4l-4.6-3.4 0.5 8.7-4 2.7 4.1-1 0.2 3.2c-1.8 0.2-3.4 0.3-4.3 0.5-11.5 2.2 1 17.2 1 17.2s-4-14 0.5-15.3c0.9-0.3 1.8-0.3 2.9-0.3l0.4 7-3 0.9 3-0.2 0.2 4.1c-9.2 12.1-19.7 16.6-19.7 16.6s10.2-1.1 20-11.9l1 18.7c-3.7-1.5-7-3.6-7-3.6s2.4 7.1 7.5 10.1l4.3-5.1c-1-0.2-2.1-0.5-3.2-0.9l0.2-18.9c2.7 3.2 9 10.5 11.7 11l9-3c-3.5-0.6-17.7-8.9-20.9-10.9z" fill="#101040"/>
 <path id="path4320" d="m49.4 40.5c0 7.7-6.2 13.9-13.9 13.9s-13.9-6.2-13.9-13.9 6.2-13.9 13.9-13.9 13.9 6.2 13.9 13.9z" fill="none" stroke="#10106C" stroke-width=".75"/>
 <circle id="circle4322" cx="42" cy="40.5" r="6.5" fill="none" stroke="#10106C" stroke-width="1.6"/>
 <circle id="circle4324" cx="29" cy="40.5" r="6.5" fill="none" stroke="#10106C" stroke-width="1.6"/>
 <circle id="circle4326" cx="35.5" cy="34" r="6.5" fill="none" stroke="#10106C" stroke-width="1.6"/>
 <circle id="circle4328" cx="35.5" cy="47" r="6.5" fill="none" stroke="#10106C" stroke-width="1.6"/>
 <path id="path4330" d="m44.8 40.5c0 5.1-4.2 9.3-9.3 9.3s-9.3-4.2-9.3-9.3 4.2-9.3 9.3-9.3 9.3 4.2 9.3 9.3z" fill="none" stroke="#10106C" stroke-width=".75"/>
 <path id="path4332" d="m52.2 40.5c0 9.2-7.5 16.7-16.7 16.7s-16.7-7.5-16.7-16.7 7.5-16.7 16.7-16.7 16.7 7.5 16.7 16.7z" fill="none" stroke="#BA0000" stroke-width="2"/>
 <path id="path4334" d="m55 40.5c0 10.8-8.7 19.5-19.5 19.5s-19.5-8.7-19.5-19.5 8.7-19.5 19.5-19.5 19.5 8.7 19.5 19.5z" fill="none" stroke="#10106C" stroke-width=".75"/>
 <path id="path4336" d="m49.4 128.5c0 7.7-6.2 13.9-13.9 13.9s-13.9-6.2-13.9-13.9 6.2-13.9 13.9-13.9 13.9 6.2 13.9 13.9z" fill="none" stroke="#10106C" stroke-width=".75"/>
 <circle id="circle4338" cx="42" cy="128.5" r="6.5" fill="none" stroke="#10106C" stroke-width="1.6"/>
 <circle id="circle4340" cx="29" cy="128.5" r="6.5" fill="none" stroke="#10106C" stroke-width="1.6"/>
 <circle id="circle4342" cx="35.5" cy="122" r="6.5" fill="none" stroke="#10106C" stroke-width="1.6"/>
 <circle id="circle4344" cx="35.5" cy="135" r="6.5" fill="none" stroke="#10106C" stroke-width="1.6"/>
 <path id="path4346" d="m44.8 128.5c0 5.1-4.2 9.3-9.3 9.3s-9.3-4.2-9.3-9.3 4.2-9.3 9.3-9.3 9.3 4.2 9.3 9.3z" fill="none" stroke="#10106C" stroke-width=".75"/>
 <path id="path4348" d="m52.2 128.5c0 9.2-7.5 16.7-16.7 16.7s-16.7-7.5-16.7-16.7 7.5-16.7 16.7-16.7 16.7 7.5 16.7 16.7z" fill="none" stroke="#BA0000" stroke-width="2"/>
 <path id="path4350" d="m55 128.5c0 10.8-8.7 19.5-19.5 19.5s-19.5-8.7-19.5-19.5 8.7-19.5 19.5-19.5 19.5 8.7 19.5 19.5z" fill="none" stroke="#10106C" stroke-width=".75"/>
 <path id="path4352" d="m861.8 10.2c-0.4 0.4-0.5 1-0.5 1.7 0 1.3 0.4 2.9 0.6 3.5 0 0 0.3 7 0.4 7.8-0.9 0.1-2.5 0.2-3.1 0.4h-0.8c-1.7 0.1-3.3 0.2-4 0.9l-0.3 0.3 0.3 0.4c0.5 0.6 0.7 2.3 0.9 4.1 0.5 3.7 1.1 8.3 4.1 10.1l0.6 0.3v-0.7s0.1-0.3 0.1-0.7c0-0.3-0.1-0.8-0.2-1.5 0.8 0.1 2.5 0.3 3.1 0.3 0.1 0.8 2.7 33.4 2.7 33.4h1s1.1-32.2 1.1-33.2c0.7 0 3.8 0.1 4.7 0.2-0.2 0.6-1 3.1-1 3.1l1.4-1.3c0.4-0.3 9.1-8.2 7.9-13.4-0.4-1.7-1.8-2.9-4.1-3.5h-0.1-0.1c-1.3 0-5.3 0.1-8.3 0.3 0.1-2.6 0.1-4 0.1-4.7v-0.8-0.1c0-0.5 0.5-1.2 0.9-1.7 0.4-0.6 0.9-1.1 0.9-1.7 0-0.2-0.1-0.4-0.2-0.6-0.6-0.9-5-3.2-6.9-3.4-0.6 0.1-1 0.2-1.2 0.5zm0.1 16.4h0.5c0 0.9 0.3 7.2 0.4 8.1-0.8-0.1-2.7-0.3-3.3-0.3-0.3-1.3-0.4-2.7-0.5-4.1-0.1-1.2-0.2-2.4-0.4-3.5 0.9 0 3.3-0.2 3.3-0.2zm6.1 3.1s0.1-2.4 0.1-3.2c1.3 0.2 3 0.3 4.6 0.3h1.8c0 0.4-0.1 0.9-0.1 0.9-0.2 2.2-0.5 4.8-1.4 7.4-0.6 0-4.3-0.2-5.1-0.3 0-0.7 0.1-5.1 0.1-5.1z" fill="#BA0000"/>
 <path id="path4354" d="m861.8 98.2c-0.4 0.4-0.5 1-0.5 1.7 0 1.3 0.4 2.9 0.6 3.5 0 0 0.3 7 0.4 7.8-0.9 0.1-2.5 0.2-3.1 0.4h-0.8c-1.7 0.1-3.3 0.2-4 0.9l-0.3 0.3 0.3 0.4c0.5 0.6 0.7 2.3 0.9 4.1 0.5 3.7 1.1 8.3 4.1 10.1l0.6 0.3 0.2-0.6s0.1-0.3 0.1-0.7c0-0.3-0.1-0.8-0.2-1.5 0.8 0.1 2.5 0.3 3.1 0.3 0.1 0.8 2.7 33.4 2.7 33.4h1s1.1-32.2 1.1-33.2c0.7 0 3.8 0.1 4.7 0.2-0.2 0.6-1 3.1-1 3.1l1.4-1.3c0.4-0.3 9.1-8.2 7.9-13.4-0.4-1.7-1.8-2.9-4.1-3.5h-0.1-0.1c-1.3 0-5.3 0.1-8.3 0.3 0.1-2.6 0.1-4 0.1-4.7v-0.8-0.1c0-0.5 0.5-1.2 0.9-1.7 0.4-0.6 0.9-1.1 0.9-1.7 0-0.2-0.1-0.4-0.2-0.6-0.6-0.9-5-3.2-6.9-3.4-0.8 0-1.2 0.1-1.4 0.4zm0.1 16.4h0.5c0 0.9 0.3 7.2 0.4 8.1-0.8-0.1-2.7-0.3-3.3-0.3-0.3-1.3-0.4-2.7-0.5-4.1-0.1-1.2-0.2-2.4-0.4-3.5 0.9 0 3.3-0.2 3.3-0.2zm6.1 3.1s0.1-2.4 0.1-3.2c1.3 0.2 3 0.3 4.6 0.3h1.8c0 0.4-0.1 0.9-0.1 0.9-0.2 2.2-0.5 4.8-1.4 7.4-0.6 0-4.3-0.2-5.1-0.3 0-0.7 0.1-5.1 0.1-5.1z" fill="#BA0000"/>
 <path id="path4356" d="m925 47.8c0 0.1-1.4 5.1-5.1 7.1-0.5-0.6-3.1-4.2-3.1-4.2l-0.9 0.5 4.4 11.4 1-0.2c0-2.2 1.1-3.5 2.4-4.9 1.8-2.1 3.8-4.5 2.3-9.7l-0.5-1.7-0.5 1.7z" fill="#004C00"/>
 <path id="path4358" d="m929.5 37s-0.5 4.9-1.9 7.8l-0.3 0.7 0.7 0.1c1.8 0.1 3.5-3.7 4.1-5.4 0.4 0 1.4 0.1 2 0.1-0.3 1.2-0.7 2.8-0.7 3.8 0 0.4 0 0.7 0.2 0.9l0.5 0.3c0.8 0.1 5.2-0.2 6.1-0.3v-1c-1.5-0.2-3.3-0.7-3.5-1.2-0.2-0.6 0.6-3 1.5-5l0.3-0.7-9-0.6v0.5z" fill="#004C00"/>
 <path id="path4360" d="m942 46.6-14.7 0.4s4.9 6.3 5.4 6.9c-2.6 2.4-4.9 4.2-7 5.4l-0.6 0.4 0.6 0.5c1.4 1.1 4.2-0.2 8.6-4.2 2.3 3.2 3.8 5.5 4.3 6.9l0.2 0.7 2.7-2.2v-0.2-0.3c0-0.5 0-2.1-4.7-7.3 3-3.1 5.6-6 5.6-6.1l0.7-0.9h-1.1zm-4.7 2.8c-0.8 0.9-1.7 1.8-2.1 2.3l-1.9-1.9c1.1-0.2 2.7-0.3 4-0.4z" fill="#004C00"/>
 <path id="path4362" d="m931.1 25.2-1.7 1.7-4.5-5.2h-0.2c-0.7 0-4.3 0.1-5.2 1.4-0.1 0.1-0.1 0.3-0.1 0.4v0.2c0.1 0.5 0.7 0.7 1.8 1.1 0.5 0.2 1.2 0.5 1.5 0.7-1.1 2.3-2.3 4.4-3.7 6.4-0.7-0.4-4.1-2.5-4.1-2.5l-0.6 0.8s2.8 3.1 3.3 3.6c-2.8 3.5-6.2 6.6-10.4 9.5l0.4 0.9c12.8-3.3 21.9-16.2 22.1-16.5l2.3 2.2c-3.2 2-6.2 3.8-6.2 3.8l0.5 0.9c2-0.8 4.8-1.9 7.6-3l11.1 10.8 10.8-3.8-0.1-1c-5.1-0.2-12-4.4-17.1-7.9 2.9-1 5.3-1.7 6.4-1.6 0.7 0 0.9-0.3 1-0.5 0.4-1.1-3.5-4.4-11.4-9.7l-0.5-0.3-0.2 0.6m1 8.8c0.7-1.2 1.6-2.9 1.9-3.3 0.5 0.3 1.8 1.1 2.5 1.6-0.4 0.2-1.9 1.1-3.7 2.3-0.2-0.2-0.4-0.4-0.7-0.6z" fill="#004C00"/>
 <path id="path4364" d="m926.9 35.4-6.2 3.5 0.3 0.9s1.1-0.1 1.8-0.1c-0.2 0.7-0.6 1.8-1.1 3.2-0.6 0-5-0.2-5-0.2l0.8 0.9c0.3 0.3 1.6 1.7 2.7 1.7 0 0 0.3-0.1 0.6-0.1-0.8 2-1.7 3.7-2.6 5l0.7 0.7c1.5-1.2 3.2-3.4 4.8-6.4 0.3-0.1 1.2-0.4 1.2-0.4l-0.1-1h-0.4c1.8-3.6 3.1-7.1 3.1-7.1l0.5-1.3-1.1 0.7z" fill="#004C00"/>
 <path id="path4366" d="m925 135.8c0 0.1-1.4 5.1-5.1 7.1-0.5-0.6-3.1-4.2-3.1-4.2l-0.9 0.5 4.4 11.4 1-0.2c0-2.2 1.1-3.5 2.4-4.9 1.8-2.1 3.8-4.5 2.3-9.7l-0.5-1.7-0.5 1.7z" fill="#004C00"/>
 <path id="path4368" d="m929.5 125s-0.5 4.9-1.9 7.8l-0.3 0.7 0.7 0.1c1.8 0.1 3.5-3.7 4.1-5.4 0.4 0 1.4 0.1 2 0.1-0.3 1.2-0.7 2.8-0.7 3.8 0 0.4 0 0.7 0.2 0.9l0.5 0.3c0.8 0.1 5.2-0.2 6.1-0.3v-1c-1.5-0.2-3.3-0.7-3.5-1.2-0.2-0.6 0.6-3 1.5-5l0.3-0.7-9-0.6v0.5z" fill="#004C00"/>
 <path id="path4370" d="m942 134.6-14.7 0.4s4.9 6.3 5.4 6.9c-2.6 2.4-4.9 4.2-7 5.4l-0.6 0.4 0.6 0.5c1.4 1.1 4.2-0.2 8.6-4.2 2.3 3.2 3.8 5.5 4.3 6.9l0.2 0.7 2.7-2.3v-0.2-0.3c0-0.5 0-2.1-4.7-7.3 3-3.1 5.6-6 5.6-6.1l0.7-0.9-1.1 0.1zm-4.7 2.8c-0.8 0.9-1.7 1.8-2.1 2.3l-1.9-1.9c1.1-0.2 2.7-0.3 4-0.4z" fill="#004C00"/>
 <path id="path4372" d="m931.1 113.2-1.7 1.7-4.5-5.2h-0.2c-0.7 0-4.3 0.1-5.2 1.4-0.1 0.1-0.1 0.3-0.1 0.4v0.2c0.1 0.5 0.7 0.7 1.8 1.1 0.5 0.2 1.2 0.5 1.5 0.7-1.1 2.3-2.3 4.4-3.7 6.4-0.7-0.4-4.1-2.5-4.1-2.5l-0.6 0.8s2.8 3.1 3.3 3.6c-2.8 3.5-6.2 6.6-10.4 9.5l0.4 0.9c12.8-3.3 21.9-16.2 22.1-16.5l2.3 2.2c-3.2 2-6.2 3.8-6.2 3.8l0.5 0.9c2-0.8 4.8-1.9 7.6-3l11.4 10.9 10.8-3.8-0.1-1c-5.1-0.2-12-4.4-17.1-7.9 2.9-1 5.3-1.7 6.4-1.6 0.7 0 0.9-0.3 1-0.5 0.4-1.1-3.5-4.4-11.4-9.7l-0.5-0.3-0.2 0.6m0.7 8.7c0.7-1.2 1.6-2.9 1.9-3.3 0.5 0.3 1.8 1.1 2.5 1.6-0.4 0.2-1.9 1.1-3.7 2.3-0.2-0.2-0.4-0.4-0.7-0.6z" fill="#004C00"/>
 <path id="path4374" d="m926.9 123.4-6.2 3.5 0.3 0.9s1.1-0.1 1.8-0.1c-0.2 0.7-0.6 1.8-1.1 3.2-0.6 0-5-0.2-5-0.2l0.8 0.9c0.3 0.3 1.6 1.7 2.7 1.7 0 0 0.3-0.1 0.6-0.1-0.8 2-1.7 3.7-2.6 5l0.7 0.7c1.5-1.2 3.2-3.4 4.8-6.4 0.3-0.1 1.2-0.4 1.2-0.4l-0.1-1h-0.4c1.8-3.6 3.1-7.1 3.1-7.1l0.5-1.3-1.1 0.7z" fill="#004C00"/>
 <rect id="rect4376" x="2381" y="6" width="45" height="69" fill="#BFBFBF"/>
 <rect id="rect4378" x="2383" y="8" width="41" height="65" fill="#F4F4F4"/>
 <rect id="rect4400" x="2381" y="94" width="45" height="69" fill="#BFBFBF"/>
 <rect id="rect4402" x="2383" y="96" width="41" height="65" fill="#fff"/>
 <path id="path4424" d="m2323.8 13.9-0.1 1.3s8.9-2.4 9.4-0.6c0 0-0.4 4.1-1.4 4.9 0-0.5-0.7-0.6-1.7-0.5 0.1-1.1 0.3-3.7 1-4l-1.6-0.7-0.2 4.8-1.5 0.3-0.9-4.8-1 0.4 0.9 4.7c-1.1 0.3-2 0.5-2 0.5l-1.8-7-2.2-0.5 3.1 8.9s7.7-2.7 7.5-0.7c3.2-2.5 4.3-6.5 4.3-6.5-2.2-3.4-11.8-0.5-11.8-0.5z" fill="#99B9FF" stroke="#678ED3"/>
 <path id="path4426" d="m2267.6 19.9c-0.8-2.5 4.7 2.6 2.6 2.2s-10.6 0.1-11.9 0.6l-0.6-2.2c1.8 0.2 9.9-0.6 9.9-0.6z" fill="#99B9FF" stroke="#678ED3"/>
 <path id="path4428" d="m2139.6 16.1c-0.8-2.5 4.7 2.6 2.6 2.2s-10.6 0.1-11.9 0.6l-0.6-2.2c1.8 0.2 9.9-0.6 9.9-0.6z" fill="#99B9FF" stroke="#678ED3"/>
 <polygon id="polygon4430" points="2264.9 16.3 2265.7 17.8 2260.9 18.3 2260.4 16.8" fill="#99B9FF" stroke="#678ED3"/>
 <path id="path4432" d="m2267.1 12.5c-2-2.3-2.8 0.6-9 0.6l1.1 1.7 7.7-1 0.2-1.3z" fill="#99B9FF" stroke="#678ED3"/>
 <path id="path4434" d="m2203.6 18.9c-0.8-2.5 4.7 2.6 2.6 2.2s-10.6 0.1-11.9 0.6l-0.6-2.2c1.8 0.2 9.9-0.6 9.9-0.6z" fill="#99B9FF" stroke="#678ED3"/>
 <path id="path4436" d="m2203.1 14.5c-2-2.3-2.8 0.6-9 0.6l1.1 1.7 7.7-1 0.2-1.3z" fill="#99B9FF" stroke="#678ED3"/>
 <path id="path4438" d="m2323.8 101.9-0.1 1.3s8.9-2.4 9.4-0.6c0 0-0.4 4.1-1.4 4.9 0-0.5-0.7-0.6-1.7-0.5 0.1-1.1 0.3-3.7 1-4l-1.6-0.7-0.2 4.8-1.5 0.3-0.9-4.8-1 0.4 0.9 4.7c-1.1 0.3-2 0.5-2 0.5l-1.8-7-2.2-0.5 3.1 8.9s7.7-2.7 7.5-0.7c3.2-2.5 4.3-6.5 4.3-6.5-2.2-3.4-11.8-0.5-11.8-0.5z" fill="#99B9FF" stroke="#678ED3"/>
 <path id="path4440" d="m2267.6 107.9c-0.8-2.5 4.7 2.6 2.6 2.2s-10.6 0.1-11.9 0.6l-0.6-2.2c1.8 0.2 9.9-0.6 9.9-0.6z" fill="#99B9FF" stroke="#678ED3"/>
 <path id="path4442" d="m2139.6 104.1c-0.8-2.5 4.7 2.6 2.6 2.2s-10.6 0.1-11.9 0.6l-0.6-2.2c1.8 0.2 9.9-0.6 9.9-0.6z" fill="#99B9FF" stroke="#678ED3"/>
 <polygon id="polygon4444" points="2264.9 104.3 2265.7 105.8 2260.9 106.3 2260.4 104.8" fill="#99B9FF" stroke="#678ED3"/>
 <path id="path4446" d="m2267.1 100.5c-2-2.3-2.8 0.6-9 0.6l1.1 1.7 7.7-1 0.2-1.3z" fill="#99B9FF" stroke="#678ED3"/>
 <path id="path4448" d="m2203.6 106.9c-0.8-2.5 4.7 2.6 2.6 2.2s-10.6 0.1-11.9 0.6l-0.6-2.2c1.8 0.2 9.9-0.6 9.9-0.6z" fill="#99B9FF" stroke="#678ED3"/>
 <path id="path4450" d="m2203.1 102.5c-2-2.3-2.8 0.6-9 0.6l1.1 1.7 7.7-1 0.2-1.3z" fill="#99B9FF" stroke="#678ED3"/>
 <path id="path4452" d="m2643.1 20.3-0.1 1.3s8.9-2.4 9.4-0.6c0 0-0.4 4.1-1.4 4.9 0-0.5-0.7-0.6-1.7-0.5 0.1-1.1 0.3-3.7 1-4l-1.6-0.7-0.2 4.8-1.5 0.3-0.9-4.8-1 0.4 0.9 4.7c-1.1 0.3-2 0.5-2 0.5l-1.8-7-2.2-0.6 3.1 8.9s7.7-2.7 7.5-0.7c3.2-2.5 4.3-6.5 4.3-6.5-2.2-3.3-11.8-0.4-11.8-0.4z" fill="#DBC879" stroke="#7C5A2D" stroke-width=".5"/>
 <path id="path4454" d="m2586.9 26.3c-0.8-2.5 4.7 2.6 2.6 2.2s-10.6 0.1-11.9 0.6l-0.6-2.2c1.9 0.2 9.9-0.6 9.9-0.6z" fill="#DBC879" stroke="#7C5A2D" stroke-width=".5"/>
 <path id="path4456" d="m2458.9 22.5c-0.8-2.5 4.7 2.6 2.6 2.2s-10.6 0.1-11.9 0.6l-0.6-2.2c1.9 0.2 9.9-0.6 9.9-0.6z" fill="#DBC879" stroke="#7C5A2D" stroke-width=".5"/>
 <polygon id="polygon4458" points="2584.3 22.6 2585 24.1 2580.3 24.7 2579.7 23.2" fill="#DBC879" stroke="#7C5A2D" stroke-width=".5"/>
 <path id="path4460" d="m2586.5 18.8c-2-2.3-2.8 0.6-9 0.6l1.1 1.7 7.7-1 0.2-1.3z" fill="#DBC879" stroke="#7C5A2D" stroke-width=".5"/>
 <path id="path4462" d="m2522.9 25.3c-0.8-2.5 4.7 2.6 2.6 2.2s-10.6 0.1-11.9 0.6l-0.6-2.2c1.9 0.2 9.9-0.6 9.9-0.6z" fill="#DBC879" stroke="#7C5A2D" stroke-width=".5"/>
 <path id="path4464" d="m2522.5 20.8c-2-2.3-2.8 0.6-9 0.6l1.1 1.7 7.7-1 0.2-1.3z" fill="#DBC879" stroke="#7C5A2D" stroke-width=".5"/>
 <path id="path4466" d="m2643.1 108.3-0.1 1.3s8.9-2.4 9.4-0.6c0 0-0.4 4.1-1.4 4.9 0-0.5-0.7-0.6-1.7-0.5 0.1-1.1 0.3-3.7 1-4l-1.6-0.7-0.2 4.8-1.5 0.3-0.9-4.8-1 0.4 0.9 4.7c-1.1 0.3-2 0.5-2 0.5l-1.8-7-2.2-0.5 3.1 8.9s7.7-2.7 7.5-0.7c3.2-2.5 4.3-6.5 4.3-6.5-2.2-3.4-11.8-0.5-11.8-0.5z" fill="#DBC879" stroke="#7C5A2D" stroke-width=".5"/>
 <path id="path4468" d="m2586.9 114.3c-0.8-2.5 4.7 2.6 2.6 2.2s-10.6 0.1-11.9 0.6l-0.6-2.2c1.9 0.2 9.9-0.6 9.9-0.6z" fill="#DBC879" stroke="#7C5A2D" stroke-width=".5"/>
 <path id="path4470" d="m2458.9 110.5c-0.8-2.5 4.7 2.6 2.6 2.2s-10.6 0.1-11.9 0.6l-0.6-2.2c1.9 0.2 9.9-0.6 9.9-0.6z" fill="#DBC879" stroke="#7C5A2D" stroke-width=".5"/>
 <polygon id="polygon4472" points="2584.3 110.6 2585 112.1 2580.3 112.7 2579.7 111.2" fill="#DBC879" stroke="#7C5A2D" stroke-width=".5"/>
 <path id="path4474" d="m2586.5 106.8c-2-2.3-2.8 0.6-9 0.6l1.1 1.7 7.7-1 0.2-1.3z" fill="#DBC879" stroke="#7C5A2D" stroke-width=".5"/>
 <path id="path4476" d="m2522.9 113.3c-0.8-2.5 4.7 2.6 2.6 2.2s-10.6 0.1-11.9 0.6l-0.6-2.2c1.9 0.2 9.9-0.6 9.9-0.6z" fill="#DBC879" stroke="#7C5A2D" stroke-width=".5"/>
 <path id="path4478" d="m2522.5 108.8c-2-2.3-2.8 0.6-9 0.6l1.1 1.7 7.7-1 0.2-1.3z" fill="#DBC879" stroke="#7C5A2D" stroke-width=".5"/>
 <path id="path4480" d="m632.3 54.7c-2-0.9-11.8 3.3-11.8 3.3l0.5-20.7s5.3-4.3 9.6-1.7l-1.2-5c-1.4-0.2-8.4 5.5-8.4 5.5s-0.6-18.8 4.8-19.9c0 0-8.9-2.6-9.7-2.2-0.4 0.2-0.4 13.8-0.2 27.1-3.2 3.1-5.9 6.2-7.1 7.3l0.4-28.5s-4.7-2.6-5.8-1.4l0.2 14.8c-0.3-0.5-0.7-0.9-1-1.3-1-1.3-6.1-4.2-6.1-4.2s1.7 5.6 2.5 6.6c0.7 0.9 3 2.9 4.6 2.2l0.2 16.5c-3.4 3-7.9 6.8-8.5 5.4-1.5-3.2-4.7-3-5.2-1.5-0.5 1.6 4.2 10.2 5.8 10.1 0.8-0.1 4.4-4.9 8-10l0.1 5.3c1.6 2.1 3.8 0.5 4.6-0.7l0.3-11c1.1-1.6 4-4.5 7.1-7.9 0.2 12.1 0.3 22.8 0.3 22.8 4.9-5.2 16.7-4 16.7-4l-0.7-6.9z" fill="#101040"/>
 <g id="g4521" transform="translate(2256.8 16.791)">
  <g id="g4541" transform="matrix(.4044 0 0 .4044 118.42 55.571)" style="fill:#bfbfbf">
   <path id="circle4489" d="m39.87 125.58c0.12336 2.562-1.1318 5.0627-3.0337 6.7339-1.9806 1.7796-4.7372 2.7888-7.4009 2.3746-2.287-0.37632-4.4313-1.6214-5.8325-3.4767-1.6753-2.1554-2.4669-5.0674-1.8055-7.748 0.71657-2.8658 2.9012-5.2893 5.641-6.3712 2.1054-0.86073 4.5685-0.96103 6.6663-0.02166 2.8616 1.2123 5.1507 3.8612 5.6664 6.9586 0.084931 0.51169 0.1199 1.032 0.099084 1.5504z" style="fill:#bfbfbf"/>
   <path id="circle4491" d="m105.29 163.35c0.12109 2.6036-1.17 5.1451-3.1271 6.8168-2.012 1.7686-4.8081 2.7382-7.4783 2.2624-2.6839-0.47754-5.112-2.2074-6.4311-4.5948-1.2751-2.2147-1.6804-4.9927-0.78834-7.4199 1.1328-3.1957 4.1176-5.6287 7.4658-6.1326 1.8271-0.29145 3.754 0.0162 5.3696 0.92961 2.6178 1.3926 4.6197 4.0413 4.95 7.0218 0.0405 0.37056 0.05437 0.74413 0.03939 1.1166z" style="fill:#bfbfbf"/>
   <path id="circle4493" d="m105.29 87.805c0.12074 2.625-1.1901 5.1858-3.1744 6.8581-2.0226 1.7573-4.8271 2.7067-7.4938 2.2097-2.8-0.5145-5.3002-2.4044-6.5696-4.9516-1.1533-2.2138-1.4443-4.9324-0.50433-7.2751 1.3011-3.3877 4.7029-5.8514 8.332-6.0063 1.6482-0.08241 3.3145 0.33738 4.7246 1.1957 2.5063 1.4501 4.3894 4.0758 4.66 6.992 0.02958 0.32484 0.03855 0.6516 0.02547 0.97754z" style="fill:#bfbfbf"/>
   <path id="path4495" d="m74.361 103.01c10.483-0.2075 20.477 7.9916 22.148 18.377 1.0307 1.9728 3.7313 0.59014 5.4876 0.99608h10.345c-0.66756-8.5071-4.3504-16.739-10.23-22.921-6.2023 3.4236-14.991 0.45628-17.783-6.0723-1.2414-1.4916-0.2828-4.0824-2.1316-5.1518-8.0351-1.6056-16.638-0.6932-24.064 2.8411 2.6087 4.5183 5.2173 9.0367 7.826 13.555 2.6622-1.0739 5.5326-1.6265 8.403-1.624z" style="fill:#bfbfbf"/>
   <path id="path4497" d="m51.785 125.58c-0.053888-6.8221 3.2511-13.568 8.636-17.747-2.608-4.5177-5.216-9.0353-7.824-13.553-6.998 4.8681-12.325 12.129-14.75 20.311 5.6917 3.4339 7.6721 11.621 4.3741 17.348-0.63084 0.89516-1.0338 1.9694-1.9563 2.6253-0.93855 0.75139-2.194 1.5455-2.1773 2.9028 2.6035 7.7923 7.7527 14.723 14.505 19.411 2.6083-4.518 5.2167-9.036 7.825-13.554-5.3817-4.1802-8.6887-10.923-8.633-17.744z" style="fill:#bfbfbf"/>
   <path id="path4499" d="m96.71 128.78c-0.84107 7.0149-5.4899 13.258-11.607 16.647-3.7014 2.0816-8.0184 3.0683-12.256 2.6839-2.3612-0.15805-4.6994-0.68446-6.8928-1.5748-2.609 4.5187-5.218 9.0373-7.827 13.556 7.7128 3.6549 16.672 4.5536 24.974 2.604 0.10472-5.5391 4.36-10.5 9.6007-12.003 1.471-0.42388 3.0262-0.56875 4.5477-0.38501 1.8171-0.3044 3.3664 1.5133 5.1835 0.89428 1.0202-0.62756 1.6286-1.7939 2.4099-2.6972 4.2567-5.7106 6.9513-12.612 7.4962-19.726-5.21-6e-5 -10.42 1e-5 -15.63 1e-5z" style="fill:#bfbfbf"/>
  </g>
  <path id="path4501" d="m159.67 134.64c-0.02877-0.35912 0.16763-0.78365 0.55567-0.84427 0.38835-0.09298 0.83608 0.18523 0.858 0.59981 0.05162 0.41625 0.00987 0.83713 0.02564 1.2554 0.00212 0.61106-0.02911 1.228 0.06683 1.8335 0.0878 0.40578 0.43561 0.75638 0.86247 0.77464 0.45349 0.06048 0.95906-0.19244 1.0868-0.65218 0.13609-0.44353 0.07878-0.9146 0.09743-1.3716 4e-3 -0.61674-0.01549-1.2346 0.01402-1.8506 0.04307-0.34428 0.35938-0.63287 0.71289-0.60491 0.37529-0.00463 0.7011 0.33321 0.68666 0.70818 0.02936 0.60184 0.00228 1.2052 0.01192 1.8077-0.00984 0.64622-0.01745 1.3129-0.24091 1.927-0.2929 0.7202-0.99226 1.2633-1.7731 1.3263-0.78538 0.1096-1.6757-0.01548-2.2529-0.60574-0.48441-0.48969-0.67059-1.1935-0.6833-1.8658-0.04857-0.81159-0.0196-1.625-0.02808-2.4373z" style="fill:#bfbfbf"/>
  <path id="path4503" d="m148.63 138.73c-0.08457 0.47458 0.39034 0.99357 0.87795 0.84659 0.38935-0.08453 0.6162-0.51258 0.55451-0.88991 0.04884-0.97374-0.08996-1.9619 0.11133-2.9242 0.16171-0.52981 0.80893-0.81204 1.3149-0.60193 0.37325 0.13095 0.65681 0.4944 0.65536 0.89558 0.08022 0.71527 0.01566 1.4359 0.03618 2.1534 7.6e-4 0.34742-0.0224 0.71132 0.10127 1.0415 0.24738 0.45504 1.0428 0.45932 1.2367-0.04564 0.16593-0.39857 0.05013-0.83671 0.08804-1.2532-0.00644-0.90885 0.05531-1.8423-0.20879-2.7237-0.25717-0.72742-0.92752-1.2895-1.6949-1.3949-0.70386-0.12472-1.4778-0.04064-2.0835 0.35961-0.54762 0.37786-0.85694 1.0222-0.92331 1.673-0.1074 0.80949-0.0459 1.6281-0.06412 2.4418 1.7e-4 0.14066-2e-4 0.28132-0.00168 0.42196z" style="fill:#bfbfbf"/>
  <path id="path4505" d="m142.13 134.64c-0.10067-0.50659 0.46316-1.0423 0.95943-0.82268 0.38568 0.13953 0.53847 0.59584 0.47793 0.97322 0.03394 0.94906-0.09098 1.9118 0.11491 2.8486 0.21302 0.62875 1.1016 0.84222 1.5957 0.41129 0.28968-0.22334 0.3951-0.60076 0.38463-0.9527 0.06433-0.89957-0.03676-1.8035 0.0444-2.7019 0.02392-0.32387 0.29038-0.60318 0.61982-0.61159 0.33527-0.03931 0.698 0.18337 0.7402 0.53428 0.09409 0.44542 0.00186 0.90217 0.0384 1.3522-0.00379 0.89395 0.05282 1.8273-0.29149 2.6723-0.3328 0.70875-1.0756 1.1894-1.8548 1.2276-0.80471 0.08831-1.708-0.11371-2.2416-0.76363-0.46945-0.55865-0.5611-1.3116-0.5775-2.015-0.02705-0.71712 0.00896-1.4348-0.01008-2.152z" style="fill:#bfbfbf"/>
  <path id="path4507" d="m129.25 134.64c-0.03901-0.38411 0.20788-0.83325 0.62644-0.85682 0.38621-0.05386 0.79534 0.25381 0.79168 0.65727 0.04587 0.51044 0.00495 1.0239 0.01993 1.5356 0.00328 0.54013-0.02723 1.0921 0.09946 1.6209 0.1293 0.40336 0.53276 0.69587 0.95942 0.67105 0.46046 0.01212 0.92531-0.31547 0.9917-0.78647 0.10473-0.52415 0.04307-1.0626 0.06428-1.5931 0.00345-0.52215-0.02164-1.0472 0.02501-1.5674 0.07736-0.38123 0.49999-0.63452 0.87276-0.51937 0.32197 0.0832 0.54703 0.41317 0.51811 0.74287 0.01846 0.78665 0.01327 1.5743-0.00595 2.3608-0.0313 0.67674-0.12656 1.4151-0.6093 1.9315-0.38458 0.44299-0.95375 0.70441-1.5378 0.72991-0.78214 0.08308-1.6612-0.09403-2.1918-0.71774-0.45909-0.52568-0.59809-1.2448-0.60435-1.9238-0.03696-0.7612-0.01178-1.5235-0.0196-2.2851z" style="fill:#bfbfbf"/>
  <path id="path4509" d="m140.47 135.16c-0.07396-0.21321 0.00939 0.06305 0 0zm-4.7354 1.5416c0.02141-1.5526-0.04519-3.1066 0.03809-4.6581 0.11782-0.57324 1.0587-0.71608 1.2962-0.15888 0.22712 0.45753 0.07683 0.97703 0.13406 1.4626-0.15707 0.34618 0.0612 0.91862 0.46644 0.5539 0.89212-0.30153 2.0019-0.02919 2.5288 0.78589 0.60707 0.87193 0.65597 2.0154 0.43676 3.0243-0.18224 0.75392-0.68676 1.4863-1.4568 1.7197-0.91293 0.31816-2.031 0.18568-2.7496-0.49321-0.57362-0.58486-0.6988-1.4519-0.694-2.2362zm3.1399 1.5359c0.61707-0.52457 0.67528-1.4206 0.53872-2.1664-0.06708-0.68247-0.76129-1.3142-1.4622-1.1079-0.50761 0.11272-0.87966 0.61485-0.8567 1.1316-0.06716 0.63402-0.0874 1.322 0.22327 1.8988 0.34572 0.47677 1.0791 0.56861 1.557 0.24386z" style="fill:#bfbfbf"/>
  <path id="path4511" d="m155.33 133.68c0.31784 0.02026 0.09864-0.46704 0.1601-0.66738 0.00925-0.36518-0.0332-0.75019 0.09732-1.0979 0.20218-0.41319 0.82637-0.51708 1.1365-0.16631 0.29942 0.32213 0.20418 0.79746 0.22514 1.1977 0.05414 0.29004-0.18425 0.88365 0.30778 0.733 0.36322-0.04959 0.89067 0.08365 0.86203 0.54419 0.01204 0.41078-0.43584 0.52473-0.76284 0.52315-0.21528 0.0084-0.50559-0.07095-0.40637 0.24563 0.00461 1.0071-0.01571 2.0156 0.01469 3.0217 0.03289 0.43297 0.51937 0.49583 0.84995 0.36804 0.37317-0.16976 0.87568 0.12779 0.76336 0.56391-0.07019 0.40614-0.52085 0.5192-0.86469 0.58956-0.45 0.06766-0.92144 0.06642-1.3629-0.04965-0.44213-0.14276-0.7751-0.56016-0.80016-1.0268-0.11148-0.84206-0.03802-1.6937-0.05951-2.5402v-1.1685c-0.35233 0.04788-0.83893-0.0862-0.84346-0.51673-0.0061-0.36721 0.34528-0.58507 0.683-0.55351z" style="fill:#bfbfbf"/>
 </g>
 <g id="g4549" transform="translate(2256.6 -70.697)">
  <g id="g4551" transform="matrix(.4044 0 0 .4044 118.42 55.571)" style="fill:#bfbfbf">
   <path id="circle4553" d="m39.87 125.58c0.10806 4.615-3.7989 8.8364-8.406 9.098-4.6462 0.4751-9.2173-3.1842-9.7521-7.8281-0.77068-4.6258 2.6393-9.408 7.2504-10.221 4.4046-0.97161 9.1914 1.8558 10.479 6.1756 0.28985 0.8948 0.42746 1.8361 0.42881 2.7759z" style="fill:#bfbfbf"/>
   <path id="circle4555" d="m105.29 163.35c0.10806 4.615-3.7989 8.8365-8.406 9.098-4.6462 0.4751-9.2173-3.1842-9.7521-7.8281-0.77068-4.6258 2.6393-9.408 7.2504-10.221 4.4046-0.97161 9.1914 1.8558 10.479 6.1756 0.28984 0.8948 0.42747 1.8361 0.42881 2.7759z" style="fill:#bfbfbf"/>
   <path id="circle4557" d="m105.29 87.805c0.10806 4.615-3.7989 8.8364-8.406 9.098-4.6462 0.4751-9.2173-3.1842-9.7521-7.8281-0.77068-4.6258 2.6393-9.408 7.2504-10.221 4.4046-0.97161 9.1914 1.8558 10.479 6.1756 0.28986 0.8948 0.42747 1.8361 0.42881 2.7759z" style="fill:#bfbfbf"/>
   <path id="path4559" d="m74.361 103.01c8.8819-0.11353 17.462 5.6038 20.81 13.83 0.92252 1.6828 1.0294 4.1228 1.7821 5.5432h15.388c-0.66734-8.5074-4.3505-16.739-10.23-22.921-5.3279 2.8375-12.518 1.3225-16.185-3.5008-1.6818-2.1246-2.7086-4.7745-2.8298-7.4862-8.2986-1.9459-17.254-1.049-24.964 2.604 2.6087 4.5183 5.2173 9.0367 7.826 13.555 2.6622-1.0739 5.5326-1.6265 8.403-1.624z" style="fill:#bfbfbf"/>
   <path id="path4561" d="m51.785 125.58c-0.049774-6.6121 3.0463-13.156 8.1489-17.353 0.9607-0.99499-1.1255-2.5284-1.4238-3.7046-1.971-3.4143-3.9421-6.8286-5.9131-10.243-6.9984 4.8678-12.326 12.128-14.75 20.311 5.1058 3.1756 7.4018 10.114 5.1112 15.694-0.99412 2.557-2.7962 4.8031-5.1112 6.2825 2.4239 8.1818 7.7508 15.44 14.746 20.31 2.6083-4.518 5.2167-9.036 7.825-13.554-5.3824-4.1832-8.6886-10.92-8.633-17.744z" style="fill:#bfbfbf"/>
   <path id="path4563" d="m96.71 128.78c-1.1926 9.1602-8.594 17.1-17.664 18.89-4.3425 0.94744-8.945 0.48551-13.072-1.0722-2.6859 4.4301-5.2196 9.0072-7.8465 13.494 7.7125 3.6564 16.672 4.5522 24.974 2.604 0.19578-6.0407 5.106-11.523 11.124-12.289 2.6798-0.3945 5.4872 0.0407 7.8953 1.291 5.8745-6.1834 9.5535-14.413 10.219-22.918-5.21-1e-5 -10.42 1e-5 -15.63 1e-5z" style="fill:#bfbfbf"/>
  </g>
  <path id="path4565" d="m159.67 134.64c-0.0194-0.33699 0.13265-0.73161 0.48759-0.82617 0.35821-0.11531 0.8036 0.07162 0.89994 0.45304 0.08534 0.34147 0.03765 0.69714 0.05018 1.0457 0.00951 0.65584-0.02668 1.3139 0.03837 1.9676 0.02298 0.43745 0.31486 0.88371 0.76854 0.95846 0.43435 0.09688 0.95035-0.06468 1.1505-0.48706 0.18889-0.37857 0.139-0.81932 0.15682-1.2291 0.00405-0.68056-0.00842-1.3616 0.00681-2.0418 0.00539-0.34234 0.26388-0.68003 0.62116-0.69384 0.35494-0.05276 0.71852 0.1992 0.77055 0.55915 0.05253 0.3781 0.01862 0.76232 0.0283 1.1434-0.00786 0.85702 0.04211 1.7294-0.17962 2.5654-0.23327 0.72719-0.86078 1.3243-1.6209 1.4603-0.75246 0.13809-1.6039 0.09441-2.2396-0.3742-0.58036-0.4292-0.86204-1.1536-0.89647-1.8575-0.06783-0.87883-0.03297-1.7627-0.04217-2.6434z" style="fill:#bfbfbf"/>
  <path id="path4567" d="m148.63 138.73c-0.01935 0.33706 0.13262 0.73192 0.48774 0.82641 0.35817 0.11505 0.8038-0.07135 0.89986-0.45305 0.08505-0.34158 0.03749-0.6973 0.05008-1.046 0.00962-0.65578-0.02651-1.3138 0.03867-1.9674 0.02408-0.42348 0.29435-0.85837 0.72971-0.94971 0.44315-0.11372 0.98302 0.04283 1.1895 0.47846 0.18706 0.37369 0.13866 0.80901 0.15653 1.2138 0.00406 0.68562-0.00842 1.3717 0.00682 2.057 0.00555 0.34212 0.26368 0.68019 0.62097 0.69384 0.35501 0.05279 0.71884-0.19878 0.77067-0.55903 0.05216-0.37819 0.01845-0.76244 0.02808-1.1435-0.00791-0.85701 0.04221-1.7294-0.17935-2.5654-0.23301-0.72741-0.86062-1.3245-1.6209-1.4604-0.75249-0.13814-1.6039-0.09434-2.2396 0.37432-0.58047 0.42904-0.86201 1.1535-0.89647 1.8573-0.06779 0.87886-0.03303 1.7627-0.04232 2.6435z" style="fill:#bfbfbf"/>
  <path id="path4569" d="m142.13 134.64c-0.01936-0.33696 0.1324-0.73178 0.48752-0.82617 0.35823-0.11533 0.80367 0.07157 0.89998 0.45304 0.08503 0.3415 0.03739 0.69713 0.04993 1.0457 0.00957 0.65585-0.02691 1.314 0.03873 1.9676 0.02473 0.42313 0.2939 0.85888 0.72962 0.94978 0.4297 0.10791 0.95241-0.03001 1.1699-0.44297 0.20912-0.37387 0.15709-0.82195 0.17625-1.234 0.00407-0.69075-0.00842-1.382 0.00681-2.0724 0.00542-0.34232 0.26382-0.68013 0.62116-0.69384 0.35491-0.05269 0.71856 0.1992 0.77061 0.55915 0.05197 0.37813 0.01835 0.76231 0.02796 1.1433-0.00792 0.85702 0.04227 1.7294-0.17954 2.5655-0.23317 0.72734-0.86073 1.3244-1.621 1.4603-0.75239 0.13816-1.6036 0.09428-2.2394-0.3742-0.58019-0.4293-0.86206-1.1536-0.89647-1.8575-0.06783-0.87883-0.03298-1.7627-0.04217-2.6434z" style="fill:#bfbfbf"/>
  <path id="path4571" d="m129.25 134.64c-0.01941-0.33703 0.13259-0.73172 0.48765-0.82617 0.35727-0.11486 0.80182 0.07041 0.89902 0.45065 0.08684 0.34492 0.03803 0.70442 0.0509 1.0567 0.00947 0.653-0.0267 1.3083 0.03852 1.9591 0.02306 0.43733 0.31446 0.88391 0.76827 0.95846 0.43439 0.09685 0.95047-0.06467 1.1507-0.48706 0.18877-0.37861 0.13896-0.81931 0.15675-1.2291 0.00406-0.68056-0.00841-1.3616 0.00682-2.0418 0.00545-0.34225 0.26387-0.67995 0.62107-0.69384 0.35498-0.05277 0.71866 0.19917 0.77077 0.55915 0.05209 0.37812 0.01841 0.76231 0.02803 1.1433-0.00791 0.85702 0.04222 1.7294-0.17944 2.5655-0.23321 0.7273-0.86079 1.3243-1.621 1.4603-0.75242 0.13814-1.6037 0.09431-2.2395-0.3742-0.5805-0.42908-0.86189-1.1537-0.89663-1.8575-0.06805-0.87883-0.03294-1.7627-0.04198-2.6434z" style="fill:#bfbfbf"/>
  <path id="path4573" d="m140.47 135.16c-0.10624-0.23161-0.01005-0.02759 0.03281 0.08339l-0.01624-0.04287-0.01657-0.04051v-1e-5zm-4.7354 1.5416c0.0037-1.4406-0.00763-2.882 0.00622-4.3227-0.02792-0.36967 0.18782-0.77493 0.57751-0.83902 0.42856-0.0981 0.87181 0.2684 0.85849 0.70788 0.03327 0.6201 0.00981 1.242 0.01685 1.8629 0.42559-0.20023 0.88335-0.37072 1.3629-0.32462 0.92919 0.01816 1.7489 0.7376 2.0019 1.6136 0.29441 0.95495 0.26686 2.0303-0.15304 2.944-0.30739 0.65982-0.96564 1.1248-1.6879 1.2037-0.82076 0.11184-1.7694-0.01549-2.3425-0.67281-0.47505-0.51145-0.60767-1.2273-0.62892-1.9021-0.00486-0.09025-0.00858-0.18057-0.01147-0.2709zm3.1399 1.5359c0.49317-0.36992 0.60059-1.0417 0.5982-1.6223-0.02983-0.53247-0.14053-1.1508-0.59819-1.4873-0.51775-0.33783-1.3495-0.21843-1.632 0.37235-0.22801 0.50273-0.18589 1.0767-0.1675 1.6153 0.00751 0.46276 0.16908 0.99325 0.62424 1.1988 0.36837 0.16153 0.83521 0.14683 1.1753-0.07693z" style="fill:#bfbfbf"/>
  <path id="path4575" d="m155.33 133.68c0.1515 0.03826 0.18593-0.04056 0.16059-0.17914 0.0104-0.4724-0.02906-0.94934 0.04078-1.4177 0.08452-0.48072 0.72252-0.72231 1.1018-0.4092 0.36001 0.24365 0.3062 0.72238 0.31588 1.1029v0.903c0.32173 0.02032 0.67452-0.06581 0.96203 0.11649 0.331 0.21573 0.25782 0.81483-0.15468 0.88644-0.26112 0.08239-0.53741 0.06513-0.80749 0.06715 0.00453 1.0334-0.00968 2.0671 0.00833 3.1002-0.02449 0.28523 0.15185 0.62927 0.48322 0.58281 0.32042 0.01717 0.68989-0.22635 0.96932 0.0199 0.31146 0.24514 0.18903 0.76542-0.1585 0.91171-0.49876 0.24097-1.0791 0.2423-1.6193 0.18169-0.51299-0.04623-0.98553-0.43305-1.0601-0.95468-0.12902-0.70658-0.06657-1.4276-0.08152-2.1417v-1.6997c-0.2953 0.01356-0.66698-0.00823-0.79771-0.32456-0.15948-0.33609 0.12014-0.72955 0.48119-0.73608 0.05172-0.00674 0.10392-0.00954 0.15606-0.0096z" style="fill:#bfbfbf"/>
 </g>
</svg>
