/* XPM */
static char *audacious_32[] = {
/* columns rows colors chars-per-pixel */
"32 32 111 2 ",
"   c #000000",
".  c #010101",
"X  c #020202",
"o  c #030303",
"O  c #050505",
"+  c #060606",
"@  c #070707",
"#  c #080808",
"$  c #0A0A0A",
"%  c #0B0B0B",
"&  c #0D0D0D",
"*  c #0F0F0F",
"=  c #101010",
"-  c #111111",
";  c #131313",
":  c #141414",
">  c #151515",
",  c #161616",
"<  c #191919",
"1  c #1C1C1C",
"2  c #1D1D1D",
"3  c #202020",
"4  c #242424",
"5  c #252525",
"6  c #282828",
"7  c #292929",
"8  c #2A2A2A",
"9  c #2B2B2B",
"0  c #2C2C2C",
"q  c #2D2D2D",
"w  c #2E2E2E",
"e  c #2F2F2F",
"r  c #303030",
"t  c #313131",
"y  c #323232",
"u  c #373737",
"i  c #393939",
"p  c #3A3A3A",
"a  c #414141",
"s  c #424242",
"d  c #434343",
"f  c #444444",
"g  c #464646",
"h  c #4D4D4D",
"j  c #515151",
"k  c #535353",
"l  c #545454",
"z  c #555555",
"x  c #565656",
"c  c #575757",
"v  c #585858",
"b  c #595959",
"n  c #5A5A5A",
"m  c #5C5C5C",
"M  c #5E5E5E",
"N  c #616161",
"B  c #646464",
"V  c #656565",
"C  c #666666",
"Z  c #676767",
"A  c #696969",
"S  c #6B6B6B",
"D  c #6C6C6C",
"F  c #727272",
"G  c #838383",
"H  c #848484",
"J  c #858585",
"K  c #868686",
"L  c #888888",
"P  c #8A8A8A",
"I  c #8E8E8E",
"U  c #909090",
"Y  c #929292",
"T  c #939393",
"R  c #949494",
"E  c #A1A1A1",
"W  c #A4A4A4",
"Q  c #A9A9A9",
"!  c #AFAFAF",
"~  c #B1B1B1",
"^  c #B2B2B2",
"/  c #B3B3B3",
"(  c #B7B7B7",
")  c #BABABA",
"_  c #BBBBBB",
"`  c #BEBEBE",
"'  c #BFBFBF",
"]  c #C0C0C0",
"[  c #C1C1C1",
"{  c #C5C5C5",
"}  c #C6C6C6",
"|  c #C8C8C8",
" . c #C9C9C9",
".. c #CBCBCB",
"X. c #CCCCCC",
"o. c #CDCDCD",
"O. c #CECECE",
"+. c #CFCFCF",
"@. c #D1D1D1",
"#. c #D2D2D2",
"$. c #D3D3D3",
"%. c #D4D4D4",
"&. c #D5D5D5",
"*. c #D7D7D7",
"=. c #D8D8D8",
"-. c #D9D9D9",
";. c #DADADA",
":. c #DBDBDB",
">. c #DCDCDC",
",. c #DDDDDD",
"<. c None",
/* pixels */
"<.<.<.<.<.<.<.<.<.<.<.<.                <.<.<.<.<.<.<.<.<.<.<.<.",
"<.<.<.<.<.<.<.<.<.                            <.<.<.<.<.<.<.<.<.",
"<.<.<.<.<.<.<.                                    <.<.<.<.<.<.<.",
"<.<.<.<.<.<.            X $ - ; ; = $ X             <.<.<.<.<.<.",
"<.<.<.<.<.          # t C R ^ [ [ ^ T B r #           <.<.<.<.<.",
"<.<.<.<.        o q K [ ;.:.;.;.;.;.:.;.' H 9 o         <.<.<.<.",
"<.<.<.        @ v _ :.:.-.-.-.-.-.-.-.-.:.:._ c @         <.<.<.",
"<.<.        @ V o.:.-.-.-.-.-.;.;.-.-.-.-.-.:.X.B @         <.<.",
"<.<.      X c X.:.-.-.-.:.:.;.$.#.-.:.;.-.-.-.:...x X       <.<.",
"<.        0 _ :.-.-.;.O.T F m d s l H ' -.-.-.-.:.) 9         <.",
"<.      @ H :.-.-.;.$.A % o         + 7 Y &.-.-.-.:.H @       <.",
"<.      r ] :.-.-.:.{ u                 2 Q >.-.-.:.' r       <.",
"      . V ;.-.-.-.-.*.R v N V b ,         D *.-.-.-.;.B .       ",
"      $ T :.-.-.-.-.-.>.=.O.( L 3         f +.;.-.-.:.Y $       ",
"      - ^ ;.-.-.-.-.;.` S u , # .         4 | ;.-.-.;.~ =       ",
"      ; [ ;.-.-.-.:.( a X                 1 } ;.-.-.;.] ;       ",
"      ; [ ;.-.-.;.+.h .     # t w O       p o.;.-.-.;.] ;       ",
"      - / ;.-.-.;.' :       5 ! E <       j @.;.-.-.;.~ =       ",
"      $ R :.-.-.;.] >       * M k +       M %.-.-.-.:.T $       ",
"      . Z ;.-.-.;.X.i                     g +.;.-.-.;.V .       ",
"<.      y [ :.-.-.-.I ;         o O       n $.-.-.:.[ t       <.",
"<.      # J :.-.-.;.$.Y e & < k P U z 6 j ( ;.-.-.:.J #       <.",
"<.        q _ :.-.-.;.;.} W ~ #.>.,.#. .@.;.-.-.:.) 0         <.",
"<.<.      X c ..:.-.-.-.;.;.;.;.-.-.-.;.;.-.-.:...x X       <.<.",
"<.<.        @ B o.:.-.-.-.-.-.-.-.-.-.-.-.-.:.X.B @         <.<.",
"<.<.<.        @ c _ :.:.-.-.-.-.-.-.-.-.:.:.) x +         <.<.<.",
"<.<.<.<.        o 0 J [ ;.:.;.;.;.;.:.;.' G 8 o         <.<.<.<.",
"<.<.<.<.<.          # t V T ~ ] ] ~ Y B r #           <.<.<.<.<.",
"<.<.<.<.<.<.            X $ = ; ; = $ X             <.<.<.<.<.<.",
"<.<.<.<.<.<.<.                                    <.<.<.<.<.<.<.",
"<.<.<.<.<.<.<.<.<.                            <.<.<.<.<.<.<.<.<.",
"<.<.<.<.<.<.<.<.<.<.<.<.                <.<.<.<.<.<.<.<.<.<.<.<."
};
