/* XPM */
static char *audacious_16[] = {
/* columns rows colors chars-per-pixel */
"16 16 61 1 ",
"  c #000000",
". c #020202",
"X c #070707",
"o c #0A0A0A",
"O c #111111",
"+ c #131313",
"@ c #151515",
"# c #161616",
"$ c #171717",
"% c #1B1B1B",
"& c #1C1C1C",
"* c #1F1F1F",
"= c #222222",
"- c #252525",
"; c #272727",
": c #292929",
"> c #2C2C2C",
", c #2D2D2D",
"< c #333333",
"1 c #373737",
"2 c #383838",
"3 c #393939",
"4 c #3D3D3D",
"5 c #494949",
"6 c #606060",
"7 c #616161",
"8 c #626262",
"9 c #666666",
"0 c #818181",
"q c #888888",
"w c #898989",
"e c #8B8B8B",
"r c #8C8C8C",
"t c #919191",
"y c #9E9E9E",
"u c #A0A0A0",
"i c #A1A1A1",
"p c #A2A2A2",
"a c #A6A6A6",
"s c #B3B3B3",
"d c #BBBBBB",
"f c #BDBDBD",
"g c #C1C1C1",
"h c #C3C3C3",
"j c #C5C5C5",
"k c #CACACA",
"l c #CDCDCD",
"z c #CECECE",
"x c #D0D0D0",
"c c #D2D2D2",
"v c #D4D4D4",
"b c #D7D7D7",
"n c #D8D8D8",
"m c #D9D9D9",
"M c #DADADA",
"N c #DBDBDB",
"B c #DCDCDC",
"V c #DDDDDD",
"C c #DEDEDE",
"Z c #DFDFDF",
"A c None",
/* pixels */
"AAAAA      AAAAA",
"AAA   o##o   AAA",
"AA  @7iddu6@  AA",
"A  ;pmZZZCmp;  A",
"A @pVxaresbVp@ A",
"  6mBt+X.$wMm6  ",
" ouBMgq9O 1zVuo ",
" #dNmy3@. *hBd# ",
" #dBj: 42 ,kBd# ",
" oiCh= *% <lVuo ",
"  7mn0&-5>8vm7  ",
"A @pVnfhbkcVp@ A",
"A  ;pmCBNVmp;  A",
"AA  @7iddu6@  AA",
"AAA   o##o   AAA",
"AAAAA      AAAAA"
};
