<?xml version="1.0" encoding="UTF-8"?>
<svg id="svg11300" width="128" height="128" style="enable-background:new" version="1.0" viewBox="0 0 128 128" xmlns="http://www.w3.org/2000/svg" xmlns:cc="http://creativecommons.org/ns#" xmlns:dc="http://purl.org/dc/elements/1.1/" xmlns:rdf="http://www.w3.org/1999/02/22-rdf-syntax-ns#" xmlns:xlink="http://www.w3.org/1999/xlink">
 <title id="title4162">Adwaita Icon Template</title>
 <defs id="defs3">
  <clipPath id="clipPath1599">
   <path id="path1601" d="m492.31-59.385-98.462-137.85h-246.15v482.46h344.62z" style="fill:#1c71d8"/>
  </clipPath>
  <clipPath id="clipPath9424">
   <path id="path9426" d="m41.126 217.5a12.742 12.742 0 0 0-12.629 11.136 12.742 12.742 0 0 0 12.629 11.164 12.742 12.742 0 0 0 12.629-11.136 12.742 12.742 0 0 0-12.629-11.164z" style="enable-background:new;fill:none;stroke-linecap:square;stroke-linejoin:round;stroke-width:2;stroke:#000"/>
  </clipPath>
  <linearGradient id="linearGradient1247" x1="22" x2="62" y1="37" y2="37" gradientTransform="matrix(1.4 0 0 1.4 21.102 162.53)" gradientUnits="userSpaceOnUse">
   <stop id="stop1196" style="stop-color:#949390" offset="0"/>
   <stop id="stop1198" style="stop-color:#deddda" offset=".090816"/>
   <stop id="stop1200" style="stop-color:#9a9996" offset=".33609"/>
   <stop id="stop1202" style="stop-color:#c3c0ba" offset=".84433"/>
   <stop id="stop1204" style="stop-color:#deddda" offset=".9305"/>
   <stop id="stop1206" style="stop-color:#c0bfbc" offset="1"/>
  </linearGradient>
  <radialGradient id="radialGradient1249" cx="-172" cy="20.939" r="15.857" gradientTransform="matrix(1.1986 0 0 1.0946 178.16 153.91)" gradientUnits="userSpaceOnUse">
   <stop id="stop8955" style="stop-color:#fff" offset="0"/>
   <stop id="stop8957" style="stop-color:#fff;stop-opacity:.094488" offset="1"/>
  </radialGradient>
  <radialGradient id="radialGradient2561" cx="131.91" cy="55.927" r="160" gradientTransform="matrix(1.0125 2.1003 -1.6093 .11574 -4.6063 -300)" gradientUnits="userSpaceOnUse">
   <stop id="stop1718" style="stop-color:#e01b24" offset="0"/>
   <stop id="stop1720" style="stop-color:#f8e45c" offset="1"/>
  </radialGradient>
  <radialGradient id="radialGradient3300" cx="525.59" cy="638.59" r="192" gradientTransform="matrix(-.56672 1.0066 -1.1025 -.69088 1449.9 -224.45)" gradientUnits="userSpaceOnUse">
   <stop id="stop1590" style="stop-color:#2ec27e" offset="0"/>
   <stop id="stop1592" style="stop-color:#57e389;stop-opacity:0" offset="1"/>
  </radialGradient>
 </defs>
 <metadata id="metadata4">
  <rdf:RDF>
   <cc:Work rdf:about="">
    <dc:format>image/svg+xml</dc:format>
    <dc:type rdf:resource="http://purl.org/dc/dcmitype/StillImage"/>
    <dc:creator>
     <cc:Agent>
      <dc:title>GNOME Design Team</dc:title>
     </cc:Agent>
    </dc:creator>
    <dc:source/>
    <cc:license rdf:resource="http://creativecommons.org/licenses/by-sa/4.0/"/>
    <dc:title>Adwaita Icon Template</dc:title>
    <dc:subject>
     <rdf:Bag/>
    </dc:subject>
    <dc:date/>
    <dc:rights>
     <cc:Agent>
      <dc:title/>
     </cc:Agent>
    </dc:rights>
    <dc:publisher>
     <cc:Agent>
      <dc:title/>
     </cc:Agent>
    </dc:publisher>
    <dc:identifier/>
    <dc:relation/>
    <dc:language/>
    <dc:coverage/>
    <dc:description/>
    <dc:contributor>
     <cc:Agent>
      <dc:title/>
     </cc:Agent>
    </dc:contributor>
   </cc:Work>
   <cc:License rdf:about="http://creativecommons.org/licenses/by-sa/4.0/">
    <cc:permits rdf:resource="http://creativecommons.org/ns#Reproduction"/>
    <cc:permits rdf:resource="http://creativecommons.org/ns#Distribution"/>
    <cc:requires rdf:resource="http://creativecommons.org/ns#Notice"/>
    <cc:requires rdf:resource="http://creativecommons.org/ns#Attribution"/>
    <cc:permits rdf:resource="http://creativecommons.org/ns#DerivativeWorks"/>
    <cc:requires rdf:resource="http://creativecommons.org/ns#ShareAlike"/>
   </cc:License>
  </rdf:RDF>
 </metadata>
 <g id="layer1" transform="translate(0,-172)">
  <rect id="rect1165" x="12" y="184" width="104" height="104.04" rx="8" ry="8" style="fill:#f6f5f4"/>
  <g id="layer2" style="display:none">
   <text id="context" x="7.9499588" y="148.65199" style="display:inline;enable-background:new;fill:#000000;font-family:Cantarell;font-size:6.0879px;line-height:125%;stroke-width:.33265" xml:space="preserve"><tspan id="tspan2716" x="7.9499588" y="148.65199" style="stroke-width:.33265">apps</tspan></text>
   <text id="text3021" x="7.7533054" y="157.23398" style="display:inline;enable-background:new;fill:#000000;font-family:Cantarell;font-size:6.0879px;font-weight:bold;line-height:125%;stroke-width:.33265" xml:space="preserve"><tspan id="tspan3023" x="7.7533054" y="157.23398" style="stroke-width:.33265">org.gnome.ImageViewer</tspan></text>
   <rect id="rect13805" x="9.2651e-8" y="172" width="128" height="128" style="display:inline;enable-background:accumulate;fill:#f0f0f0"/>
   <g id="g1168" transform="matrix(.25 0 0 .25 6.9489e-8 225)">
    <rect id="rect1110" x="96" y="-180" width="320" height="448" rx="32" ry="32" style="fill:#2864b0;opacity:.1;paint-order:normal"/>
    <rect id="rect1110-8" x="48" y="-164" width="416" height="416" rx="32" ry="32" style="display:inline;enable-background:new;fill:#2864b0;opacity:.1;paint-order:normal"/>
    <rect id="rect1110-8-9" x="32" y="-116" width="448" height="320" rx="32" ry="32" style="display:inline;enable-background:new;fill:#2864b0;opacity:.1;paint-order:normal"/>
    <circle id="path1142" cx="256" cy="44" r="240" style="fill:#2864b0;opacity:.1;paint-order:normal"/>
   </g>
  </g>
  <g id="layer9">
   <rect id="rect977" x="-4.3051e-7" y="172" width="0" height="0" style="fill:#f7da50;opacity:.32"/>
  </g>
  <rect id="rect1431" transform="scale(1,-1)" x="-7.3333" y="-316" width="0" height="0" style="fill-opacity:0;opacity:.32;stroke-linejoin:round;stroke-width:.44194;stroke:#3d3d3d"/>
  <circle id="path1155" transform="translate(0,172)" r="0" style="fill:#9059a1"/>
  <rect id="rect971" transform="scale(1,-1)" x="-5.3333" y="-284" width="0" height="0" style="fill-opacity:0;opacity:.32;stroke-linejoin:round;stroke-width:.44194;stroke:#3d3d3d"/>
  <rect id="rect1127" transform="scale(1,-1)" x="-70.4" y="-299.2" width="0" height="0" style="fill-opacity:0;opacity:.32;stroke-linejoin:round;stroke-width:.53033;stroke:#3d3d3d"/>
  <g id="g1071" transform="matrix(.95652 0 0 .94286 2.7826 12.857)" style="stroke-width:1.053">
   <g id="g1069" transform="matrix(1.15 0 0 1.1667 -9.6 -38.667)" style="enable-background:new;stroke-width:.90909">
    <g id="g1067" transform="matrix(.20833 0 0 .23438 10.667 215.69)" style="enable-background:new;stroke-width:.90909">
     <rect id="rect1059" transform="scale(1,-1)" x="64" y="-172" width="384" height="256" rx="0" ry="0" style="enable-background:new;fill:url(#radialGradient2561);paint-order:normal"/>
     <rect id="rect1061" transform="scale(1,-1)" x="64" y="-172" width="384" height="256" rx="0" ry="0" style="enable-background:new;fill:url(#radialGradient3300);paint-order:normal"/>
     <rect id="rect1065" transform="matrix(1,0,0,-1,0,300)" width="0" height="0" style="fill-opacity:0;opacity:.32;stroke-linejoin:round;stroke-width:1.8182;stroke:#3d3d3d"/>
     <rect id="rect1949" transform="matrix(4.1739 0 0 3.6571 -11.13 -149.83)" width="0" height="0" style="fill-opacity:.20332;fill:#1c71d8;opacity:.35"/>
    </g>
   </g>
  </g>
  <rect id="rect9654" x="118.44" y="172.37" width="2.4749" height="2.1213" style="fill-opacity:.094488;fill:#fff;opacity:.08"/>
  <g id="g1245">
   <g id="g1224" transform="translate(-51.902 4)">
    <use id="use1212" transform="matrix(2 0 0 2 -2.3487 -225.97)" width="100%" height="100%" clip-path="url(#clipPath9424)" style="enable-background:new;stroke-width:.5" xlink:href="#g1069"/>
    <path id="path1214" d="m79.805 202.1c-14.359 0-26 11.641-26 26 0.0094 2.072 0.26641 0.13548 0.76562 2.1465 2.686-11.832 13.199-20.233 25.332-20.244 11.981 0.0132 22.402 8.212 25.234 19.854 0.43642-1.8877 0.66047 0.18166 0.66796-1.7559 0-14.359-11.641-26-26-26zm-27.902 23.902v8c0 15.464 12.536 28 28 28 15.464 0 28-12.536 28-28v-8c0 7.1509-2.6845 13.074-7.0957 17.379-4.885 6.7244-12.69 10.708-21.002 10.719-8.6084-0.01-16.654-4.2803-21.486-11.404-4.0069-4.2395-6.416-9.9161-6.416-16.693z" style="enable-background:new;fill:url(#linearGradient1247);paint-order:normal"/>
    <g id="g1220" transform="matrix(1.3021 0 0 1.3021 116.61 -27.008)" style="stroke-width:.768">
     <path id="path1216" d="m-28 179.72c-9.6499 9e-3 -17.79 7.4335-19.007 17.335 1.1974 9.9188 9.343 17.367 19.007 17.379 9.6499-9e-3 17.79-7.4335 19.007-17.335-1.1974-9.9188-9.343-17.367-19.007-17.379z" style="fill:url(#radialGradient1249)"/>
     <path id="path1218" d="m-28.193 177.41c-10.604 0-19.2 8.5961-19.2 19.2 0.0077 0.79575 0.06482 1.3982 0.17109 2.1869 0-9.0989 9.3679-16.77 19.029-16.779 9.6752 0.0117 19.029 7.68 19.029 16.821 0.10804-0.80261 0.16518-1.4193 0.17109-2.2291 0-10.604-8.5961-19.2-19.2-19.2z" style="fill:#453637;opacity:.1"/>
    </g>
    <circle id="circle1222" cx="79.902" cy="228" r="26" style="fill:none;stroke-linecap:square;stroke-linejoin:round;stroke-width:4;stroke:#f6f5f4"/>
   </g>
   <circle id="circle1226" cx="50" cy="210" r="6" style="fill:#f6f5f4"/>
   <path id="path1228" d="m50 216 6-6v22h-3z" style="fill:#f6f5f4"/>
   <path id="path1230" d="m44 210 6-6h-22v3z" style="fill:#f6f5f4"/>
   <circle id="circle1232" cx="51" cy="209" r="2" style="fill:#c0bfbc"/>
  </g>
  <rect id="rect1375" transform="translate(0,172)" width="0" height="0" style="fill:#deddda"/>
 </g>
</svg>
