<?xml version="1.0" encoding="UTF-8"?>
<svg id="svg878" width="16" height="16" version="1.1" xmlns="http://www.w3.org/2000/svg" xmlns:cc="http://creativecommons.org/ns#" xmlns:dc="http://purl.org/dc/elements/1.1/" xmlns:rdf="http://www.w3.org/1999/02/22-rdf-syntax-ns#">
 <metadata id="metadata884">
  <rdf:RDF>
   <cc:Work rdf:about="">
    <dc:format>image/svg+xml</dc:format>
    <dc:type rdf:resource="http://purl.org/dc/dcmitype/StillImage"/>
    <dc:title/>
   </cc:Work>
  </rdf:RDF>
 </metadata>
 <g id="g1564">
  <path id="path872" d="m4 2v2h6c0.428 0 1 0.614 1 1v1h-5c-0.92 0-1.736 0.38-2.25 0.965a3.037 3.037 0 0 0-0.737 2.045c6e-3 0.72 0.246 1.449 0.758 2.027 0.513 0.579 1.32 0.963 2.229 0.963h7v-7a3 3 0 0 0-3-3zm2 6h5v2h-5c-0.398 0-0.579-0.116-0.73-0.287a1.138 1.138 0 0 1-0.257-0.723c-2e-3 -0.28 0.093-0.54 0.239-0.705 0.145-0.165 0.325-0.285 0.748-0.285z" overflow="visible" style="font-feature-settings:normal;font-variant-alternates:normal;font-variant-caps:normal;font-variant-ligatures:normal;font-variant-numeric:normal;font-variant-position:normal;isolation:auto;mix-blend-mode:normal;shape-padding:0;text-decoration-color:#000000;text-decoration-line:none;text-decoration-style:solid;text-indent:0;text-orientation:mixed;text-transform:none;white-space:normal"/>
  <path id="path851" d="m4.005 13-1.8806 1.527c-0.37709 0.3063 0.18854 0.76576 0.56563 0.45946l1.315-1.0688 1.5978 1.2979 1.5978-1.2979 1.5978 1.2979 1.5978-1.2979 1.5978 1.2979 1.8806-1.527c0.37709-0.3063-0.18854-0.76576-0.56563-0.45946l-1.315 1.0688-1.5978-1.2979-1.5978 1.2979-1.5978-1.2979-1.5978 1.2979z" overflow="visible" style="font-feature-settings:normal;font-variant-alternates:normal;font-variant-caps:normal;font-variant-ligatures:normal;font-variant-numeric:normal;font-variant-position:normal;isolation:auto;mix-blend-mode:normal;shape-padding:0;stroke-width:.72004;text-decoration-color:#000000;text-decoration-line:none;text-decoration-style:solid;text-indent:0;text-orientation:mixed;text-transform:none"/>
 </g>
</svg>
