<?xml version="1.0" encoding="UTF-8"?>
<svg id="svg8" width="16" height="16" version="1.1" xmlns="http://www.w3.org/2000/svg" xmlns:cc="http://creativecommons.org/ns#" xmlns:dc="http://purl.org/dc/elements/1.1/" xmlns:rdf="http://www.w3.org/1999/02/22-rdf-syntax-ns#">
 <metadata id="metadata14">
  <rdf:RDF>
   <cc:Work rdf:about="">
    <dc:format>image/svg+xml</dc:format>
    <dc:type rdf:resource="http://purl.org/dc/dcmitype/StillImage"/>
    <dc:title/>
   </cc:Work>
  </rdf:RDF>
 </metadata>
 <g id="g5249">
  <path id="path2" d="m6.5078 1c-3.028 0-5.5059 2.474-5.5059 5.5 0 1.0988 0.32947 2.1232 0.89062 2.9844h2.7812a3.488 3.488 0 0 1-1.6719-2.9844c0-1.944 1.5569-3.5 3.5059-3.5a3.488 3.488 0 0 1 3.5059 3.5c0 1.944-1.5579 3.5-3.5059 3.5a3.488 3.488 0 0 1-0.046875-0.0019531v2c0.015787 1.35e-4 0.031058 0.001953 0.046875 0.001953 3.028 0 5.5059-2.474 5.5059-5.5s-2.4779-5.5-5.5059-5.5z" style="fill:#474747;font-feature-settings:normal;font-variant-alternates:normal;font-variant-caps:normal;font-variant-ligatures:normal;font-variant-numeric:normal;font-variant-position:normal;isolation:auto;mix-blend-mode:normal;shape-padding:0;text-decoration-color:#000000;text-decoration-line:none;text-decoration-style:solid;text-indent:0;text-orientation:mixed;text-transform:none;white-space:normal"/>
  <path id="path4" d="m10 8.99a1 1 0 0 0-0.696 1.717l4.004 4a1 1 0 1 0 1.414-1.414l-4.003-4a1 1 0 0 0-0.72-0.303z" overflow="visible" style="fill:#474747;font-feature-settings:normal;font-variant-alternates:normal;font-variant-caps:normal;font-variant-ligatures:normal;font-variant-numeric:normal;font-variant-position:normal;isolation:auto;mix-blend-mode:normal;shape-padding:0;text-decoration-color:#000000;text-decoration-line:none;text-decoration-style:solid;text-indent:0;text-orientation:mixed;text-transform:none;white-space:normal"/>
  <path id="path2-3" d="m0.99806 9.9766h1.375l1.125 1.094 1.094-1.094h1.406v1.469l-1.094 1.062 1.094 1.063v1.406h-1.438l-1.062-1.063-1.063 1.063h-1.437v-1.406l1.062-1.063-1.062-1.061z" overflow="visible" style="color:#bebebe;fill:#474747"/>
 </g>
</svg>
