<?xml version="1.0" encoding="UTF-8"?>
<!-- Created with Inkscape (http://www.inkscape.org/) -->
<svg id="svg3527" width="32" height="32" version="1.0" xmlns="http://www.w3.org/2000/svg" xmlns:cc="http://web.resource.org/cc/" xmlns:dc="http://purl.org/dc/elements/1.1/" xmlns:rdf="http://www.w3.org/1999/02/22-rdf-syntax-ns#" xmlns:xlink="http://www.w3.org/1999/xlink">
 <defs id="defs3529">
  <linearGradient id="linearGradient8927" x1="19.029" x2="46.345" y1="3.0672" y2="39.187" gradientTransform="matrix(.7923 0 0 .74077 -9.0769 -1.0373)" gradientUnits="userSpaceOnUse">
   <stop id="stop5303" style="stop-color:#fff" offset="0"/>
   <stop id="stop5305" style="stop-color:#fff;stop-opacity:0" offset="1"/>
  </linearGradient>
  <linearGradient id="linearGradient8930" x1="22.804" x2="34.594" y1="10.039" y2="40.877" gradientTransform="matrix(.61683 0 0 .72306 -5.8238 -3.9943)" gradientUnits="userSpaceOnUse">
   <stop id="stop4412" style="stop-color:#eeeeec" offset="0"/>
   <stop id="stop4414" style="stop-color:#babdb6" offset="1"/>
  </linearGradient>
  <linearGradient id="linearGradient5449" x1="48" x2="78" y1="18.534" y2="18.534" gradientTransform="matrix(.96932 .30347 -.31303 .99988 -26.514 -28.878)" gradientUnits="userSpaceOnUse">
   <stop id="stop2298" style="stop-color:#fff" offset="0"/>
   <stop id="stop2300" style="stop-color:#fff;stop-opacity:0" offset="1"/>
  </linearGradient>
 </defs>
 <metadata id="metadata3532">
  <rdf:RDF>
   <cc:Work rdf:about="">
    <dc:format>image/svg+xml</dc:format>
    <dc:type rdf:resource="http://purl.org/dc/dcmitype/StillImage"/>
   </cc:Work>
  </rdf:RDF>
 </metadata>
 <g id="layer1">
  <g id="g3042" transform="matrix(.66767 -.16524 .17674 .62425 -4.5145 8.6144)" style="stroke-width:1.1471">
   <path id="path3055" d="m11.249 13.686c11.018 7.8164 20.074 0.26802 29.08 9.104l5.1758-18.011-1.1939-2.5247-24.804-7.853-2.7171 1.3052-5.5407 17.98z" style="fill-rule:evenodd;fill:url(#linearGradient5449);opacity:.51648"/>
  </g>
  <rect id="rect7756" transform="matrix(1 .000883 -.0010101 1 0 0)" x="5.5558" y="1.5544" width="21.428" height="25.205" rx="2.401" ry="2.0952" style="fill:url(#linearGradient8930);stroke-linecap:round;stroke-width:.7661;stroke:#333331"/>
  <rect id="rect7758" transform="matrix(1 .00085307 -.0010433 1 0 0)" x="6.4201" y="2.3132" width="19.766" height="23.624" rx="1.7708" ry="1.4405" style="fill:none;stroke-linecap:round;stroke-width:.7661;stroke:url(#linearGradient8927)"/>
  <path id="path920" d="m16.613 11.004c2.2123-2.1458 5.2369-0.15325 5.2105 1.8878-0.024105 1.8659-1.4842 2.7553-5.1559 6.0635-3.8224-3.0987-5.1704-3.8147-5.1434-6.0285 0.027155-2.2916 2.6273-4.004 5.0888-1.9229z" style="fill-rule:evenodd;fill:#c00"/>
  <path id="text9323" d="m12.316 8.585h-1.1826l-0.34268-1.1535h-1.7134l-0.33932 1.1535h-1.1758l1.7537-5.1854h1.2867l1.7134 5.1854m-1.7738-2.0503-0.51737-1.7429c-0.038079-0.13018-0.064959-0.28566-0.080631-0.46647h-0.02688c-0.011199 0.15187-0.039192 0.30254-0.083991 0.452l-0.52409 1.7574h1.233" style="fill:#c00"/>
  <path id="path4380" d="m24.993 19.697h-1.1826l-0.34268 1.1535h-1.7134l-0.33932-1.1535h-1.1758l1.7537 5.1854h1.2867l1.7134-5.1854m-1.7739 2.0503-0.51737 1.7429c-0.038079 0.13018-0.064953 0.28566-0.080631 0.46647h-0.02688c-0.011199-0.15188-0.039192-0.30255-0.083984-0.45201l-0.52409-1.7574h1.233" style="fill:#c00"/>
  <path id="path3471" d="m8.9446 22.271-4.9546 3.9772v-2.541l-2.725-0.11048v7.623l8.2989-0.11048v-2.762l-2.725-0.11048 4.2114-3.9772-2.1057-1.9886z" style="fill-rule:evenodd;fill:#fff;stroke-width:.99189px;stroke:#275897"/>
  <path id="path3493" d="m22.283 23.46 3.8603 4.8887h-2.4663l-0.10723 2.6888h7.399l-0.10723-8.1886h-2.6808l-0.10724 2.6888-3.8603-4.1554-1.9302 2.0777z" style="fill-rule:evenodd;fill:#fff;stroke-width:.9707px;stroke:#275897"/>
 </g>
</svg>
